<svg width="1840" height="1380" viewBox="0 0 1840 1380" fill="none" xmlns="http://www.w3.org/2000/svg">
<path d="M919.5 1379.9C614.5 1379.9 309.6 1379.9 4.59998 1380C0.899976 1380 0 1379.2 0 1375.4C0.1 918.5 0.1 461.5 0 4.60001C0 0.900006 0.799976 0 4.59998 0C614.9 0.1 1225.1 0.1 1835.4 0C1839.1 0 1840 0.800006 1840 4.60001C1839.9 461.5 1839.9 918.5 1840 1375.4C1840 1379.1 1839.2 1380 1835.4 1380C1530.1 1379.9 1224.8 1379.9 919.5 1379.9Z" fill="#FCFCFC"/>
<path d="M415.8 665C416.2 662.6 416.5 660.3 416.9 657.9C416 656.3 416.8 655.1 417.8 654C420.1 634.2 429.9 622.3 447.2 619.4C452.9 618.4 458.8 618.9 464.6 618.7C467.6 618.6 470.6 618.7 473.7 618.7C473.7 616.8 472.1 616.3 471.1 615.3C462.9 607.1 458.6 596.9 461.3 585.8C465.6 567.9 467.3 549.8 469.7 531.7C470.1 529.1 470.6 526.5 471.1 523.9C470.8 522.7 471 521.6 471.4 520.5C475.4 509.2 484.3 504 495.6 501.9C494.5 500.2 492.8 499.6 491.7 498.4C490.7 497.3 489.8 496.1 488.8 494.9C483.1 485.4 483.3 476.3 489.5 468.4C495 461.4 504.7 458.2 513.2 460.7C528 465 534.1 482.3 525.4 495C524.6 496 523.7 497.1 523 498.1C528.2 499.5 533.6 499.3 538.8 500.6C540.8 501.1 543.2 501.1 544.3 503.4C543.7 506.2 541.3 507.3 539.3 508.7C534.2 512.5 529.4 516.5 525.5 521.6C519.4 529.4 517.3 538.1 518.7 547.8C521 563.7 515.9 573.4 501 580.2C496.7 582.2 495.5 584.5 496.2 589C497.5 596.7 498.8 604.4 499.4 612.2C499.7 616.2 501.8 617.5 505.6 617.5C520.9 617.3 536.2 617.6 551.5 617.5C568.7 618.1 584.3 630.5 588.5 647.2C591.3 658.2 593.4 669.3 595.9 680.3C596.3 681.9 596.8 683.5 597.4 685C597.8 688 596.8 690.9 596.2 693.8C591.9 714.9 587.5 736.1 583.1 757.2C580.7 768.5 585.9 781.2 598.1 787.4C600 788.4 602.2 789 602.9 791.4C604.8 800.4 606.8 809.3 608.8 818.2C613.9 840.8 629 853.3 652.2 854.5C654.9 854.6 658.2 853.9 658.8 858C656.9 870.3 653.2 882.2 650.5 894.4C647.2 908.8 643.7 923.2 640.2 937.5C639.8 939.3 639.4 941.1 637.8 942.3C635.6 943.5 633.3 943.2 630.9 943.2C588.6 943.2 546.2 943.5 503.9 943.1C482.8 942.9 465.2 933.7 451.2 918.2C435 900.4 429.5 879.1 432 855.3C433.4 842.4 433.8 829.4 435.2 816.5C435.6 812.7 434.4 809.8 431.3 807.4C424.6 802.2 418.1 796.7 411.4 791.5C397.6 780.8 392.9 766.9 396.4 749.9C401.7 724.1 407.1 698.3 412.3 672.5C413 669.9 414.4 667.5 415.8 665Z" fill="black"/>
<path d="M1309.1 1083.8C1309.1 1106.9 1309 1130.1 1309 1153.2C1309 1154 1309.3 1154.8 1309.5 1155.6C1308 1157.7 1305.7 1157.5 1303.6 1157.5C1285 1157.6 1266.5 1157.6 1247.9 1157.5C1245.8 1157.5 1243.5 1157.7 1242 1155.6C1237.6 1145.5 1233.1 1135.4 1228.8 1125.2C1227.6 1122.4 1225.3 1120.1 1225 1116.9C1224.8 1115.5 1223.2 1115.6 1222.7 1115.9C1221.2 1116.7 1221.7 1118.3 1222.2 1119.4C1224.5 1125 1227 1130.5 1229.4 1136C1232.2 1142.6 1235 1149.1 1237.9 1155.7C1236.4 1157.4 1234.4 1157.5 1232.4 1157.5C1204.4 1157.6 1176.5 1157.6 1148.5 1157.5C1147.5 1157.5 1146.5 1157.4 1145.5 1157.1C1142.8 1156.4 1141.7 1154.2 1140.8 1151.8C1139.5 1148.1 1138.2 1144.3 1137 1140.6C1136.5 1138.6 1135.8 1136.6 1135 1134.7C1129 1116.1 1122.3 1097.6 1116.7 1078.9C1115.4 1075.4 1114.8 1071.8 1114.2 1068.2C1109.7 1056.8 1106.9 1044.9 1102.9 1033.4C1096.5 1014.4 1090.1 995.4 1083.9 976.3C1080.9 967.2 1078.1 958 1075.4 948.8C1074.7 946.3 1074.9 943.6 1074.7 941C1074.3 936 1074.3 931 1074.7 926.1C1075.7 912.1 1080.3 898.8 1083.4 885.2C1090 857 1097.1 828.9 1103.9 800.8C1107.4 786.5 1110.7 772.2 1114.1 758C1114.6 754.4 1114.8 750.8 1115.6 747.2C1119.7 729.3 1124.1 711.5 1128.5 693.6C1129.1 691.3 1129.1 688.6 1131.6 687.1C1133.7 686.3 1135.9 686.4 1138 686.4C1171.6 686.2 1205.3 688.1 1238.9 687.4C1240.9 687.4 1242.9 687.4 1244.7 688.6C1247.5 694.2 1246.9 700.3 1247.1 706.2C1248.3 733.3 1249.9 760.4 1251 787.4C1251.8 804.8 1252.5 822.3 1253.4 839.7C1254.6 863.6 1255.6 887.5 1257 911.5C1257.9 928.3 1258.6 945.1 1259.4 961.8C1260.2 979.4 1261 997 1262 1014.6C1262.5 1024.2 1263.2 1033.9 1263.4 1043.5C1263.5 1048.7 1264 1049.2 1269.2 1049.3C1280 1049.4 1290.9 1049.3 1301.7 1049.3C1304.2 1049.3 1306.7 1049 1309 1050.6C1310.4 1052.3 1310.4 1054.3 1310.4 1056.3C1310.4 1064.3 1310.6 1072.2 1310.3 1080.2C1310.2 1081.5 1310.1 1082.8 1309.1 1083.8Z" fill="#8F3600"/>
<path d="M1308.9 1051.3C1294.9 1051.2 1280.9 1051 1266.9 1051.2C1262.9 1051.3 1262 1050 1261.8 1046.2C1259.3 992.6 1256.7 939.1 1254.1 885.5C1252.6 854.4 1251.2 823.3 1249.7 792.2C1248.2 761.3 1246.6 730.3 1245.1 699.4C1244.9 695.9 1245.2 692.4 1245.2 688.9C1246.9 687.2 1249.2 687.5 1251.3 687.5C1257.1 687.4 1262.9 687.4 1268.8 687.5C1272.6 687.6 1274.6 686.2 1275.3 682.3C1277.4 670.5 1279.3 658.7 1281.6 646.9C1282.3 643.4 1280.6 642.4 1277.6 642.4C1270.3 642.4 1263 642.5 1255.6 642.3C1253.2 642.3 1250.5 642.6 1249 639.9C1247.3 632.6 1249.3 625.3 1249.8 618.1C1251.1 600.2 1252.8 582.3 1254.2 564.5C1255.6 546.8 1257.2 529.1 1258.7 511.4C1259.5 501.3 1260.3 491.2 1261.3 481.1C1261.5 479.1 1261.3 477.1 1262.3 475.2C1262.6 474.7 1263.1 474.3 1263.7 474C1264 473.9 1264.3 473.7 1264.6 473.7C1274.8 472.6 1275.4 473.1 1275.4 483.2C1275.4 500.5 1275.4 517.9 1275.4 535.2C1275.4 542.3 1275.3 542.3 1268.9 544.9C1268.1 545.2 1267.4 545.6 1266.7 546C1262 549 1260 556.6 1261.9 564.2C1263.1 569.3 1266.9 572.5 1272.7 573.1C1275.9 573.4 1279 573.4 1282.1 572.5C1286.9 571.1 1289.7 567.9 1290.3 562.9C1290.6 560.4 1290.6 557.9 1290.4 555.4C1290.1 549.3 1287.9 546.2 1281.9 544.6C1277.9 543.6 1276.5 541.4 1276.5 537.5C1276.5 518.3 1276.4 499.2 1276.5 480C1276.5 474.4 1277.7 473.5 1283.4 473.3C1291.1 473.1 1298.7 473.8 1306.3 472.9C1307.4 472.1 1310 473.5 1309.7 470.5C1310.2 470.3 1310.5 470.4 1310.8 470.8C1310.1 475 1313.1 475 1315.9 475.7C1331 479.3 1343 486.8 1350.1 501.2C1352.8 506.7 1353.7 512.5 1353.8 518.5C1352.6 521.4 1354 524.6 1353 527.6C1352.9 530.2 1352.9 532.9 1352.8 535.5C1351.6 538.4 1353 541.6 1352 544.6C1351.9 547.2 1351.9 549.9 1351.8 552.5C1350.6 555.4 1352 558.6 1351 561.6C1350.9 564.2 1350.9 566.9 1350.8 569.5C1349.6 572.4 1350.9 575.6 1350 578.6C1349.9 581.6 1349.8 584.5 1349.7 587.5C1348.6 590.1 1349.8 592.9 1349 595.6C1348.9 598.6 1348.8 601.5 1348.7 604.5C1347.6 607.1 1348.8 609.9 1348 612.6C1347.9 615.6 1347.8 618.5 1347.7 621.5C1346.6 624.1 1347.8 626.9 1347 629.6C1346.9 632.6 1346.8 635.5 1346.7 638.5C1345.6 641.1 1346.8 643.9 1346 646.6C1345.9 649.6 1345.8 652.6 1345.8 655.5C1344.6 658.4 1346 661.6 1345 664.6C1344.9 681.7 1334.2 689.2 1324.8 692C1323.9 692.3 1322.9 692.5 1321.9 692.6C1314.9 693.3 1314.9 693.3 1315.9 700.3C1319.8 726.4 1323.9 752.6 1327.7 778.7C1331.6 805.2 1335.1 831.7 1338.9 858.2C1342.5 883.5 1346.2 908.9 1349.9 934.2C1350.1 935.4 1350.6 936.6 1351.9 937.7C1351.9 936 1351.9 934.3 1351.9 932.6C1351.9 874.3 1351.9 816 1351.9 757.7C1351.9 755 1352 752.4 1352.1 749.7C1353.8 750.1 1353.3 751.4 1353.3 752.5C1353.2 817.3 1353.4 882.1 1353.2 946.9C1353.2 949 1353.4 951 1353.5 953C1353.9 953.6 1354.7 952.7 1354.2 953C1354 953.1 1353.8 953.1 1353.8 952.8C1352.9 949.4 1353.5 945.9 1353.5 942.5C1353.5 880.5 1353.5 818.6 1353.5 756.6C1353.5 754.9 1352.1 752.5 1354.8 751.4C1357.3 754.1 1356.5 757.4 1356.5 760.5C1356.6 818.8 1356.8 877.1 1356.4 935.5C1356.3 956.1 1357.5 976.4 1361 996.7C1363.7 1012.3 1365.6 1028 1367.8 1043.7C1368.7 1050.6 1368.1 1051.4 1361.1 1052.2C1358 1052.5 1356.6 1053.8 1356.6 1056.9C1356.6 1058.6 1356.6 1060.2 1356.6 1061.9C1356.6 1093.7 1356.6 1125.5 1356.6 1157.4C1356.6 1160.2 1357.1 1163.1 1355.2 1165.6C1351.6 1165.1 1353.1 1162.3 1353.1 1160.5C1353 1140.7 1352.8 1120.9 1353.1 1101.1C1353.3 1085.8 1353.5 1070.6 1353.5 1055.3C1353.5 1065.4 1353.5 1075.5 1353.4 1085.7C1353.4 1087.1 1354.5 1089.2 1352 1089.8C1350.1 1087.9 1350.4 1085.5 1350.4 1083.2C1350.3 1075.7 1350.4 1068.3 1350.4 1060.8C1350.4 1052.2 1350.4 1052.2 1341.6 1052.2C1333 1052.2 1324.4 1052.2 1315.7 1052.2C1313.4 1052.5 1311 1052.7 1308.9 1051.3Z" fill="#6DB5DE"/>
<path d="M415.8 665C409.6 694.7 403 724.3 397.3 754.1C394.5 768.9 400.2 781.2 412.1 790.4C419.4 796.1 426.7 802 434 807.7C436.1 809.4 437.3 811.2 437 814.1C435.7 829 434.5 843.8 433.3 858.7C431.7 878.9 436.3 897.3 448.9 913.4C461.3 929.1 477.5 938.4 497.2 941.5C498.3 941.7 499.5 941.9 500.7 941.9C546.5 941.9 592.3 941.8 638 941.8C639.8 940.2 642 940.3 644.2 940.3C650.7 940.3 657.2 940.2 663.7 940.4C667 940.5 669.3 941.8 669.3 945.4C669.5 957.4 669.9 969.4 669.1 981.4C669.1 981.9 668.8 982.3 668.6 982.8C664.7 987.3 659.1 987.4 653.9 987.4C636.3 987.6 618.7 987.7 601.1 987.4C599.3 987.4 597.6 988.5 595.7 988.3C592.4 987.6 589.1 987.5 585.8 987.5C553.8 987.4 521.7 987.7 489.7 987.4C488.2 987.2 486.7 987.5 485.2 987.3C469.6 988 454.5 985.7 440.2 979.1C438.5 978.3 436.9 977.5 435.4 976.5C434.4 975.8 433.3 975.2 432.2 974.7C431.6 974.3 431.3 973.6 430.8 973.2C409.8 960.7 396 942.5 388.7 919.3C385.4 908.8 384.3 897.7 382 887C379.1 873.2 377.1 859.3 374.2 845.5C371.7 833.9 370.2 822.1 368 810.5C365.5 796.9 362.8 783.4 360.3 769.9C358.5 759.8 357.1 749.7 355 739.6C354.4 736.7 354.4 733.8 353.6 730.9C353.2 725.9 353.1 720.9 353.6 716C356.7 687.7 382.2 668.2 407.7 667C410.6 666.9 413.7 667.6 415.8 665Z" fill="#202B6D"/>
<path d="M658.2 857.9C657 854 653.7 856 651.5 855.9C631.7 855.4 614.6 843 609.2 824.6C607.7 819.5 606.7 814.3 605.7 809.1C604.6 803.3 602.4 797.6 602.3 791.6C603.5 790.5 604.9 790.2 606.5 790.3C626.6 791.2 646.7 788.5 666.8 789.5C680.7 789.4 694.6 789.4 708.5 789.5C712.6 789.5 716.5 789 719.9 786.7C723 784.7 726.5 784.8 729.8 783.9C740.1 782.8 750.5 782.7 760.8 781.7C761.7 781.7 762.6 781.7 763.4 781.9C763.9 782.1 764.5 782.4 764.9 782.8C771.4 784.6 778.1 785.4 784.1 788.7C795.6 795.1 800.8 806 805.5 817.5C820.1 852.7 834.8 887.9 849.5 923.1C852.7 930.7 855.8 938.3 858.9 945.9C859.5 947.4 859.9 949.1 861.9 949.4C861.8 951.8 859.8 952.7 858.3 953.8C849.2 960.6 839.9 967.3 830.8 974.1C829.1 975.4 827.3 977.4 824.7 975.4C823.5 973.9 823.5 972 823.2 970.2C818 937.1 813.3 904 808 870.8C806.7 872.2 807.6 873.6 807.8 874.8C812.8 907.7 817.7 940.7 822.7 973.6C823 975.3 823.2 976.9 822.8 978.6C821.9 981.5 819.6 982.8 817 983.6C803.4 987.7 789.6 991.3 775.9 994.9C775.3 995.1 774.6 995 773.9 994.8C771.4 993.9 770.7 991.7 769.9 989.6C763.1 959.2 755.6 929.1 748.6 898.8C745.9 887.3 743.1 875.8 740.6 864.3C739.7 859.9 737.6 857.9 733.1 858.5C731.8 858.7 730.4 858.6 729.1 858.5C714 858.1 698.9 859 683.7 857.7C675.5 856.8 666.8 857.2 658.2 857.9Z" fill="#C57142"/>
<path d="M666.9 791C645.4 790.7 623.8 792.7 602.3 791.7C600.5 789.1 597.1 789 594.7 787.2C583.9 779.5 579.4 769.2 582.1 756.1C587 732.4 592 708.8 597 685.1C595.7 683.2 596.4 681.2 596.7 679.3C598.2 671.6 599.5 663.9 601.5 656.3C605.5 640.9 617.3 631.3 633.3 630.7C637.8 630.5 642.3 630.7 646.8 630.6C656.3 630.6 665.9 630 675.4 631C676 631.2 676.5 631.6 677 631.9C682.8 632 688.6 632.4 694.4 632.1C707.8 631.6 719.2 636.4 724.1 652C724.6 656 724.6 660 724.1 664C724 669.3 723.9 674.5 723.8 679.8C722.6 685.5 724 691.3 723.1 697C723 702.3 722.9 707.5 722.8 712.8C721.6 718.5 723 724.3 722.1 730C722 735.3 721.9 740.5 721.8 745.8C720.7 750.4 721.8 755.1 721.2 759.8C718.2 761.6 715.7 760.5 713.3 758.7C712 755.3 709.2 755.3 706.3 755.7C703.3 756.2 700.4 756.8 697.5 755.6C689.2 751 681 751.7 672.7 755.4C669.7 756.7 668.4 758.8 668.4 761.9C668.4 769.4 668.4 776.8 668.4 784.3C668.4 786.7 668.8 789.1 666.9 791Z" fill="#202B6D"/>
<path d="M658.8 1220C658.9 1218.1 659 1216.1 659.1 1214.2C660.1 1212.2 659.1 1210 659.8 1208C659.9 1206.1 660 1204.1 660.1 1202.2C661.1 1200.2 660.1 1198 660.8 1196C660.9 1194.1 661 1192.1 661.1 1190.2C662.2 1187.9 661 1185.4 661.8 1183C662 1181.4 662.1 1179.8 662.3 1178.2C662.1 1176.7 661.5 1175.2 661.5 1173.6C662.3 1156.3 663 1139 664 1121.8C664.5 1113.7 665.3 1105.5 665.4 1097.4C665.5 1089.1 666.5 1080.8 666.8 1072.5C667.1 1071.2 667.8 1070.2 668.9 1069.5C679.8 1066.9 691 1066.5 702 1064.9C712 1063.4 722.1 1062.1 732.2 1061C734.5 1060.8 736.8 1060.3 739 1061.7C740.1 1062.9 740.3 1064.4 740.3 1065.9C740.2 1074.4 741.4 1082.8 741.5 1091.3C741.7 1111.2 742.6 1131.1 743.4 1151C743.5 1154.3 745 1156.7 747.3 1158.8C751.5 1162.5 755.7 1166.3 761.2 1168.2C762.1 1168.8 763 1169.3 763.7 1170.2C764.1 1170.8 764.4 1171.6 764.8 1172.2C776.5 1180.7 788.1 1189.3 799.9 1197.7C808.4 1203.8 811.9 1212.5 813.8 1222.3C814 1223.3 813.8 1224.4 814.1 1225.2C815.6 1229 813.5 1229.2 810.6 1229.2C788.1 1229.1 765.7 1229.2 743.2 1229.2C716.3 1229.2 689.3 1229.2 662.4 1229.2C660.5 1229.2 657.8 1230.2 658 1226.5C659.1 1224.2 658.1 1222 658.8 1220Z" fill="#8F3600"/>
<path d="M770.9 989.8C771.9 991.3 773 992.7 774 994.2C776.7 1000.5 776.7 1007.4 778.2 1013.9C779.7 1021 780.6 1028.2 782 1035.4C782.5 1038 783.5 1040 786 1041.2C788.2 1051.6 790.9 1062 792.5 1072.5C793.5 1079 796.7 1081.7 802.4 1084C822.2 1091.8 841.9 1100 861.4 1108.5C872.4 1113.3 878.2 1123 881.8 1134C882.6 1136.5 880.9 1136.6 879.1 1136.9C856.9 1141.8 834.8 1146.8 812.6 1151.9C796.7 1155.5 780.9 1159.3 765.1 1163.1C764.7 1163.4 764.2 1163.7 763.7 1163.9C762.4 1164.3 761.1 1164.8 759.6 1164.9C751.7 1163.7 744.9 1155.9 744.5 1148.2C743.4 1126.9 743 1105.6 742.3 1084.4C742 1076.3 742.4 1068.1 740.6 1060.1C740 1058.9 739.6 1057.6 739.6 1056.2C739.5 1038.9 737.7 1021.7 738.5 1004.3C738.5 1003.5 738.7 1002.6 738.9 1001.8C739.3 1000.6 740.1 999.8 741.1 999.1C749.3 995.6 757.7 992.8 766.1 989.9C767.7 989.5 769.3 988.8 770.9 989.8Z" fill="#8F3600"/>
<path d="M1144.2 1155.9C1175.4 1155.9 1206.6 1155.8 1237.8 1155.8C1234.1 1172.7 1230.3 1189.6 1226.6 1206.6C1225.1 1213.3 1223.4 1219.9 1222.1 1226.7C1221.7 1228.7 1221 1229.2 1219.2 1229.1C1218.2 1229 1217.2 1229.1 1216.2 1229.1C1172.6 1229.1 1129 1229.1 1085.4 1229.1C1081.5 1229.1 1079.5 1229.7 1080.7 1223.7C1082.4 1215.5 1085.9 1208.6 1090.6 1202.2C1092.5 1199.7 1095.3 1197.7 1097.8 1195.7C1105 1189.9 1111.3 1183 1119.1 1177.9C1119.6 1176.3 1120.7 1175.3 1121.8 1174.1C1127.7 1169 1133.6 1163.8 1139.6 1158.6C1140.9 1157.4 1142.3 1156.1 1144.2 1155.9Z" fill="black"/>
<path d="M1249.7 640C1258.4 641.6 1267.2 640.6 1276 640.9C1284.3 641.1 1284.3 641 1282.9 649.1C1280.9 660.5 1278.8 672 1276.9 683.4C1276.3 687.3 1275 689.3 1270.3 689.1C1262 688.6 1253.7 689 1245.4 689C1240.3 688.9 1235.1 688.7 1229.9 688.7C1197 688.5 1164.1 688.3 1131.1 688.1C1125.4 690.8 1120.9 687.6 1116.3 685.2C1115.1 684.5 1114.7 683.2 1114 682.1C1111.3 678.9 1108.7 675.6 1108.9 671C1111 669.1 1113.6 669.6 1116 669.5C1123.7 669.4 1131.5 669.6 1139.2 669C1131.2 668.2 1123.1 668.6 1115.1 668.4C1112.7 668.3 1110 668.9 1108.1 666.8C1108.1 666.6 1108 666.3 1107.9 666.1C1108.5 664.4 1108.7 662.7 1107.9 661L1107.8 660.9C1107.5 660.4 1107.4 659.9 1107.6 659.3C1108 658.2 1108.7 657.4 1109.9 657C1117.7 655.9 1125.5 656.8 1133.3 656.5C1135.4 656.4 1137.5 656.8 1139.6 655.9C1132.5 655.2 1125.5 655.6 1118.4 655.4C1115.4 655.3 1112.4 655.8 1109.5 654.6C1107.5 652.9 1108.9 651.2 1109.6 649.7C1111.2 646.5 1113.8 644 1117.1 642.8C1124.6 640.1 1132.2 638.2 1140.2 637.9C1150.6 638.9 1161 638 1171.4 638.4C1163.8 637.8 1156.1 639.1 1148.5 637.6C1146.3 635 1149 634.5 1150.2 633.3C1153.3 632.1 1156.4 630.8 1159.6 629.7C1160.6 629.4 1161.6 628.9 1162.7 628.6C1169.7 626.6 1176.8 626.5 1183.3 629.4C1202.2 637.9 1222.1 639.5 1242.4 638.4C1245 638.4 1247.6 638.1 1249.7 640Z" fill="#FD9993"/>
<path d="M785.9 1041.1C783.9 1041.6 781.7 1042.8 781.1 1039.2C778.8 1025.6 776.4 1012.1 774.1 998.5C773.9 997 774 995.5 774 994C788 990.2 802 986.4 816 982.6C818.4 981.9 820.6 980.8 822.1 978.7C822.9 977.1 824.1 976 825.9 975.8C837.9 966.9 850 958.1 862 949.2C863.6 949 865.3 948.8 866.9 948.6C868.6 947.9 870.5 948.7 872.2 947.9C873.8 947.8 875.3 947.7 876.9 947.6C878.6 946.9 880.5 947.8 882.1 946.9C883.7 946.8 885.3 946.7 886.9 946.6C888.6 945.9 890.5 946.8 892.1 945.9C896.8 946.3 901.3 945.2 905.9 944.7C907.6 944 909.6 944.8 911.3 944C919.8 943.3 927.4 944.8 933.9 951.1C936.6 953.8 935.7 955 933.4 956.7C923.8 963.8 914.1 970.8 904.5 977.9C903.9 978.4 903.5 979.1 902.9 979.7C902.7 981.5 901 981 900 981.6C894.7 985.5 889.4 989.3 883.9 993.3C890 996.6 894.7 1001.1 897.2 1007.5C898 1009.6 898 1010.1 895.6 1010.8C860.4 1020.3 825.2 1030 790.1 1039.7C788.7 1040.3 787.3 1040.7 785.9 1041.1Z" fill="black"/>
<path d="M1242 1155.6C1264.5 1155.6 1287 1155.6 1309.5 1155.6C1314.5 1165.3 1318 1175.7 1322.2 1185.7C1327.6 1198.8 1332.9 1211.9 1338.3 1225C1338.8 1226.2 1339.1 1227.4 1339.5 1228.7C1301.3 1228.7 1263.3 1228.7 1225.4 1228.7C1229.2 1209 1234.7 1189.7 1238.2 1170C1238.9 1165.2 1240.7 1160.4 1242 1155.6Z" fill="black"/>
<path d="M1160.2 630.8C1157.1 632 1154.2 633.7 1150.9 634.2C1146.9 635.7 1142.7 635.6 1138.6 635.6C1105.9 635.7 1073.2 635.5 1040.5 635.7C1039.3 635.7 1038.2 635.7 1037.1 635.2C1037.1 633.1 1037 631 1037 628.9C1035.2 627.5 1033.2 628 1031.2 628C1019.4 628 1007.6 628 995.8 627.9C994 627.9 991.6 628.8 990.8 626C992.8 624 995.4 624.5 997.9 624.4C1008 624.3 1018.1 624.4 1028.3 624.4C1035.2 624.4 1035.6 624.1 1035.4 617C1035.3 608.7 1036.1 600.4 1034.5 592.2C1036.1 586.1 1035.2 579.8 1035.4 573.6C1035.5 570.8 1035.3 567.9 1038.2 566.2C1040.2 565.3 1042.4 565.4 1044.6 565.4C1080.7 565.4 1116.7 565.4 1152.8 565.4C1155.3 565.4 1157.8 565.2 1160 566.7C1161.5 568.5 1161.5 570.7 1161.5 572.9C1161.6 590.2 1161.6 607.4 1161.5 624.7C1161.6 626.7 1161.6 628.9 1160.2 630.8Z" fill="#ECE9E9"/>
<path d="M991.1 626C992.4 627.6 994.2 626.8 995.7 626.8C1008.1 626.9 1020.5 626.8 1032.9 626.9C1034.4 626.9 1036.9 625.7 1036.9 628.9C1022.7 628.9 1008.6 628.9 994.4 628.9C987.1 628.9 988.2 629.6 988.2 622.4C988.1 606.1 988.1 589.7 988.3 573.4C988.3 570 987.4 568.8 983.9 568.9C973.9 569.1 963.9 568.8 953.9 569.1C949.8 569.2 948.9 567.9 948.9 564C949.1 533 949 502 949 471C950.7 470 952.6 470.5 954.4 470.5C987.4 470.5 1020.4 470.5 1053.3 470.4C1055.1 470.4 1057 470.9 1058.7 469.9C1059.9 467 1057.8 463.5 1060 460.7C1072.8 460 1085.5 460.4 1098.3 460.5C1102.3 460.5 1103.9 459.6 1103.5 455.3C1102.9 447.6 1104.1 439.8 1102.9 432C1090.9 431.9 1078.9 431.8 1066.9 431.8C1033.7 431.8 1000.6 431.8 967.4 431.8C963.3 431.8 959.5 431.4 956.6 428C955 426.2 954.1 424.4 954.1 421.8C954.2 358.1 954.1 294.5 954.2 230.8C954.2 226.2 956.9 223.4 961 221.7C963.4 220.7 965.9 220.8 968.4 220.8C1073.5 220.8 1178.7 220.9 1283.8 220.7C1293.5 220.7 1299 224.9 1299 236.1C1298.7 296.8 1298.8 357.4 1298.9 418.1C1298.9 421.7 1298.4 425 1296 427.8C1294.1 426.5 1293.9 424.8 1294.4 422.8C1295.1 420.9 1295.4 419 1295.4 416.9C1295.1 358.4 1295.3 300 1295.3 241.5C1295.3 226.3 1293.5 224.5 1278.5 224.5C1177.2 224.5 1075.9 224.5 974.6 224.5C971.4 224.5 968.3 224.4 965.1 225.1C961.1 226.1 958.7 228.4 958.5 232.7C958.4 234.5 958.4 236.4 958.4 238.2C958.4 297 958.4 355.8 958.4 414.6C958.4 416.1 958.4 417.6 958.4 419.1C958.7 424.9 960.6 426.8 966.4 427.1C968.6 427.2 970.7 427.2 972.9 427.2C1042.2 427.2 1111.5 427.2 1180.8 427.2C1183.3 427.2 1185.8 427 1188.3 427.5C1190.1 427.9 1192.1 428.5 1192 430.8C1191.9 433 1189.8 433.1 1188.2 433.2C1182.4 433.7 1176.5 433.4 1170.7 433.4C1161.4 433.5 1161.4 433.4 1161.4 442.8C1161.4 446.3 1161.3 449.8 1161.4 453.3C1161.6 458.5 1162.1 459.1 1167.2 459.2C1175.9 459.3 1184.5 459.2 1193.2 459.2C1201 459.2 1201.1 459.2 1203.6 466.5C1204.5 469.1 1206.4 469.1 1208.3 469.2C1213.5 469.3 1218.6 469.2 1223.8 469.3C1226.1 469.3 1228.5 469.1 1230.6 470.5C1231.4 471.4 1231.4 472.3 1230.7 473.2C1228 475 1224.9 474.3 1221.9 474.3C1135.3 474.7 1048.7 474.5 962 474.5C952.3 474.5 952.3 474.5 952.3 484C952.3 508.3 952.3 532.6 952.3 557C952.3 564.9 952.6 565.2 960.4 565.3C966.6 565.3 972.7 565.3 978.9 565.3C985.8 565.3 986.1 565 986.1 557.9C986.1 540.1 986.1 522.3 986.2 504.4C986.2 501.5 985.6 498.3 988.6 496.2C990.8 495.3 993.2 495.6 995.5 495.6C1047.9 495.6 1100.3 495.6 1152.8 495.6C1154.1 495.6 1155.5 495.5 1156.8 495.7C1158.2 495.9 1160.4 495.7 1160.4 497.4C1160.4 499.5 1158.1 499.2 1156.5 499.4C1154.7 499.6 1152.8 499.5 1151 499.5C1100.7 499.5 1050.5 499.5 1000.2 499.5C997.8 499.5 995.1 498.8 993.2 501.1C992 503.5 992.4 506 992.4 508.5C992.4 544.8 992.4 581.1 992.4 617.4C992.6 620.3 993.2 623.4 991.1 626Z" fill="#5A83AF"/>
<path d="M676.3 631.9C666.3 631.9 656.3 631.9 646.3 632C645.1 631 644.6 629.5 644.6 628C644.6 619.6 644 611.1 645 602.7C646 599.5 648 596.7 650.1 594.3C660.1 583.1 661.3 569.5 660.2 555.5C659.6 547.6 660 547.4 667.8 546.5C680.9 545.1 694 546.3 707.1 545.2C707.9 545.1 708.8 545.2 709.5 545.6C711.4 546.7 709.8 548.9 711 550.2C710.5 553.9 711.9 557.4 711.9 561C711 561.8 709.1 561.8 709.2 563.3C709.3 565.4 711.5 564.3 712.6 565C712.8 567 713 569.1 713.2 571.1C713.7 576.4 713.7 581.7 713.2 586.9C710.1 602.8 698.6 609.9 681.7 612.8C680.1 613.1 678.4 612.8 677 614.1C675.8 620 677.1 626 676.3 631.9Z" fill="#FD9993"/>
<path d="M472.1 521.2C472 522.2 472.2 523.3 471.2 524C460 523.9 448.9 523.8 437.7 523.7C412.7 523.7 387.7 523.6 362.7 523.8C358.2 523.8 356.9 522.8 356.9 518.2C357 435.9 357 353.6 357 271.4C358.4 270 360.2 270.7 361.7 270.7C514.5 270.7 667.3 270.7 820.1 270.7C821.7 270.7 823.4 270 824.9 271.4C824.9 353.4 824.9 435.4 824.9 517.3C824.9 523.7 824.9 523.7 818.3 523.7C777 523.7 735.7 523.7 694.3 523.8C692.5 523.8 690.3 522.8 688.8 525C688 526 686.8 526.2 685.7 525.9C677.6 523.7 669.4 525.9 661.3 526C657.7 525.1 654 525.7 650.4 525.7C623.8 525.7 597.2 525.7 570.5 525.7C569 525.7 567.5 525.7 566 525.3C565 525.1 564.1 524.7 563.5 523.9C562.9 523 562.6 522.1 562.8 521.1C563.3 520.6 563.8 520.3 564.5 520C567.6 519.2 570.8 519.5 573.9 519.5C653.2 519.5 732.5 519.5 811.9 519.5C821.4 519.5 821.4 519.5 821.4 510.3C821.4 435 821.4 359.7 821.4 284.3C821.4 283.1 821.4 282 821.4 280.8C821.2 275.4 820.8 274.9 815.3 274.8C814 274.8 812.6 274.8 811.3 274.8C664.8 274.8 518.4 274.8 371.9 274.8C361 274.8 361.8 274.4 361.8 284.8C361.8 360 361.8 435.1 361.8 510.3C361.8 519.5 361.8 519.5 371.2 519.5C402 519.5 432.9 519.5 463.7 519.5C466.5 519.4 469.6 518.7 472.1 521.2Z" fill="#5A84B0"/>
<path d="M1295.1 424.1C1295.4 425.4 1295.7 426.7 1296.1 428C1296.3 433.2 1297.4 438.2 1295.2 443.4C1292.1 450.9 1286.4 455.1 1279.4 458C1274.4 460 1269.3 461.7 1263.9 462.2C1262.2 462 1261.9 460.6 1261.8 459.3C1261.1 454 1260 448.7 1260.9 443.3C1261.5 440.9 1263.4 439.5 1265.2 438.1C1267.9 436 1270.6 433.7 1272.1 430.5C1273 428.8 1274.7 428 1276.3 427.2C1281 424.6 1284 420.9 1283.6 415.3C1283.2 409.9 1279.2 407.1 1275 404.6C1273.2 403.5 1270.9 403.3 1269.3 401.8C1267.4 399.8 1265.6 401.2 1263.9 402.1C1261.8 403.2 1259.9 404.5 1257.9 405.6C1256.3 406.5 1254.6 407.4 1252.9 405.6C1250.5 399.6 1251.8 393.1 1250.6 387C1250.3 385.2 1250.7 383.3 1249.7 381.7C1248.3 380 1246.4 380.5 1244.6 380.4C1238.7 380.3 1232.7 380.5 1226.8 380.3C1225.4 380.3 1223.6 380.3 1223.1 378.6C1222.7 377.1 1223.9 376.2 1225 375.5C1230.2 374 1235.5 375 1240.8 374.7C1242.9 374.6 1245.1 375 1247.7 374.1C1246.5 371.2 1243.8 370.3 1241.6 368.8C1237.6 366.2 1232.5 365.6 1229.2 361.7C1228.5 359.3 1228.7 357.1 1230.9 355.4C1238.8 353.3 1246.6 355.8 1254.5 356C1260.8 356.2 1267 357.2 1272.6 360.7C1274.1 361.5 1275.5 362.4 1276.8 363.5C1284.8 370.1 1288.4 379 1289.8 388.9C1291.2 398.2 1292.8 407.5 1295 416.7C1295.5 419.2 1296 421.7 1295.1 424.1Z" fill="black"/>
<path d="M662 524.8C671 523.3 679.9 523.1 688.8 524.9C700.7 526.6 707.5 533.6 710.1 545.1C710.4 545.6 710.3 545.9 709.9 546.3C694.9 546.8 680 547.5 665 547.9C661.7 548 660.6 548.8 661.1 552.1C662.2 559.6 661.5 567.1 660.9 574.5C660.4 580.7 657.8 586 654.2 590.9C651.5 594.6 648.8 598.4 646.1 602.2C640.5 601.3 635.4 595 636 589.8C639 588.7 641.3 591.3 644.6 591.4C644.7 584.2 644.6 576.9 644.6 569.7C644.6 567.4 643.2 567.4 641.6 567.9C639.3 568.6 637.4 569.8 635.5 571.1C634.1 572.1 632.9 573.8 630.7 573.1C629.4 571.5 628.8 569.5 628.9 567.5C629.1 553.5 631.6 540.3 643.1 530.8C648.5 526.3 655 524.3 662 524.8Z" fill="black"/>
<path d="M1352.1 1089.9C1353.7 1088.2 1352.9 1086.1 1352.9 1084.2C1353 1073.5 1352.9 1062.7 1352.9 1050.8C1354.4 1053.7 1353.9 1055.5 1353.9 1057.3C1353.9 1091.6 1353.9 1125.8 1354 1160.1C1354 1162 1353.4 1164.1 1354.7 1165.9C1359.1 1172.9 1365.9 1173.4 1373.4 1173.4C1417.7 1173.2 1462.1 1173.3 1506.4 1173.3C1508.4 1173.3 1510.4 1173.4 1512.4 1173.2C1518.4 1172.8 1521.7 1169.4 1522.2 1163.3C1522.3 1161.5 1522.3 1159.6 1522.3 1157.8C1522.3 1025.5 1522.3 893.2 1522.3 760.9C1522.3 747 1520.8 745.5 1506.8 745.5C1462 745.5 1417.1 745.6 1372.3 745.4C1365.4 745.4 1359 745.6 1354.7 751.9C1353.4 753.7 1354 755.8 1354 757.7C1354 821.5 1354 885.2 1354 949C1354 950.9 1354 952.8 1354 954.7C1352.3 950.9 1352.9 946.9 1352.9 943C1352.9 880.1 1352.9 817.1 1352.9 754.2C1352.9 752.8 1353.4 751.2 1352.2 749.9C1354.1 743 1359.1 741 1365.7 741C1414.5 741.1 1463.3 741 1512.2 741C1521.2 741 1526 745.8 1526 754.8C1526 890.9 1526 1027 1526 1163.1C1526 1172.1 1521.6 1176.6 1512.6 1176.6C1463.6 1176.6 1414.6 1176.6 1365.6 1176.6C1355.8 1176.6 1352.2 1173 1352.2 1163.2C1352.2 1141.2 1352.1 1119.2 1352.3 1097.2C1352.3 1093.3 1351.4 1091.5 1347.3 1092.5C1345.6 1091.7 1343.7 1092.5 1342 1091.8C1330.5 1090.9 1319.5 1088.4 1309.1 1083.4C1309.1 1082.5 1309.1 1081.5 1309.1 1080.6C1311.2 1079.7 1313 1080.7 1314.8 1081.4C1325.3 1085.4 1336.1 1087.8 1347.3 1088.1C1349.1 1088.6 1350.7 1088.8 1352.1 1089.9Z" fill="#5A83AF"/>
<path d="M1037.1 635.2C1038.2 633.9 1039.8 634.1 1041.3 634.1C1077.8 634.1 1114.4 634.1 1150.9 634.2C1149.9 635 1148.9 635.8 1148 636.7C1145.9 639.4 1142.5 637.9 1140 639.1C1133.4 640.4 1126.8 641.6 1120.2 643.1C1114.5 644.4 1110.9 648.3 1109.1 653.9C1108.9 655.3 1108.5 656.7 1108.9 658.1C1108.6 658.8 1108.3 659.5 1108.1 660.1C1091.5 660.8 1074.9 660.3 1058.4 660.4C1053.6 660.4 1048.8 660.9 1044 660.1C1039 658.9 1036.9 655.8 1037.2 650.5C1037.5 645.5 1037.2 640.3 1037.1 635.2Z" fill="#202B6D"/>
<path d="M713.9 757.9C716.3 758.6 718.6 759.3 721 760C721.6 760 721.7 760.7 722.1 761C722.8 762.8 725.2 763.7 725.1 766C722 768.4 718 767.1 714.7 768.7C718.4 769.5 722.6 767.2 726 770.2C726 771.8 726 773.3 726 774.9C722.7 777.8 718.3 775.3 714.3 777.1C718.2 778.3 722.1 776.9 725.5 778.3C727 780.6 726.2 784.4 730 785.2C709.6 794.6 688 790.2 666.9 791C666.8 780.9 666.8 770.7 666.6 760.6C666.5 757.5 667.5 756 670.4 754.7C678.7 750.9 687 748.8 695.7 753.1C696.6 753.5 697.3 754.2 698.1 754.8C696.2 757.2 693.2 755.8 689.8 757.3C694.7 757.7 698.5 757.5 702.2 757C706.1 756.6 710.1 755.6 713.9 757.9Z" fill="#FD9993"/>
<path d="M485 986C486.4 986 487.8 986 489.2 986C490.2 987.4 489.7 988.9 489.4 990.3C483.2 1016.4 477.4 1042.6 471.5 1068.7C471.4 1070.1 470.7 1071.3 470.6 1072.7C463.3 1106.5 455.8 1140.2 448.6 1174C448.5 1174.8 448.3 1175.5 448 1176.3C447.5 1177.2 446.7 1177.8 446.3 1178.8C443.6 1191 440.8 1203.1 438.2 1215.3C437.4 1218.8 436.8 1222.4 436.1 1225.9C435.8 1227.7 435.1 1229.4 432.9 1228.7C430.5 1228 431.9 1226.4 432.2 1224.9C434.9 1209.7 439.3 1194.8 441.3 1179.5C441.4 1178.9 441.8 1178.4 442.1 1177.8C442.1 1177.6 442.1 1177.3 442 1177.1C441.9 1175.9 442 1174.6 442 1173.4C449.2 1139.7 456.4 1105.9 464 1072.3C464.3 1071 464.7 1069.7 464.9 1068.3C470.4 1042.9 476 1017.5 482.3 992.2C482.8 990.1 483.2 987.7 485 986Z" fill="#010101"/>
<path d="M596.9 987.8C597.3 985.7 598.8 986 600.3 986.1C602 987.2 602.5 989 602.9 990.8C609.2 1016.5 614.9 1042.3 620.5 1068.1C620.7 1069.5 621.3 1070.7 621.4 1072.1C628.7 1105.7 636.2 1139.2 643.3 1172.9C643.4 1174.2 643.7 1175.4 643.9 1176.7C643.8 1177.9 643.3 1179.1 643.9 1180.3C645.6 1192.8 649 1204.9 651.4 1217.3C652.1 1221 652.9 1224.7 653.7 1228.6C651.4 1228.8 649.9 1230.1 648.9 1225.6C646.1 1212.5 643.9 1199.3 640.2 1186.3C639.5 1183.7 639.1 1180.7 638.8 1177.9C638.5 1177.5 638.2 1177.1 638 1176.6C637.6 1175.4 637.2 1174.2 636.8 1172.9C629.2 1139.5 622.1 1106 614.7 1072.5C614.5 1071.2 614.2 1069.9 613.9 1068.6C611 1056 608 1043.4 605.5 1030.8C604.9 1028.6 604.7 1026.2 604.1 1024C603.4 1020.8 602.5 1017.6 601.7 1014.4C601.5 1013.1 601 1011.9 600.7 1010.6C599.4 1004.9 598.1 999.1 596.7 993.4C596.3 991.6 595.4 989.6 596.9 987.8Z" fill="#010101"/>
<path d="M1261.8 442.3C1262 449 1262.1 455.7 1263.9 462.2C1264 464.8 1264.1 467.4 1264.1 470C1264.4 470.4 1264.6 470.7 1264.8 471.1C1265 471.7 1265 472.4 1264.9 473.1C1264.8 473.8 1264.5 474.3 1264 474.8C1263.7 475 1263.4 475.2 1263.1 475.4C1262 476.1 1260.7 476.6 1259.4 476.5C1250.1 476.2 1240.7 477.7 1231.4 475.6C1230.5 474.9 1230.3 474 1230.8 473C1230.8 472.3 1230.8 471.6 1230.8 470.8C1228.6 465.4 1230 459.7 1229.7 454.1C1229.6 452.8 1230.8 452 1232 451.8C1242.4 450.3 1252.3 447 1261.8 442.3Z" fill="#FD9993"/>
<path d="M1122 1175C1121 1175.9 1120.1 1176.9 1119.1 1177.8C1117.6 1176.2 1115.6 1177 1113.9 1177C1083.3 1176.9 1052.7 1176.9 1022.1 1176.9C1020.8 1169.2 1021.7 1161.4 1021.6 1153.7C1021.6 1148.5 1020.7 1143.2 1022.2 1138C1051.2 1138 1080.2 1137.9 1109.2 1138.1C1113.1 1138.1 1114.2 1137.1 1114.2 1133.1C1114.1 1111.4 1114.2 1089.8 1114.3 1068.1C1115.5 1071.2 1116.6 1074.4 1117.8 1077.5C1119.4 1094.7 1118.3 1112 1118.6 1129.3C1118.7 1136 1119 1136.2 1125.7 1136.4C1129.4 1136.5 1133 1136.3 1136.5 1135.2C1137 1136.9 1137.4 1138.5 1137.9 1140.2C1135.4 1142.1 1132.5 1141.5 1129.7 1141.6C1098.2 1141.6 1066.7 1141.6 1035.2 1141.6C1033.4 1141.6 1031.5 1141.6 1029.7 1141.7C1027.1 1141.8 1025.7 1143 1025.7 1145.7C1025.6 1153.7 1025.6 1161.7 1025.7 1169.7C1025.7 1172.2 1027.1 1173.3 1029.5 1173.4C1031.2 1173.5 1032.8 1173.5 1034.5 1173.5C1061 1173.5 1087.5 1173.5 1114 1173.5C1116.7 1173.4 1119.6 1172.8 1122 1175Z" fill="#5B84B0"/>
<path d="M825 271.3C823 271.2 821 270.9 819 270.9C667 270.9 515 270.9 363.1 270.9C361.1 270.9 359.1 271.2 357.1 271.3C358.9 268.9 361.4 270.1 363.6 270.1C493.4 270 623.2 270.1 753 270.1C775.2 270.1 797.3 270.1 819.5 270.1C821.3 270.1 823.5 269.2 825 271.3Z" fill="#FCFCFC"/>
<path d="M431 973.2C431.4 973.4 431.7 973.6 432.1 973.9C433.7 975.7 433.5 977.9 433.5 980.1C433.5 1043.7 433.5 1107.3 433.5 1170.9C433.5 1172.7 433.7 1174.6 432.7 1176.3C432.5 1176.5 432.2 1176.8 432 1177C430.3 1175.1 431.1 1172.9 431.1 1170.8C431 1104.9 431 1039.1 431 973.2Z" fill="#FCFCFC"/>
<path d="M638.8 1177C639 1177.3 639 1177.6 638.9 1177.9C576.9 1177.9 515 1177.9 453 1177.9C450.7 1177.9 448.3 1177.5 446.2 1178.9C446.1 1178.1 446.1 1177.3 446.8 1176.8C448.7 1175.4 450.9 1175.5 453 1175.5C512.9 1175.5 572.8 1175.5 632.7 1175.5C634.9 1175.5 637.1 1175.2 638.8 1177Z" fill="#FCFCFC"/>
<path d="M1114.1 682.1C1114.9 682.8 1115.7 683.4 1116.6 684.1C1117.8 686.4 1117.6 689 1117.6 691.4C1117.4 710.2 1118.3 729 1116.8 747.7C1116 751.1 1115.1 754.5 1114.3 757.9C1114.2 732.6 1114.2 707.3 1114.1 682.1Z" fill="#5881AE"/>
<path d="M1108.2 666.9C1118.5 666.9 1128.8 666.8 1139.1 666.9C1140.9 666.9 1143.9 666 1143.7 668.9C1143.6 671.6 1140.7 670.7 1138.8 670.8C1128.8 670.9 1118.9 671 1108.9 671C1107.3 671.3 1106.8 670.1 1106.4 669C1106 667.5 1107.7 667.6 1108.2 666.9Z" fill="#0E0909"/>
<path d="M1058.7 470C1057.2 471.5 1055.2 470.7 1053.5 470.7C1020.6 470.8 987.8 470.7 954.9 470.8C952.9 470.8 950.9 471 948.9 471.1C950.5 469.3 952.6 470.1 954.5 470.1C989.3 470 1024 470 1058.7 470Z" fill="#FCFCFC"/>
<path d="M887 221.6C887.6 222.8 886.6 222.9 886.2 223.3C885.5 223.9 885 223.5 884.5 223C880.2 217.4 875.5 212.2 870.7 207C869.9 206.2 868.6 204.5 869.6 203.6C871.4 202 872 204.5 872.9 205.4C876.8 209.7 880.7 214 884.6 218.3C885.5 219.4 886.3 220.7 887 221.6Z" fill="#638AB4"/>
<path d="M994.7 827.5C997.4 826.7 998.2 827.7 999 828.5C1003.7 833.9 1008.4 839.2 1013.1 844.6C1013.8 845.4 1014.4 846.2 1013.6 847.2C1012.9 848.1 1012 847.4 1011.5 846.9C1006 840.6 1000.5 834.2 994.7 827.5Z" fill="#6289B3"/>
<path d="M1419.1 613.9C1419.9 614.6 1420.5 615.1 1421 615.7C1425.7 621 1430.3 626.4 1435 631.7C1435.7 632.5 1436.5 633.5 1435.6 634.3C1434.4 635.4 1433.5 634.1 1432.8 633.3C1429.3 629.4 1425.6 625.7 1422.5 621.5C1421.2 619.7 1419.6 618.4 1418.3 616.8C1417.9 616.4 1417.1 616 1417.6 615.2C1417.8 614.7 1418.4 614.4 1419.1 613.9Z" fill="#638AB4"/>
<path d="M1103 432.2C1104.9 434.5 1103.8 437.2 1103.9 439.7C1104.1 445.3 1103.8 451 1104 456.7C1104.1 459.8 1103.4 461.1 1100 461.1C1086.7 460.9 1073.4 461 1060.1 460.9C1061.7 459.5 1063.6 460.1 1065.3 460.1C1076.4 460 1087.5 460 1098.6 460.1C1102.1 460.2 1103.2 459 1103.1 455.5C1102.8 447.8 1103 440 1103 432.2Z" fill="#FCFCFC"/>
<path d="M707.8 610.1C713.4 605.1 719 600.1 724.6 595C725.6 594.1 726.8 593.5 727.6 594.6C728.6 595.9 727 596.6 726.2 597.3C720.8 602.2 715.4 607.1 710 611.9C707.8 613.1 707.5 611.9 707.8 610.1Z" fill="#6289B3"/>
<path d="M1450.8 439.1C1452.3 437.5 1453 438.1 1453 440C1453 443.6 1452.9 447.2 1452.9 450.7C1452 452.7 1452.9 454.9 1452.2 456.9C1451.4 459.4 1453 462.5 1450 464.8C1448.6 463.4 1449.5 461.6 1449.1 460.2C1450.1 458.2 1449.1 456 1449.8 454C1449.9 451.1 1450 448.2 1450.1 445.2C1451 443.3 1450 441.1 1450.8 439.1Z" fill="#638AB4"/>
<path d="M1044 660.1C1065.4 660.1 1086.7 660.1 1108.1 660.1C1108 660.4 1108 660.6 1107.9 660.9C1088.2 660.9 1068.4 660.9 1048.7 660.9C1047.1 661 1045.4 661.5 1044 660.1Z" fill="#FCFCFC"/>
<path d="M726 779.1C722.4 779.1 718.8 779.2 715.2 779.1C713.7 779.1 711.4 780 711.2 777.6C711 774.9 713.6 775.5 715.3 775.3C718.9 775 722.5 775 726.1 774.8C726.5 775.2 726.9 775.5 727.3 775.9C727.6 776.4 728.3 776.6 728.4 777.3C728.4 778.2 727.9 778.9 727.1 779.3C726.7 779.5 726.3 779.4 726 779.1Z" fill="#0C0808"/>
<path d="M726 770.2C722.4 770.3 718.8 770.4 715.2 770.5C713.5 770.5 711.1 771.3 711 768.6C710.9 766.1 713.3 766.9 714.8 766.7C718.2 766.4 721.7 766.2 725.1 766C727.9 766.8 729.1 768 726 770.2Z" fill="#0E0A09"/>
<path d="M878.2 725.9C878.1 727.2 878.1 728.5 877.8 729.8C877.6 730.8 877.1 731.9 875.9 731.4C875.4 731.2 875.3 730 875.1 729.3C876 727.6 875.1 725.8 875.8 724.1C875.9 721.2 876 718.2 876.1 715.3C877.1 713.3 876.1 711.1 876.8 709.1C877.4 707.7 876.1 705.2 879 705C879.9 707.3 879.5 709.6 879.2 711.9C879.1 714.5 879 717.1 878.9 719.7C878 721.7 878.9 723.9 878.2 725.9Z" fill="#638AB3"/>
<path d="M417.9 654.1C417.6 655.4 417.3 656.7 417 658C412 652.3 407 646.6 402 640.9C401.3 640.1 399.8 639.2 401.1 638C402.4 636.9 403.1 638.5 403.8 639.3C407.2 643.1 410.5 647 413.9 650.9C415 652.2 415.7 654.1 417.9 654.1Z" fill="#648BB4"/>
<path d="M1264 470.7C1264 470.5 1264.1 470.2 1264.2 470C1278.1 470 1292 470 1305.9 470C1307.6 470 1309.6 469.3 1311 471.1L1310.6 471H1310.1C1308.5 472.1 1306.7 472.3 1304.9 472.3C1293 472.4 1281 472.4 1269.1 472.3C1267.1 472.4 1265.3 472.4 1264 470.7Z" fill="#FCFCFC"/>
<path d="M643.1 1177C642.8 1176 642.5 1175 642.1 1174C648.9 1173.3 655.8 1172.2 662.5 1174.8C662.6 1175.9 663.1 1177.1 662.3 1178.1C662.1 1178.1 661.9 1178 661.8 1177.9C655.7 1176.5 649.3 1178.2 643.1 1177Z" fill="#5881AC"/>
<path d="M1022.2 1138C1021.4 1151 1021.6 1164 1022.1 1176.9C1020.7 1176 1021 1174.6 1021 1173.3C1021 1162.7 1021 1152.1 1021 1141.5C1021 1140.2 1020.7 1138.8 1022.2 1138Z" fill="#FCFCFC"/>
<path d="M727.8 777.1C727.6 776.7 727.4 776.3 727.2 776C737.8 776 748.3 776 758.9 776C760.7 776 762.6 775.4 764.1 776.9C763.9 777.1 763.6 777.4 763.4 777.6C758.2 779.2 752.9 778.2 747.7 778.4C742.8 778.6 737.8 778.5 732.9 778.4C731.1 778.4 729.3 778.5 727.8 777.1Z" fill="#FCFCFC"/>
<path d="M712.6 565C711 566.2 709.4 566.8 707.8 565C706.9 564 706.8 563 707.6 561.8C708.7 560.1 710.2 560.1 711.9 561C712.5 562.2 713.4 563.4 712.6 565Z" fill="#160F0F"/>
<path d="M643.1 1177C649.3 1177.5 655.7 1175.8 661.8 1177.9C657.2 1177.9 652.6 1177.9 647.9 1177.9C646.1 1177.9 644.1 1177.6 643.8 1180.3C643 1179.4 643 1178.2 643.1 1177Z" fill="#FCFCFC"/>
<path d="M676.3 631.9C676.7 626 675.3 620 677 614.1C677 620 677 625.9 677 631.9L676.6 632L676.3 631.9Z" fill="#FCFCFC"/>
<path d="M723.2 697C723.1 691.3 722.9 685.5 723.9 679.8C723.7 685.5 725 691.3 723.2 697Z" fill="#FCFCFC"/>
<path d="M722.2 730C722.1 724.3 721.9 718.5 722.9 712.8C722.7 718.5 724 724.3 722.2 730Z" fill="#FCFCFC"/>
<path d="M713.2 586.9C713.2 581.6 713.2 576.3 713.2 571.1C714.5 576.4 714.5 581.6 713.2 586.9Z" fill="#FCFCFC"/>
<path d="M722 761C721.6 760.7 721.3 760.3 720.9 760C721.2 755.3 721.6 750.5 721.9 745.8C722 750.9 722 755.9 722 761Z" fill="#FCFCFC"/>
<path d="M353.9 716C353.9 721 353.9 726 353.9 730.9C352.5 726 352.5 721 353.9 716Z" fill="#FCFCFC"/>
<path d="M1074.8 926C1074.8 931 1074.8 936 1074.8 940.9C1073.5 936 1073.5 931 1074.8 926Z" fill="#FCFCFC"/>
<path d="M724.2 664C724.2 660 724.2 656 724.2 652C725.6 656 725.5 660 724.2 664Z" fill="#FCFCFC"/>
<path d="M442 1177.9C438.7 1177.5 435.2 1178.9 432 1177L432.1 1176.9C435.7 1175.3 439.2 1173.9 442.3 1177.9H442Z" fill="#FCFCFC"/>
<path d="M1351.1 562C1351.2 559 1350.5 555.9 1351.9 552.9C1351.6 555.9 1352.8 559.1 1351.1 562Z" fill="#FCFCFC"/>
<path d="M1353.1 528C1353.1 525 1352.5 521.9 1353.9 518.9C1353.6 521.9 1354.8 525.1 1353.1 528Z" fill="#FCFCFC"/>
<path d="M1350.2 578.9C1350.2 575.9 1349.6 572.8 1351 569.8C1350.6 572.9 1351.8 576 1350.2 578.9Z" fill="#FCFCFC"/>
<path d="M1345.1 664.9C1345.1 661.9 1344.5 658.8 1345.9 655.8C1345.6 658.9 1346.8 662 1345.1 664.9Z" fill="#FCFCFC"/>
<path d="M1352.1 545C1352.1 542 1351.5 538.9 1352.9 535.9C1352.6 538.9 1353.8 542.1 1352.1 545Z" fill="#FCFCFC"/>
<path d="M764.3 1163.1C764.6 1163 764.8 1163 765.1 1163.1C765.1 1166 765.1 1169 765.1 1171.9C764.8 1171.6 764.4 1171.3 764.1 1171.1C762.6 1168.4 761.7 1165.7 764.3 1163.1Z" fill="#FCFCFC"/>
<path d="M900 981.8C901 981.2 902 980.5 902.9 979.9C903.9 980.4 904.4 981.6 903.8 982.3C902.6 983.7 901.4 981.4 900 981.8Z" fill="#7C9ABB"/>
<path d="M1349.2 595.9C1349.2 593.2 1348.6 590.4 1349.9 587.8C1349.6 590.6 1350.8 593.4 1349.2 595.9Z" fill="#FCFCFC"/>
<path d="M1347.2 629.9C1347.2 627.2 1346.6 624.4 1347.9 621.8C1347.6 624.5 1348.8 627.4 1347.2 629.9Z" fill="#FCFCFC"/>
<path d="M1348.2 612.9C1348.2 610.2 1347.6 607.4 1348.9 604.8C1348.6 607.5 1349.8 610.4 1348.2 612.9Z" fill="#FCFCFC"/>
<path d="M1346.2 646.9C1346.2 644.2 1345.6 641.4 1346.9 638.8C1346.6 641.5 1347.8 644.4 1346.2 646.9Z" fill="#FCFCFC"/>
<path d="M879.2 711.9C879.1 709.6 879.1 707.3 879 705C880.7 707.3 880.4 709.6 879.2 711.9Z" fill="#FCFCFC"/>
<path d="M661.8 1183C661.9 1185.4 661.9 1187.8 661.1 1190.2C661.3 1187.7 660.3 1185.2 661.8 1183Z" fill="#FCFCFC"/>
<path d="M1449.7 454.1C1449.8 456.2 1450.1 458.3 1449 460.3C1449.2 458.2 1448.3 456 1449.7 454.1Z" fill="#FCFCFC"/>
<path d="M1452.2 457C1452.2 454.9 1451.7 452.7 1452.9 450.8C1452.7 452.8 1453.6 455 1452.2 457Z" fill="#FCFCFC"/>
<path d="M878.2 725.9C878.2 723.8 877.8 721.7 878.9 719.7C878.8 721.8 879.7 724 878.2 725.9Z" fill="#FCFCFC"/>
<path d="M876.8 709.1C876.9 711.2 877.2 713.3 876.1 715.3C876.2 713.2 875.3 711 876.8 709.1Z" fill="#FCFCFC"/>
<path d="M765 782.9L764.6 783H764.2C762.2 781.1 762.4 779 764 777L764.1 776.9C765.7 778.7 764.8 780.9 765 782.9Z" fill="#FCFCFC"/>
<path d="M1450.8 439.1C1450.8 441.2 1451.2 443.4 1450.1 445.3C1450.2 443.2 1449.3 441 1450.8 439.1Z" fill="#FCFCFC"/>
<path d="M658.8 1220C658.9 1222.1 659 1224.3 658.1 1226.3C658.2 1224.1 657.4 1221.9 658.8 1220Z" fill="#FCFCFC"/>
<path d="M660.8 1196C660.9 1198.1 661 1200.2 660.1 1202.2C660.2 1200.1 659.4 1197.9 660.8 1196Z" fill="#FCFCFC"/>
<path d="M659.8 1208C659.9 1210.1 660 1212.2 659.1 1214.2C659.2 1212.1 658.4 1209.9 659.8 1208Z" fill="#FCFCFC"/>
<path d="M892.2 946C890.6 946.9 888.8 946.9 887 946.7C888.6 945.4 890.5 946.1 892.2 946Z" fill="#FCFCFC"/>
<path d="M882.2 947C880.6 947.9 878.8 947.9 877 947.7C878.6 946.4 880.5 947.1 882.2 947Z" fill="#FCFCFC"/>
<path d="M710 546.2C710.1 545.8 710.2 545.4 710.2 545C711.6 546.5 710.8 548.4 710.9 550.1C709.8 549.1 710.3 547.5 710 546.2Z" fill="#FCFCFC"/>
<path d="M872.4 948.1C870.7 948.9 868.9 949 867.1 948.8C868.6 947.4 870.6 948.1 872.4 948.1Z" fill="#FCFCFC"/>
<path d="M1342 1092.2C1343.8 1092.1 1345.6 1091.9 1347.3 1092.9C1345.5 1092.8 1343.6 1093.5 1342 1092.2Z" fill="#FCFCFC"/>
<path d="M911.4 944.1C909.7 945 907.9 945 906 944.8C907.6 943.4 909.6 944.1 911.4 944.1Z" fill="#FCFCFC"/>
<path d="M875.8 724.1C875.9 725.9 876.2 727.7 875.1 729.3C875.2 727.5 874.4 725.7 875.8 724.1Z" fill="#FCFCFC"/>
<path d="M1108 661C1109.4 662.7 1109.1 664.4 1108 666.1C1108 664.5 1108 662.8 1108 661Z" fill="#FCFCFC"/>
<path d="M707.8 610.1C707.8 611.6 708.3 612.5 710 611.9C709.4 612.9 708.6 613.3 707.7 612.6C706.7 611.8 707 610.9 707.8 610.1Z" fill="#FCFCFC"/>
<path d="M472.1 521.2C436.4 521.2 400.8 521.1 365.1 521.3C360.6 521.3 359.6 520.1 359.6 515.7C359.7 436.5 359.7 357.4 359.6 278.2C359.6 274.1 360.6 272.9 364.8 272.9C515.8 273 666.8 273 817.7 272.9C821.5 272.9 822.8 273.6 822.8 277.8C822.7 357.3 822.7 436.8 822.8 516.3C822.8 520.4 821.5 521.2 817.7 521.2C734.4 521.1 651.1 521.1 567.7 521.1C566.1 521.1 564.4 521.5 562.8 520.5C561.2 520.5 560.4 519.4 559.8 518.2C556.7 512.3 552.3 507.8 546 505.2C545.1 504.8 544.3 504.1 544.1 503.1C536.1 500.9 527.9 500 519.5 499.9C519.8 498.4 520.8 498.2 521.6 497.8C524.5 496.2 527.7 496.5 530.9 496.5C617.7 496.5 704.5 496.5 791.3 496.5C793.1 496.5 795 496.4 796.8 496.5C800.9 496.8 802.4 495.1 802.4 491C802.3 473 802.4 455 802.3 437C802.3 431.5 802.1 431.4 796.7 431.4C757 431.4 717.4 431.4 677.7 431.4C580.9 431.4 484.1 431.4 387.3 431.4C379.3 431.4 379.2 431.4 379.2 439.2C379.2 455.9 379.2 472.5 379.2 489.2C379.2 496.5 379.2 496.5 386.3 496.5C419 496.5 451.6 496.5 484.3 496.5C486.9 496.5 489.7 496.1 492.1 497.7C494.2 499 496.3 500.3 499.6 502.3C486.7 504.2 476.8 509.1 472.1 521.2Z" fill="#FEFEFE"/>
<path d="M524 495.2C530.6 484.8 529.5 474 520.9 466.4C513.3 459.7 501.9 459.5 493.8 466C485 473.1 483.7 484.1 490.3 495.1C489.6 497.7 487.5 497 485.8 497C452 497.1 418.2 497 384.3 497.1C380.4 497.1 379 495.8 379 491.9C379.1 473.7 379.1 455.6 379 437.4C379 433.3 380.6 431.5 384.6 431.6C386.3 431.6 387.9 431.6 389.6 431.6C524 431.6 658.5 431.6 792.9 431.6C803 431.6 803 431.6 803 441.8C803 458.1 803 474.5 803 490.8C803 496.8 802.7 497.1 796.9 497.1C707.6 497.1 618.3 497.1 529 497.1C527.2 497 524.8 498 524 495.2Z" fill="#FEFEFE"/>
<path d="M770.9 989.8C761.3 993.2 751.6 996.5 742 999.9C739.9 997.7 740.5 994.9 740.5 992.3C740.4 965.7 740.5 939 740.5 912.4C740.5 905.7 740.1 899 737.8 892.7C731.6 876 719.7 866.1 701.9 863.4C692.6 862 683.3 863.3 675.6 862.1C683.1 862.4 692.2 862.8 701.1 864C724 867 739.4 884.7 739.5 907.9C739.6 934.7 739.5 961.5 739.5 988.3C739.5 992.6 739.6 997 740.2 1001.3C740.4 1018.1 740.6 1034.9 740.8 1051.7C740.8 1054.5 740.1 1057.4 741.8 1060C741.1 1061.1 740.1 1061.6 738.9 1062C723.5 1063 708.4 1065.7 693.1 1067.5C685 1068.4 677 1069.3 668.9 1070.3C668.4 1069.8 668 1069.3 667.8 1068.7C667.1 1066.4 667.3 1064.1 667.3 1061.8C667.3 1045.8 667.2 1029.9 667.3 1013.9C667.4 1006.1 665.7 998.3 666.2 990.5C666.4 988 666.2 985.5 667.8 983.3C667.8 970.5 667.7 957.7 667.8 944.9C667.8 942.1 666.3 942.2 664.3 942.2C655.5 942.2 646.7 942.1 637.9 942.1C644.6 914.1 651.2 886.1 657.9 858.1C659 856.4 660.7 856.1 662.6 856.2C687.4 856.6 712.1 857.1 736.9 857.2C741 857.2 740.9 859.9 741.5 862.3C746.6 883.9 751.6 905.6 756.7 927.2C761.3 946.6 765.9 965.9 770.5 985.3C771.2 986.5 772 988.2 770.9 989.8Z" fill="#FD9993"/>
<path d="M662 524.8C635.9 528 630.4 547.9 630.4 567.3C630.4 569.3 630.8 571.3 631 573.2C631.4 573.7 631.7 574.4 631.5 575C629.7 581 633.6 585.2 635.9 589.9C637.8 595.2 641.3 599.1 646.1 602C646.1 612 646.2 621.9 646.2 631.9C639.6 632.7 632.9 631.2 626.3 633C614.1 636.2 605.8 643.6 603 656.2C600.8 665.8 599 675.4 597 685C595.2 684.7 595.4 683.2 595.1 682C592.8 671.8 590.6 661.6 588.3 651.5C584 632 571.4 620.8 551.6 618.8C544.3 618.2 537 618.5 529.6 618.7C525.7 618.8 524.8 617.2 524.5 613.8C523.5 598.1 523.4 598 538.7 594.4C549.8 591.8 557.7 585.3 563.7 575.9C579 564 578 549.2 568.8 533.3C567.1 530.4 564.1 528 564.7 524C576 523.9 587.2 523.7 598.5 523.7C617.7 523.7 637 523.7 656.2 523.7C658.3 523.7 660.5 522.9 662 524.8Z" fill="#FEFEFE"/>
<path d="M564.9 576.3C557.5 589.9 545.2 595.4 530.7 597.2C527 597.7 525.6 599.2 526 603C526.5 607.8 524 614 526.9 617C530 620.3 536.4 617.7 541.3 618.1C544.7 618.4 548.2 617.4 551.6 618.7C534.9 618.7 518.3 618.8 501.6 618.8C499.9 618.8 499 618.5 498.7 616.4C497.3 605.7 495.8 595 494.2 584.3C493.9 582 495 581.4 496.7 580.8C500.4 579.4 504 577.5 507.2 575.2C515.8 569.1 519.8 560.9 517.6 550.5C514.4 535.2 519.9 523.4 531 513.6C535.2 509.9 539.8 506.6 544.2 503C553.3 505.7 558.4 512.7 562.9 520.4C562.8 520.6 562.8 520.7 562.8 520.9C562.5 522.7 563.6 524.2 564.1 525.9C564.7 529.4 565.5 532.8 565.5 536.3C565.5 537.5 566 539.1 565.1 539.7C560.5 542.7 562.9 544.6 565.9 546.7C566.8 547.4 567.1 548.7 567.2 549.9C567.6 556.9 567.7 563.9 567.2 570.9C567 572.9 565.5 574.4 564.9 576.3Z" fill="#FD9993"/>
<path d="M524 495.2C525.6 496.7 527.5 495.9 529.2 496C618.3 496 707.5 496 796.6 496.1C801.1 496.1 802.1 495 802.1 490.6C801.8 472.9 801.9 455.3 802.1 437.6C802.1 433.9 801.2 432.9 797.4 432.9C659.8 433 522.1 433 384.5 432.9C381.1 432.9 380 433.8 380 437.3C380.2 455.5 380.1 473.6 380 491.8C380 494.4 380 496.1 383.6 496.1C418.1 496 452.6 496 487.1 496C488.2 496 489.5 496.3 490.3 495.1C491.5 495.7 491.8 496.9 492.3 497.9C484.8 498 477.3 498.1 469.8 498.2C441 498.2 412.2 498.1 383.3 498.3C379 498.3 377.6 497.5 377.7 492.9C378 474.2 377.8 455.6 377.8 436.9C377.8 430.4 377.8 430.4 384.3 430.4C522.1 430.4 659.8 430.4 797.6 430.4C798.4 430.4 799.3 430.5 800.1 430.4C803 430.2 804.3 431.3 804.2 434.4C804.1 454.4 804.1 474.4 804.2 494.4C804.2 498.7 801.7 498.2 799 498.2C757.4 498.2 715.7 498.2 674.1 498.2C625.3 498.2 576.5 498.2 527.7 498.2C525.7 498.2 523.7 498 521.7 498C522.5 497 523.3 496.1 524 495.2Z" fill="#5F87B2"/>
<path d="M562 801C566 803.4 570 805.8 574 808.1C579.6 811.4 582 816.9 583.4 822.8C584.3 826.6 582 828.6 578.4 829.4C567.2 831.7 556 834.3 544.8 836.5C529.8 839.4 514.8 842.2 498.9 846.4C504.8 836.6 510.1 827.8 515.5 819C517.8 815.2 520.4 811.5 522.4 807.5C524 804.4 526.3 803.4 529.5 803.2C539 802.6 548.4 801.8 557.9 801C559.3 801.1 560.6 801.1 562 801Z" fill="#FD9993"/>
<path d="M472.2 690.6C469 702.7 465.9 714.8 462.8 726.8C460.8 734.4 459 742 456.8 749.4C455.8 752.8 456.3 754.7 459.1 757C468.2 764.5 477 772.4 486 780.1C487.1 781.1 489.4 781.9 487.4 783.9C485.8 785.6 484.7 783.7 483.7 782.9C473.7 774.4 463.7 765.8 453.7 757.3C452.3 756.1 451.5 755 452 753C457.5 732 463 710.9 468.6 689.8C468.9 688.6 469.3 687 471.2 687.6C472.6 688.3 472.2 689.6 472.2 690.6Z" fill="#FBFBFB"/>
<path d="M489.8 561.3C489.8 565.5 489.7 569.6 489.8 573.8C489.8 575.9 489.1 576.6 487.1 575.8C485.5 575.2 484 574.7 482.4 574.1C475 571.1 471 565.3 472 559C473 552.9 480.8 546.6 487.5 546.1C490 545.9 489.7 547.5 489.7 548.9C489.8 553 489.8 557.1 489.8 561.3Z" fill="#FB9892"/>
<path d="M562 801C560.6 803.1 559.2 803.3 557.9 800.9C561 776.1 564 751.4 567.1 726.6C567.3 725 567.2 722.7 569.5 723.1C572.1 723.6 571 726 570.8 727.7C568 750.3 565.2 772.9 562.3 795.5C562.1 797.3 562.1 799.2 562 801Z" fill="#FBFBFB"/>
<path d="M1189.2 1027.1C1178.9 1000.3 1168.7 973.4 1158 946.7C1155.4 940.3 1155.3 934.7 1157.3 928.1C1172.1 878.4 1186.6 828.6 1201.1 778.8C1202.3 774.8 1203.9 773.6 1208 774C1213.4 774.6 1219 774.8 1224.5 774.8C1227.7 774.8 1227.9 776.3 1227.9 778.8C1227.3 815.9 1226.7 853.1 1226.2 890.2C1225.7 925.5 1225.3 960.8 1224.9 996.1C1224.8 1006.4 1224.4 1016.7 1224.1 1027C1223.5 1027.3 1224.3 1027.2 1223.7 1027.3C1212 1029.2 1200.6 1029.5 1189.2 1027.1Z" fill="#6DB5DE"/>
<path d="M1122 1175C1091.3 1174.9 1060.7 1174.7 1030 1175C1024.8 1175 1023.6 1173.5 1023.8 1168.6C1024.2 1160.8 1024.1 1152.9 1023.8 1145.1C1023.6 1141.1 1024.9 1140.1 1028.8 1140.1C1065.1 1140.2 1101.4 1140.2 1137.8 1140.2C1140.5 1145.2 1140.6 1151.3 1144.1 1155.9C1136.8 1162.2 1129.4 1168.6 1122 1175Z" fill="#FEFEFE"/>
<path d="M1189.2 1027.1C1200.8 1027.1 1212.4 1027.1 1223.9 1027.1C1224.3 1055.4 1223.1 1083.6 1222.9 1111.9C1222.9 1112.1 1222.6 1112.3 1221.8 1113.2C1210.8 1084.3 1200 1055.7 1189.2 1027.1Z" fill="#FEFEFE"/>
<path d="M1352.1 1089.9C1337 1090.6 1322.9 1086.8 1309.1 1081C1309 1071.1 1309 1061.2 1308.9 1051.3C1322 1051.2 1335.1 1051.3 1348.2 1051C1351.4 1050.9 1352.1 1052.2 1352 1055.1C1352 1066.7 1352.1 1078.3 1352.1 1089.9Z" fill="#FEFEFE"/>
<path d="M1136.5 1135.2C1136.3 1136.7 1136.1 1138.1 1133.9 1138C1129.1 1137.9 1124.3 1137.9 1119.5 1138C1117.3 1138 1116.7 1137.1 1116.7 1135C1116.7 1116.6 1116.7 1098.2 1116.8 1079.7C1116.8 1079 1117.4 1078.3 1117.8 1077.5C1123.9 1096.8 1130.2 1116 1136.5 1135.2Z" fill="#FEFEFE"/>
<path d="M1116.8 747.8C1115.8 740.4 1116.4 732.9 1116.4 725.5C1116.3 711.7 1116.5 697.9 1116.6 684.2C1121.2 686.7 1125.9 688.4 1131.2 688.2C1126.4 708 1121.6 727.9 1116.8 747.8Z" fill="#FBFCFC"/>
<path d="M1354.7 752C1356.6 745.6 1358.9 743.8 1365.3 743.8C1414.4 743.8 1463.6 743.8 1512.7 743.8C1520.6 743.8 1523.7 747.2 1523.7 755.8C1523.7 845.8 1523.7 935.7 1523.7 1025.7C1523.7 1071 1523.7 1116.3 1523.7 1161.6C1523.7 1171.9 1520.8 1174.8 1510.8 1174.8C1462.7 1174.8 1414.5 1174.8 1366.4 1174.8C1359 1174.8 1356.3 1172.7 1354.7 1165.9C1354.8 1145.9 1354.9 1126 1354.9 1106C1354.9 1089.4 1355 1072.7 1354.8 1056.1C1354.8 1052.3 1355.6 1050.4 1359.7 1051.1C1361 1051.3 1362.4 1051 1363.7 1051.1C1366.5 1051.4 1367.2 1050 1366.8 1047.5C1363.3 1024 1359.9 1000.5 1356.5 977C1355.7 971.6 1354.8 966.2 1354.9 960.7C1355 892.1 1355 823.5 1355 755C1354.9 754 1354.8 753 1354.7 752Z" fill="#FEFEFE"/>
<path d="M1230.8 474.9C1241.5 475.9 1252.3 475 1263 475.4C1261.5 494.5 1260.1 513.5 1258.6 532.6C1256.4 559 1254.1 585.3 1251.9 611.7C1251.1 621.2 1250.4 630.6 1249.6 640.1C1236.1 640.4 1222.7 640.3 1209.2 639.5C1203.7 639.2 1198.7 636.5 1193.6 634.6C1183.4 630.7 1173.2 627.6 1162.1 630.1C1160.8 628 1162.1 626.2 1162.8 624.4C1178.7 581.8 1195.1 539.4 1210.5 496.7C1212.5 491.1 1214.3 485.3 1216.2 479.7C1216.9 477.7 1217.3 475.5 1219.6 474.4C1223.4 474.2 1227.2 473.3 1230.8 474.9Z" fill="black"/>
<path d="M1264 474.8C1264 474.2 1264 473.5 1264 472.9C1265.1 472 1266.4 472 1267.8 472C1280 472 1292.2 472 1304.4 472C1305.7 472 1307.1 471.9 1308.1 473C1307.7 476 1305.3 474.8 1303.8 474.8C1296.5 474.9 1289.1 475 1281.8 474.8C1279 474.7 1278.1 475.7 1278.1 478.5C1278.2 498.7 1278.2 518.8 1278.1 539C1278.1 541.7 1278.9 542.6 1281.7 543C1288.2 543.8 1291.9 548.4 1292.1 555C1292.2 557.5 1292.2 560 1292.1 562.5C1291.9 568.7 1288.6 572.8 1282.5 574.3C1278.3 575.3 1273.9 575.3 1269.7 574.3C1268.3 574 1266.8 573.4 1265.6 572.6C1258.4 567.6 1259.8 560 1260.4 553C1260.9 547.3 1264.9 543.9 1271.2 543C1273.5 542.7 1274.3 541.9 1274.3 539.6C1274.3 518.8 1274.3 498 1274.4 477.1C1274.4 475.1 1273.5 475 1272 474.9C1269.3 474.9 1266.6 474.9 1264 474.8Z" fill="#FBFCFD"/>
<path d="M1308 473.1C1293.3 473.1 1278.6 473 1263.9 473C1263.9 472.3 1263.9 471.5 1263.9 470.8C1279.3 470.9 1294.6 471 1310 471.2C1309.7 472.2 1310.6 473.5 1309.4 474.2C1309.3 474.2 1308.5 473.5 1308 473.1Z" fill="#5B84B0"/>
<path d="M596.9 987.8C598.2 995.5 601.1 1002.9 601.9 1010.8C600.5 1011.7 599 1011.2 597.6 1011.3C593 1011.7 589.9 1014.2 588.4 1018.4C587 1022.2 588.2 1025.6 590.8 1028.4C593.8 1031.6 597.5 1032.2 601.7 1030.9C603.3 1030.4 604.7 1028.6 606.7 1030C609.5 1043 612.3 1056 615.1 1069C613.3 1070.7 611.1 1070.4 609 1070.4C564.7 1070.4 520.5 1070.4 476.2 1070.4C474.1 1070.4 471.8 1070.6 470.1 1069C476 1041.3 482.1 1013.5 489.2 986C523.6 986 557.9 986 592.3 986C594 986 595.9 985.7 596.9 987.8Z" fill="#FEFEFE"/>
<path d="M668 983.1C668.9 1011.9 669.2 1040.6 668.9 1069.4C667.3 1070.4 665.5 1070.4 663.6 1070.4C650.9 1070.4 638.1 1070.4 625.4 1070.4C623.2 1070.4 621.1 1070.3 619.3 1068.9C616.1 1054.7 613.1 1040.4 609.8 1026.2C606.7 1012.8 603.5 999.4 600.3 986.1C616.7 986.1 633.1 986 649.5 986.1C655.9 986.1 662.1 985.2 668 983.1Z" fill="#FEFEFE"/>
<path d="M485 986C478.7 1013.7 472.3 1041.3 466 1069C464.7 1070.2 463 1070.4 461.4 1070.4C453.9 1070.4 446.5 1070.5 439 1070.4C434.1 1070.3 433.2 1069.4 433.2 1064.5C433.2 1036.1 433.2 1007.7 433.2 979.3C433.2 977.7 432.3 975.4 435.1 974.9C450.6 983.4 467.4 986.7 485 986Z" fill="#FEFEFE"/>
<path d="M435 974.9C433.2 976.1 434 977.9 434 979.5C433.9 1007.8 434 1036.1 433.9 1064.5C433.9 1068 434.5 1069.6 438.5 1069.4C447.6 1069 456.8 1069.2 466 1069.1C466.1 1070.2 466 1071.2 465.1 1072C463.2 1073.7 460.8 1073.6 458.5 1073.6C452.7 1073.6 446.9 1073.7 441.1 1073.6C437.4 1073.5 435.7 1074.8 435.7 1078.7C435.8 1108.4 435.7 1138.2 435.7 1167.9C435.7 1171.2 436.6 1173.4 440.3 1173.6C441.3 1173.7 442.2 1174.1 442.9 1174.9C442.8 1176 443.1 1177.1 442.3 1178C439.1 1176.1 435.5 1177.6 432.1 1177C432 1175.5 431.9 1174 431.9 1172.5C431.9 1107.8 431.9 1043.1 431.9 978.4C431.9 976.9 432.1 975.4 432.2 973.9C433.2 974 434.3 973.8 435 974.9Z" fill="#5E86B1"/>
<path d="M826 976C825 977.4 823.7 978.3 822.2 978.9C818 950.9 813.8 923 809.6 895C808.4 886.9 807.2 878.9 806 870.8C805.8 869.3 804.9 867 807.4 866.8C809.6 866.6 809.6 869 809.8 870.5C814.9 904.2 820 937.9 825 971.7C825.2 973.2 825.7 974.6 826 976Z" fill="#FDFCFB"/>
<path d="M726 779.1C726.3 779 726.6 778.9 727 778.8C730.9 777.2 734.9 778.1 738.9 778C745.6 777.9 752.2 777.9 758.9 778C762.4 778 764 779.4 762.2 783C751.5 783.7 740.9 784.4 730.2 785.2C728.4 785.1 726.6 785 724.8 784.9C724.1 782.6 726 781.1 726 779.1Z" fill="#FEFDFD"/>
<path d="M762 783C762.5 779.8 761.2 778.8 758 778.9C747.6 779.1 737.3 778.9 726.9 778.8C727.2 778.2 727.5 777.7 727.8 777.1C739.9 777 752 777 764.1 776.9C764.2 778.9 764.2 780.9 764.3 782.9C763.5 783 762.8 783 762 783Z" fill="#5781AD"/>
<path d="M713.9 757.9C706.1 758.2 698.4 758.6 690.6 758.8C689.2 758.8 687.2 759.3 687.1 757.1C686.9 754.6 689.1 754.9 690.7 754.9C693.2 754.8 695.7 754.8 698.1 754.7C702.1 755.4 705.9 753.9 709.8 754C712.5 754.1 714.4 754.7 713.9 757.9Z" fill="#050406"/>
<path d="M662.6 1174.8C655.8 1174.4 648.9 1175.7 642.2 1174C634.9 1140.6 627.7 1107.2 620.4 1073.9C620.3 1073.3 620.3 1072.6 620.2 1071.9C621.6 1070.5 623.5 1070.4 625.3 1070.4C637.8 1070.4 650.3 1070.4 662.8 1070.4C664.6 1070.4 666.5 1070.3 668 1071.8C668.4 1086.4 667.1 1101 666.1 1115.6C664.6 1135.4 664.9 1155.2 662.6 1174.8Z" fill="#FEFEFE"/>
<path d="M739 1061.9C739.2 1060.1 740.4 1059.8 741.9 1059.9C743.7 1061.3 743 1063.3 743 1065C744 1093.5 744.9 1121.9 745.9 1150.4C746.1 1156.3 755.9 1164.5 761.7 1163.6C763.7 1165.5 763.6 1167.5 761.9 1169.6C754.8 1168.1 750.4 1162.6 745.1 1158.3C742.8 1156.4 742.1 1154.3 742 1151.5C741 1121.7 740 1091.8 739 1061.9Z" fill="#FDFCFC"/>
<path d="M667.9 1071.8C652 1071.8 636.1 1071.9 620.2 1071.9C619.9 1070.9 619.6 1069.9 619.3 1068.9C633.9 1069 648.4 1069.1 663 1069.3C665 1069.3 667 1069.4 669 1069.4C669 1069.6 669 1069.9 669.1 1070.1C668.6 1070.7 668.3 1071.3 667.9 1071.8Z" fill="#5881AE"/>
<path d="M761.8 1169.6C762 1167.6 762.3 1165.6 761.6 1163.6C762.4 1162.9 763.3 1163.1 764.2 1163.1C764.1 1165.8 764 1168.4 764 1171.1C763.3 1170.6 762.6 1170.1 761.8 1169.6Z" fill="#5E7FA5"/>
<path d="M740.2 1001.2C737.4 999.9 738.2 997.2 738.2 995C738.1 966.5 738 938 738 909.6C738 883 721.5 866 694.8 864.9C685.9 864.5 677.1 863.4 668.3 862.7C668.2 860.8 669.6 860.9 670.7 860.9C682 861.1 693.3 860.5 704.6 862C722.4 864.2 739.8 882.2 741.1 900C743 926.1 741.6 952.3 742.1 978.4C742.2 985.6 742.1 992.7 742.1 999.9C741.4 1000.3 740.8 1000.8 740.2 1001.2Z" fill="#FEFDFD"/>
<path d="M1219.1 475.1C1207.1 511.6 1193.2 547.5 1179.7 583.5C1173.9 599 1168 614.5 1162.2 630C1161.6 630.3 1160.9 630.6 1160.3 630.8C1160.2 609.6 1160.1 588.4 1160 567.1C1157.5 563.7 1158.6 559.7 1158.6 556C1158.4 546.9 1158.3 546.6 1149.5 544.2C1145.8 543.2 1145.2 541.7 1146.5 536.4C1147.9 534.6 1150 534.8 1151.9 534.3C1156.1 533.2 1158.2 530.5 1158.6 526.2C1159.3 519.4 1157.9 513.1 1155.1 507C1155.2 505.8 1155.6 504.7 1155.9 503.6C1156.5 501.6 1155.6 500.8 1153.7 500.7C1152.2 500.6 1150.7 500.6 1149.2 500.6C1099.3 500.6 1049.4 500.6 999.6 500.6C996.7 500.6 993.6 501.2 991 499C992.7 497.4 994.8 498.1 996.7 498.1C1049.4 498.1 1102 498.1 1154.7 498.1C1156.4 498.1 1158.2 498.1 1159.9 498.1C1159.9 497.7 1159.9 497.4 1159.9 497C1103 497 1046 497 989.1 497C989.3 494.6 991.3 494.9 992.8 494.6C994.9 494.3 997.1 494.4 999.3 494.4C1050.2 494.4 1101.1 494.3 1152.1 494.5C1157.5 494.5 1161.3 493.2 1164.8 488.7C1172.4 478.9 1182.5 473.3 1195.4 474C1201.5 474.3 1207.7 474 1213.9 474.1C1215.6 474.1 1217.6 473.6 1219.1 475.1Z" fill="#6DB5DE"/>
<path d="M1109 658.2C1105.6 656.7 1107.1 655.3 1109.2 654C1118.7 654.1 1128.2 654.1 1137.7 654.2C1138.9 654.2 1140 654.2 1141.2 654.2C1142.6 654.3 1144.1 654.5 1144 656.3C1144 658.1 1142.4 658.1 1141 658.1C1135.3 658.1 1129.7 658.1 1124 658.1C1119 658.1 1114 658.1 1109 658.2Z" fill="#090605"/>
<path d="M1139.9 639.1C1141.7 635.3 1145.3 637.6 1147.9 636.7C1156.4 636.7 1164.8 636.7 1173.3 636.7C1174.7 636.7 1176.8 636.1 1176.9 638.2C1177.1 640.8 1174.8 640.2 1173.3 640.2C1163.3 640.3 1153.4 640.2 1143.4 640.2C1142.2 640.3 1140.8 640.5 1139.9 639.1Z" fill="black"/>
<path d="M991.1 499C1047.1 499 1103.2 499 1159.9 499C1158.3 502.4 1157 505.2 1155.7 508C1152.9 510.3 1149.8 509.2 1146.7 508.6C1143.1 508.4 1139.6 509.9 1136 509.4C1134.6 509.5 1133.2 509.4 1131.8 509.4C1129.3 509.5 1126.7 509.5 1124.2 509.4C1122.8 509.4 1121.4 509.5 1120 509.4C1115.9 510.1 1111.9 507.7 1107.8 509C1105.6 509.4 1103.3 509.4 1101.1 509.4C1099.7 509.5 1098.3 509.5 1096.9 509.4C1094.4 509.5 1091.8 509.5 1089.3 509.4C1087.9 509.4 1086.5 509.5 1085.1 509.4C1081.5 509.8 1078 508.5 1074.4 508.6C1071.7 509.4 1068.9 509.5 1066.1 509.4C1064.7 509.4 1063.3 509.5 1061.9 509.4C1059.4 509.4 1057 509.5 1054.5 509.1C1050.6 508 1047 509.4 1043.3 510.1C1043 510.2 1042.7 510.4 1042.4 510.5C1036.9 514.4 1038.2 520.2 1038.5 525.6C1038.8 530.4 1041.7 533.4 1045.9 534.5C1051.3 535.9 1051.4 536.1 1050.7 541.6C1050.4 542.1 1050 542.5 1049.6 542.7C1047.2 543.6 1044.7 543.2 1042.3 543.3C1038 543.2 1033.7 542.3 1029.4 541.7C1017.9 540 1008.5 544.9 1003.8 555.5C1001.4 560.8 999.3 566.2 996.9 571.6C993.7 579.1 997.3 584.8 1005.5 585.6C1010.2 586 1014.8 586.6 1019.3 587.8C1020.6 588.1 1023 588.2 1021.3 590.8C1017.4 592.2 1013.4 591.5 1009.4 591.5C1006.4 591.5 1005.2 592.6 1005.3 595.6C1005.4 600.7 1005.3 605.9 1005.3 611C1005.3 613.5 1006.3 614.7 1008.8 614.6C1014.1 614.6 1019.4 614.5 1024.7 614.6C1027.6 614.6 1028.4 613.2 1028.4 610.6C1028.3 606.1 1028.4 601.6 1028.4 597.1C1028.4 595.1 1028.2 593.1 1029.2 591.3C1031.4 589.5 1033.1 590.4 1034.7 592.1C1036.1 593.2 1036.8 594.4 1036.8 596.3C1036.7 604.9 1036.6 613.5 1036.8 622.2C1036.9 625.4 1035.4 626 1032.6 626C1018.7 625.9 1004.8 626 990.8 626C990.7 624.9 990.5 623.7 990.5 622.6C990.5 582.6 990.5 542.5 990.5 502.5C990.8 501.3 991 500.1 991.1 499Z" fill="#FEFEFE"/>
<path d="M1147.2 536C1146.4 540.5 1146.7 543.4 1152.9 543.2C1157.3 543 1160 546.7 1160.1 551.2C1160.2 556.5 1160 561.8 1160 567.1C1119.3 567.1 1078.6 567.2 1037.9 567.2C1032.4 561.3 1035.4 546 1042.7 542.8C1045.1 542 1047.8 543.1 1050.2 542.1C1051.2 540.1 1050 537.7 1051 535.7C1051.9 535 1053 534.7 1054.2 534.7C1056.8 534.5 1059.3 534.6 1061.9 534.6C1063.3 534.6 1064.7 534.5 1066.2 534.6C1068.8 534.5 1071.3 534.5 1073.9 534.6C1075.3 534.5 1076.7 534.6 1078.2 534.6C1080.5 534.6 1082.7 534.6 1085 534.6C1086.4 534.6 1087.8 534.5 1089.3 534.6C1091.9 534.5 1094.4 534.5 1097 534.6C1098.4 534.6 1099.8 534.5 1101.3 534.6C1103.6 534.5 1105.9 534.5 1108.1 534.6C1109.8 534.6 1111.5 534.6 1113.2 534.6C1115.5 534.6 1117.7 534.6 1120 534.6C1121.4 534.6 1122.8 534.5 1124.3 534.6C1126.8 534.5 1129.4 534.5 1131.9 534.6C1133.3 534.6 1134.6 534.5 1136 534.6C1138.1 534.6 1140.2 534.6 1142.4 534.6C1143.7 534.6 1145 534.7 1146.2 535C1146.5 535.3 1146.9 535.6 1147.2 536Z" fill="#202B6D"/>
<path d="M1098.8 626.2C1084.8 626.2 1073.8 615.2 1073.9 601.1C1074 587.3 1085.4 576 1099.1 576.2C1112.6 576.4 1123.8 587.7 1123.9 601.2C1123.9 615.1 1112.7 626.3 1098.8 626.2Z" fill="#459257"/>
<path d="M1043.1 543.1C1038.6 545.6 1036.8 549.5 1037.2 554.6C1037.5 558.8 1036.5 563.1 1037.8 567.3C1036.1 574 1037.5 580.8 1037 587.5C1036.9 589.3 1037.9 591.7 1034.9 592.2C1033.3 591.9 1031.6 591.6 1030 591.2C1027.1 592.1 1024.5 591.9 1022 589.9C1016.7 588.1 1011.1 587.2 1005.5 587C996.3 586.6 991.8 579.5 995.4 571.2C997.9 565.4 1000.4 559.6 1003 553.9C1007.4 544 1018.2 538.4 1029.1 540.3C1033.3 541 1037.6 541.5 1041.9 542.2C1042.3 542.4 1042.9 542.5 1043.1 543.1Z" fill="#FD9993"/>
<path d="M1261.8 442.3C1254.8 448.5 1246.1 450.7 1237.2 452C1232.9 452.6 1229.8 453.1 1230.8 458.8C1231.5 462.7 1230.8 466.8 1230.8 470.8C1222.6 470.8 1214.5 470.6 1206.3 470.8C1202.7 470.9 1201.4 469.7 1201.9 466.3C1202.7 461.7 1200.6 460.7 1196.3 460.9C1185.5 461.2 1174.6 460.9 1163.8 461.1C1160.7 461.2 1159.8 460.2 1159.9 457.1C1160.1 449.9 1160.1 442.8 1159.9 435.6C1159.8 432.7 1160.8 431.9 1163.6 432C1172.1 432.2 1180.6 432.1 1189.1 432C1190.1 432 1191.8 432.7 1191.7 430.8C1191.7 429.7 1190.3 429.5 1189.3 429.5C1187.8 429.4 1186.3 429.5 1184.8 429.5C1112.8 429.5 1040.9 429.5 968.9 429.5C958.7 429.5 956.8 427.6 956.8 417.2C956.8 356.7 956.8 296.3 956.8 235.8C956.8 226 959.3 223.5 969.3 223.5C1074.1 223.5 1178.9 223.5 1283.7 223.5C1294.2 223.5 1296.8 226.1 1296.8 236.4C1296.8 296.7 1296.8 357 1296.8 417.3C1296.8 419.7 1297.6 422.4 1295.2 424.3C1292.6 412.5 1290 400.6 1288.4 388.6C1287.1 379.1 1283.1 370.9 1276 364.3C1274.3 361.8 1274.6 358.9 1274.6 356.1C1274.6 322.9 1274.6 289.8 1274.6 256.6C1274.6 245.9 1271.4 242.7 1260.6 242.7C1192.6 242.7 1124.6 242.7 1056.6 242.7C1046.5 242.7 1042.5 246.7 1042.5 256.9C1042.5 303.1 1042.5 349.2 1042.5 395.4C1042.5 406.6 1047.1 411.3 1058.2 411.3C1099.5 411.3 1140.8 411.3 1182.2 411.3C1141.2 411.3 1100.2 411.3 1059.2 411.2C1057.1 411.2 1054.1 412.7 1053 409.1C1055.6 407 1058.7 407.7 1061.7 407.7C1101 407.7 1140.3 407.7 1179.7 407.7C1183.2 407.7 1186.7 407.6 1190.1 407C1194.4 409.7 1199.4 408.9 1204.1 409.3C1214.1 410.2 1224.1 412.1 1234.3 412C1239.6 411.9 1244.5 411.1 1248.9 408.1C1250.4 407.1 1252 406.2 1254 406.5C1258 404.3 1262 402 1266 399.8C1268 398.7 1269.8 398.1 1269.9 401.5C1269.4 403.4 1267.6 404.2 1266.2 405.3C1262.3 407.7 1258.4 410 1254.5 412.4C1248.6 415.5 1248.7 415.5 1250.3 422.2C1251.5 427 1253.2 431.6 1255.3 436.1C1256.4 438.4 1257.8 439.6 1260.2 437.7C1262.6 435.7 1265 433.6 1267.5 431.7C1269.1 430.7 1270.6 428.3 1272.7 431.1C1273.8 433.2 1272.1 434 1270.9 435.1C1267.8 437.3 1264.8 439.8 1261.8 442.3Z" fill="#FEFEFE"/>
<path d="M1219.1 475.1C1209 475.1 1198.8 474.1 1188.7 475.7C1177.9 477.4 1169.7 483.4 1163.8 492.4C1162 495.2 1160 496.2 1156.6 496.2C1102.7 496.1 1048.7 496.1 994.8 496.2C992.9 496.2 990.8 495.4 989.1 497C987.6 498.5 988.3 500.5 988.2 502.2C988.1 522 988.1 541.9 988.2 561.7C988.2 565.4 987.6 567 983.3 566.9C974 566.6 964.6 566.7 955.3 566.9C952.1 567 950.9 566.1 950.9 562.7C951 534 951 505.4 950.9 476.7C950.9 473.9 951.7 472.6 954.6 473C955.3 473.1 955.9 473 956.6 473C1047.9 473 1139.2 473 1230.5 473C1230.5 473.6 1230.6 474.3 1230.6 474.9C1226.9 475 1223 475 1219.1 475.1Z" fill="#FEFEFE"/>
<path d="M1131.5 461C1124.2 461 1116.9 460.9 1109.5 461C1107 461 1105.9 460.4 1106 457.7C1106.1 450.2 1106.2 442.7 1106 435.2C1105.9 432.4 1107.2 431.9 1109.6 431.9C1124.4 432 1139.2 432 1154 431.9C1156.7 431.9 1157.9 432.5 1157.8 435.5C1157.6 442.8 1157.6 450.1 1157.8 457.5C1157.9 460.5 1156.6 461.1 1153.9 461C1146.4 460.9 1139 461 1131.5 461Z" fill="#FEFEFE"/>
<path d="M1130.5 470.8C1109 470.8 1087.6 470.8 1066.1 470.8C1063.1 470.8 1061.1 470.7 1061.1 466.7C1061.1 462.7 1063.3 463 1065.9 463C1108.8 463 1151.8 463 1194.7 463C1197.4 463 1199.4 462.8 1199.5 466.7C1199.6 470.9 1197.4 470.7 1194.5 470.7C1173.1 470.8 1151.8 470.8 1130.5 470.8Z" fill="#FCFCFD"/>
<path d="M686.9 564.4C686.5 566 685.6 567.1 683.9 567C682.2 566.9 681.1 565.8 681.1 564.2C681.1 562.3 682.5 561.2 684.3 561.3C686 561.4 686.8 562.7 686.9 564.4Z" fill="#1A100F"/>
<path d="M564.9 576.3C566.7 567.7 566.6 558.9 565.8 550.2C565.6 548 565.9 545.4 562.1 546.1C560.6 546.4 559.7 544.9 559.6 543.5C559.5 542.1 560.1 540.5 561.5 540.5C564.9 540.3 564.3 538.4 564 536.2C563.5 532.6 563.2 528.9 562.8 525.3C562.6 524.3 561.9 523.1 563.8 523.1C564.1 523.4 564.5 523.7 564.8 524C568.3 530.8 573 536.9 575.2 544.3C579.3 557.2 575.8 568.3 564.9 576.3Z" fill="#010101"/>
<path d="M563.9 523.1C563.6 523.8 563.2 524.6 562.9 525.3C562.2 523.9 561.2 522.5 562.8 521C563.2 521.7 563.5 522.4 563.9 523.1Z" fill="#1D181A"/>
<path d="M1273 362.4C1262.1 356.4 1250 357.6 1238.2 356.4C1235.7 356.1 1233.3 356.3 1230.8 356.3C1228.8 356 1228.7 354.3 1228.4 353C1226.9 346.5 1223.5 341.2 1218.5 336.9C1217.1 335.6 1215.4 334.3 1215.6 332C1216.4 327.7 1219.5 326.7 1223.3 326.7C1233.4 326.7 1243.5 326.7 1253.5 326.6C1243.6 326.6 1233.7 326.6 1223.8 326.5C1220.2 326.5 1216.8 326.4 1215.4 330.8C1215.2 331.6 1214.2 331.9 1213.3 332C1209.2 331.6 1205 331.3 1202.1 327.7C1200.7 321.6 1201.7 315.4 1201.4 309.3C1201.3 307.2 1201.7 305 1200.8 302.3C1197 308.3 1194.2 314.3 1191.5 320.2C1189.3 325 1186.1 326.8 1181 326.6C1172.8 326.3 1164.7 326.7 1156.5 326.4C1152.8 326.3 1151.1 327.7 1150.3 331.2C1148.5 339.1 1146.5 347 1144.2 354.9C1143.7 356.8 1143.5 358.9 1141.3 360.2C1139.2 358.3 1139.5 355.8 1139.5 353.4C1139.5 338.6 1139.5 323.8 1139.5 308.9C1139.5 307 1139.9 305 1138.8 302.5C1136 306.5 1134.2 310.5 1132.5 314.5C1131.5 317 1130.3 319.3 1129.2 321.7C1127.7 324.9 1125.2 326.4 1121.6 326.4C1117.6 326.4 1113.6 326.6 1109.6 326.4C1106.4 326.3 1104.8 327.5 1103.7 330.5C1100.3 339.5 1096.9 348.6 1093.4 357.6C1093.1 358.4 1092.9 359.2 1092.4 359.9C1091.9 360.7 1091.6 362 1090.4 361.8C1089 361.6 1088.9 360.2 1088.7 359.1C1088.4 357.5 1088.5 355.8 1088.5 354.1C1088.5 339.1 1088.5 324.1 1088.5 309.1C1088.5 307.1 1088.8 305.1 1088 302.8C1086.2 303.5 1085.9 305.2 1085.3 306.6C1082.8 312.8 1079.4 318.5 1076.7 324.6C1075.5 327.2 1073.5 328.3 1070.8 328.4C1063.3 328.5 1055.8 328.6 1048.3 328.4C1043.7 328.3 1042.6 327 1042.5 322.1C1042.3 313.9 1042.5 305.8 1042.4 297.6C1042.4 283.6 1042.4 269.6 1042.4 255.6C1042.4 245.8 1046.3 241.9 1056 241.9C1124.5 241.9 1192.9 242 1261.4 241.7C1269.6 241.7 1275.1 247.6 1275 255.2C1274.8 289 1275 322.7 1274.9 356.3C1274.9 358.4 1276.1 361.1 1273 362.4Z" fill="#FEFEFE"/>
<path d="M1202.9 328.1C1206.2 329.2 1209.8 329.6 1212.9 331.4C1214.2 331.5 1215.4 331.6 1216.1 332.9C1224.5 338.5 1228.2 347 1230.8 356.2C1229.6 358.1 1230 360.2 1230 362.3C1231.4 367.6 1228.7 371.7 1225.9 375.7C1224.9 376.3 1224 377 1223.3 379C1231 379 1238.5 378.9 1246 379C1247.9 379 1250 378.2 1251.6 379.8C1250.2 381.4 1248.4 381.3 1246.5 381.3C1243 381.4 1239.5 381.5 1236 381.3C1228.2 380.9 1221.2 381.6 1214.4 386.7C1208.5 391.2 1200.8 391.6 1193.3 390.1C1173.7 386.1 1163.5 366.5 1168.8 349.2C1172.8 336.3 1185.2 327.1 1199.7 326.7C1201.1 326.9 1202.1 327.3 1202.9 328.1Z" fill="#202B6D"/>
<path d="M1202.9 328.1C1201.9 328.1 1201 328.1 1200 328.1C1196.9 321.7 1199 315.3 1198.8 310.2C1197.5 313.6 1194.7 318.1 1192.7 323C1190.6 328.1 1187.1 329.9 1181.8 329.6C1174.8 329.3 1167.8 329.5 1160.8 329.5C1153.4 329.5 1153.5 329.5 1151.6 336.4C1148.7 346.8 1146.1 357.4 1143.3 367.8C1142.9 369.1 1142.7 370.4 1142 371.6C1141.5 372.5 1141 373.4 1139.8 373.4C1138.5 373.4 1137.7 372.5 1137.2 371.4C1136.5 369.8 1136.5 368.2 1136.5 366.5C1136.5 348.2 1136.5 329.9 1136.5 311.5C1134.6 316.2 1132.2 320.8 1129.8 325.3C1128.3 328.1 1126 329.4 1122.9 329.4C1119.4 329.5 1115.9 329.6 1112.4 329.4C1108.3 329.2 1105.9 330.9 1104.5 334.7C1101.1 344.3 1097.4 353.7 1093.6 363.2C1092.6 365.8 1092.2 370.5 1088.8 369.9C1085 369.3 1086.4 364.7 1086.4 361.8C1086.3 344.7 1086.3 327.5 1086.4 310C1083.9 315.2 1081.3 319.9 1079.4 324.9C1077.6 329.5 1074.3 331.5 1069.3 331.4C1063 331.2 1056.6 331.4 1050.3 331.3C1046.6 331.2 1045.3 332.8 1045.3 336.4C1045.4 356.9 1045.4 377.4 1045.3 397.9C1045.3 403.5 1049.1 406 1052.6 409C1054.5 410 1056.5 409.6 1058.5 409.6C1100.3 409.6 1142.1 409.6 1183.9 409.7C1185.8 409.7 1187.9 409.1 1189.7 410.4C1189.4 412.6 1187.7 411.9 1186.6 411.9C1142.6 411.9 1098.7 412 1054.7 411.9C1047 411.9 1041.9 407.1 1041.1 399.4C1041 398.2 1041 397.1 1041 395.9C1041 349.4 1041 303 1041 256.5C1041 245.3 1045.5 240.8 1056.7 240.8C1124.7 240.8 1192.6 240.8 1260.6 240.8C1271.7 240.8 1276 245.1 1276 256.2C1276 290.7 1276 325.2 1276 359.6C1276 361.1 1275.9 362.6 1275.8 364.1C1274.8 363.5 1273.9 362.9 1272.9 362.4C1274.4 361.1 1273.8 359.3 1273.8 357.7C1273.8 323.7 1273.8 289.7 1273.8 255.7C1273.8 246.7 1270.1 243 1261 243C1192.7 243 1124.4 243 1056.1 243C1047.2 243 1043.5 246.5 1043.5 255.3C1043.4 277.8 1043.6 300.3 1043.4 322.8C1043.4 326.6 1044.6 327.6 1048.3 327.5C1055.5 327.3 1062.6 327.3 1069.8 327.5C1072.9 327.6 1074.6 326.7 1075.8 323.7C1078.9 316.5 1082.4 309.5 1085.8 302.5C1086.6 300.9 1086.8 298.9 1089.4 298C1089.4 319.1 1089.4 339.9 1089.4 360.8C1089.8 360.9 1090.1 360.9 1090.5 361C1094.2 351.2 1098.3 341.6 1101.6 331.7C1103.2 326.7 1105.6 324.3 1110.8 325.4C1122.2 327.7 1129.3 323.5 1132.1 311.9C1132.9 308.7 1134.7 305.8 1136.3 302.9C1137.2 301.3 1137.3 298.2 1139.6 298.7C1141.5 299.1 1140.5 301.9 1140.5 303.6C1140.6 316.9 1140.5 330.3 1140.5 343.6C1140.5 348.8 1140.5 353.9 1140.5 359.1C1140.8 359.2 1141.1 359.2 1141.3 359.3C1143.7 350.1 1146.5 341.1 1148.4 331.8C1149.4 326.6 1151.6 325.1 1156.7 325.3C1165.5 325.7 1174.4 325.3 1183.2 325.5C1186.1 325.6 1187.7 324.6 1188.9 322C1192.2 314.9 1195.7 307.9 1199.2 300.9C1199.7 299.9 1200 298.3 1201.4 298.5C1203.4 298.8 1202.5 300.6 1202.6 301.8C1202.9 310.4 1202.9 319.3 1202.9 328.1Z" fill="#5983AF"/>
<path d="M1193 389.1C1203.6 390.4 1213.2 388.4 1221 380.6C1222.1 379.5 1223.5 379.7 1224.8 379.7C1233.8 379.7 1242.8 379.8 1251.7 379.8C1252.5 388.5 1252.4 397.4 1253.9 406.1C1244.9 414.5 1233.9 413.7 1223 412.6C1213.6 411.6 1204.3 410.1 1194.9 409.9C1192.8 409.9 1190.8 410 1190.8 407C1189.3 405 1189.7 403 1191.1 401.1C1191.5 400.8 1191.9 400.6 1192.4 400.4C1193.4 400.1 1194.9 400.3 1195.1 398.8C1195.3 397.3 1193.8 397.2 1192.8 396.7C1192.2 396.4 1191.7 396.1 1191.3 395.5C1190.8 393.2 1191.3 391 1193 389.1Z" fill="#FD9993"/>
<path d="M1266.1 403.7C1267.3 402.9 1268.6 402.1 1269.8 401.2C1272.1 402.1 1274.5 402.9 1276.6 404.1C1281.3 406.7 1284.9 410.4 1285 416.1C1285.1 421.9 1281.6 425.5 1276.9 428.3C1275.5 429.1 1273.7 429.3 1272.7 430.8C1270.6 429.3 1269.5 431.6 1267.9 432.1C1265.9 431.9 1265.7 430.2 1265.7 428.8C1265.5 420.4 1264.7 412 1266.1 403.7Z" fill="#FB9993"/>
<path d="M1226 375.8C1226.9 371.2 1229.7 367.2 1230.1 362.4C1237.8 365.2 1245.6 367.8 1251.4 375.8C1242.3 375.8 1234.1 375.8 1226 375.8Z" fill="#F79690"/>
<path d="M636 590C630.4 585.6 628.4 580.1 631.1 573.3C634.7 569.8 638.5 566.9 643.6 565.9C645.8 565.5 646.1 565.9 646.1 567.9C646 576.3 646.1 584.8 646.1 593.4C642.2 593 639.3 590.9 636 590Z" fill="#FC9993"/>
<path d="M615.9 1071.9C621.6 1097.7 627.3 1123.4 632.9 1149.2C634.7 1157.5 636.4 1165.8 638.1 1174C637.2 1176.8 634.8 1175.8 633 1175.8C622.5 1175.9 612 1175.9 601.5 1175.9C552.2 1175.9 503 1175.9 453.7 1175.9C451.4 1175.9 449 1176.6 447 1174.8C450.7 1157.2 454.4 1139.5 458.2 1121.9C461.8 1105.2 465.5 1088.6 469.2 1072C471 1070.5 473.1 1070.4 475.3 1070.4C520.1 1070.4 564.8 1070.4 609.6 1070.4C611.9 1070.5 614.2 1070.2 615.9 1071.9Z" fill="#FEFEFE"/>
<path d="M442.9 1174.8C434 1174.8 434 1174.8 434 1166C434 1136.4 434.1 1106.9 433.9 1077.3C433.9 1072.5 435.4 1071.5 439.7 1071.7C448.2 1072 456.6 1071.9 465.1 1071.9C461.8 1087.6 458.4 1103.3 455 1119C451 1137.6 446.9 1156.2 442.9 1174.8Z" fill="#FEFEFE"/>
<path d="M615.9 1071.9C567 1071.9 518.2 1072 469.3 1072C469.6 1071 469.8 1070 470.1 1069C471.3 1069.1 472.4 1069.3 473.6 1069.3C519.6 1069.3 565.7 1069.3 611.7 1069.3C612.9 1069.3 614 1069.1 615.2 1069C616.1 1069.8 616 1070.9 615.9 1071.9Z" fill="#5881AE"/>
<path d="M447.2 1174.8C509.3 1174.8 571.4 1174.8 633.5 1174.8C635.1 1174.8 636.9 1175.4 638.2 1174C639.1 1174.9 638.8 1176 638.8 1177C577 1177 515.1 1177 453.3 1177C451.1 1177 449 1176.9 446.8 1176.8C447 1176.2 447.1 1175.5 447.2 1174.8Z" fill="#5881AE"/>
<path d="M602.9 1013.9C603.7 1017.3 604.5 1020.7 605.2 1024C605.5 1030.5 600.3 1033.6 593.8 1030.8C589.8 1029 587.9 1025.7 587.8 1021.4C587.8 1017.2 589.7 1014.1 593.6 1012.4C597 1010.9 600.4 1010.2 602.9 1013.9Z" fill="#FDFDFD"/>
<path d="M602.9 1013.9C599 1011.6 595.3 1011.9 591.9 1014.7C589.1 1017.1 588.3 1020.3 589.2 1023.7C590.1 1027.3 592.6 1029.7 596.4 1030.4C601.1 1031.4 604.8 1028.7 605.3 1023.9C606.8 1025.6 605.9 1028 606.8 1029.8C606.1 1030.1 605.3 1030.4 604.6 1030.8C599 1033.9 594 1033.4 590.1 1029.5C586.5 1026 585.6 1020.2 588 1015.8C590.7 1010.8 595.8 1009 602 1010.6C602.3 1011.8 602.6 1012.9 602.9 1013.9Z" fill="#6188B2"/>
<path d="M590.8 417.1C521.8 417.1 452.8 417 383.8 417.2C379 417.2 377.7 416.1 377.8 411.2C378 376.7 378 342.2 377.8 307.7C377.8 303.6 378.8 302.3 383 302.3C521.7 302.4 660.4 302.4 799 302.3C803.2 302.3 804.4 303.6 804.3 307.7C804.2 342.4 804.1 377 804.3 411.7C804.3 416.2 803.1 417.2 798.7 417.2C729.4 417.1 660.1 417.1 590.8 417.1Z" fill="#5982AF"/>
<path d="M697.6 451.8C626.6 451.8 555.5 451.8 484.5 451.8C484.5 451.4 484.5 451.1 484.5 450.7C555.5 450.7 626.6 450.7 697.6 450.7C697.6 451 697.6 451.4 697.6 451.8Z" fill="#5882AE"/>
<path d="M529.3 541.1C531.5 541.5 532.4 542.8 532.2 544.7C532 546.4 531 547.4 529.2 547.3C527.2 547.2 526.1 546.1 526.2 544.1C526.3 542.2 527.8 541.4 529.3 541.1Z" fill="#100909"/>
<path d="M1439 770.1C1458.7 770.1 1478.3 770.2 1498 770C1502.6 769.9 1504.1 771.2 1503.9 775.8C1503.4 785.4 1505 784 1495.7 784C1457.4 784.1 1419.1 783.9 1380.8 784.1C1376 784.1 1374.5 783 1374.7 778.1C1375.2 768.7 1373.6 770.1 1383.1 770C1401.7 770 1420.4 770.1 1439 770.1Z" fill="#6289B3"/>
<path d="M1439.6 817.8C1459.3 817.8 1478.9 817.9 1498.6 817.7C1502.7 817.7 1504.1 818.6 1504 822.9C1503.6 832.9 1505.2 831.7 1495.2 831.7C1456.9 831.7 1418.6 831.6 1380.3 831.8C1375.8 831.8 1374.6 830.6 1374.8 826.2C1375.1 817.7 1374.9 817.7 1383.3 817.7C1402 817.8 1420.8 817.8 1439.6 817.8Z" fill="#6289B3"/>
<path d="M1439.5 794C1459.1 794 1478.8 794.1 1498.4 793.9C1502.3 793.9 1504.1 794.7 1503.9 799.1C1503.5 809.5 1504.9 807.9 1495.2 807.9C1457.1 808 1418.9 807.8 1380.8 808C1376.1 808 1374.4 807 1374.7 802C1375.1 793.9 1374.8 793.9 1383 793.9C1401.8 794 1420.6 794 1439.5 794Z" fill="#5A83AF"/>
<path d="M1436.1 936.2C1484.65 936.2 1524 935.842 1524 935.4C1524 934.958 1484.65 934.6 1436.1 934.6C1387.55 934.6 1348.2 934.958 1348.2 935.4C1348.2 935.842 1387.55 936.2 1436.1 936.2Z" fill="#5882AE"/>
<path d="M1374.1 995.4C1415.4 995.4 1456.7 995.4 1498.1 995.4C1498.1 995.7 1498.1 996.1 1498.1 996.4C1456.8 996.4 1415.5 996.4 1374.1 996.4C1374.1 996.1 1374.1 995.7 1374.1 995.4Z" fill="#5881AE"/>
<path d="M1436.2 966.4C1484.58 966.4 1523.8 966.087 1523.8 965.7C1523.8 965.313 1484.58 965 1436.2 965C1387.82 965 1348.6 965.313 1348.6 965.7C1348.6 966.087 1387.82 966.4 1436.2 966.4Z" fill="#5881AE"/>
<path d="M1399.9 882.8C1400 889.9 1394.2 895.9 1387.1 896C1379.6 896.2 1373.6 890.6 1373.4 883.2C1373.2 875.9 1379.1 869.8 1386.4 869.8C1393.9 869.7 1399.8 875.4 1399.9 882.8Z" fill="#5E86B1"/>
<path d="M1452.2 883.2C1452.1 890.5 1446.4 896.1 1439.1 896C1431.6 896 1425.8 890 1425.9 882.6C1426 875.2 1432 869.6 1439.6 869.8C1447 870 1452.3 875.7 1452.2 883.2Z" fill="#5D85B1"/>
<path d="M1276.2 546.9C1286.3 546.9 1288 548.7 1288 559.4C1288 568.9 1285.8 571 1275.6 571C1266.2 571 1263.9 568.4 1263.9 558C1264 548.8 1266.1 546.9 1276.2 546.9Z" fill="#6DB5DE"/>
<path d="M1147 507C1149.8 508.6 1152.8 507.8 1155.7 508C1162.5 514.3 1160.7 522.4 1159.4 529.8C1158.3 535.7 1152.4 536 1147.3 536C1147.2 535.9 1147.1 535.7 1147 535.6C1146.1 534.8 1145.7 533.6 1145.7 532.5C1145.7 524.6 1145.1 516.6 1146 508.7C1146.2 508 1146.6 507.5 1147 507Z" fill="#ECE9E9"/>
<path d="M1051 535.8C1050.3 537.9 1051.6 540.2 1050.1 542.2C1050.6 537.9 1049 536 1044.3 535.5C1039.6 534.9 1037.7 530.6 1037.1 526.3C1036.6 523.2 1036.8 520 1037.1 516.9C1037.7 511.3 1040.9 508.3 1046.6 508.2C1049.1 508.2 1051.6 505.8 1054.2 507.9C1054.1 508.2 1054 508.4 1053.9 508.7C1052.3 510.1 1052.6 512 1052.5 513.8C1052.5 519.1 1052.5 524.4 1052.5 529.8C1052.4 531.8 1052.7 534 1051 535.8Z" fill="#ECE8E8"/>
<path d="M1120.1 535.5C1117.5 535.5 1114.9 535.5 1112.4 535.5C1110.2 533.8 1110.6 531.4 1110.6 529.1C1110.5 523.7 1110.6 518.2 1110.5 512.8C1110.5 518.7 1110.6 524.7 1110.3 530.6C1110.2 532.2 1111.1 535.2 1107.4 534.5C1106.1 525.6 1105.2 516.7 1107.9 507.9C1112 505.6 1116 509.1 1120.1 508.1C1121.3 509.4 1121.4 511.1 1121.5 512.7C1121.6 518.8 1121.6 524.8 1121.5 530.9C1121.5 532.5 1121.4 534.2 1120.1 535.5Z" fill="#EBE7E7"/>
<path d="M1147 507C1147 507.3 1147 507.7 1147 508C1145.3 509.3 1145.5 511.1 1145.5 513C1145.5 518.6 1145.6 524.2 1145.4 529.8C1145.4 531.9 1145.7 534.2 1143.5 535.6C1140.9 535.6 1138.4 535.6 1135.8 535.6C1134.5 534.1 1134.4 532.2 1134.5 530.4C1135 523 1133 515.5 1135.7 508.2C1139.5 507.8 1143.2 507.4 1147 507Z" fill="#EBE6E6"/>
<path d="M1085.2 535.5C1082.6 535.5 1080.1 535.5 1077.5 535.5C1075.3 534.1 1075.6 531.8 1075.6 529.8C1075.5 524.4 1075.6 519 1075.5 513.6C1075.5 511.8 1075.7 510 1074 508.7C1073.6 508.2 1073.6 507.7 1074 507.1C1077.8 507.5 1081.5 507.9 1085.3 508.2C1087.8 513.3 1086.4 518.6 1086.5 523.9C1086.6 527.7 1087.5 531.8 1085.2 535.5Z" fill="#EBE6E6"/>
<path d="M1074 507C1074 507.3 1074 507.7 1074 508C1075.2 509.3 1075.5 510.9 1075.5 512.6C1075.5 518.7 1075.5 524.8 1075.5 530.9C1075.5 532.6 1075.4 534.2 1073.9 535.4C1071.2 535.9 1068.6 535.8 1065.9 535.4C1064.8 534.3 1064.6 532.8 1064.5 531.3C1064.3 524.9 1064.4 518.5 1064.5 512.1C1064.5 510.6 1064.8 509.2 1065.9 508C1068.6 507.8 1071.4 508.6 1074 507Z" fill="#EBE8E8"/>
<path d="M1131.9 535.5C1129.3 535.9 1126.6 535.9 1124 535.5C1122.8 534.4 1122.5 532.9 1122.5 531.5C1122.3 525.1 1122.3 518.6 1122.5 512.2C1122.5 510.7 1122.9 509.3 1124 508.1C1126.7 508.1 1129.3 508.1 1132 508.1C1133 509.3 1133.5 510.7 1133.5 512.2C1133.7 518.6 1133.7 525.1 1133.5 531.5C1133.4 532.9 1133.2 534.4 1131.9 535.5Z" fill="#EBE9E9"/>
<path d="M1096.9 535.5C1094.3 535.9 1091.6 535.9 1089 535.5C1087.9 534.6 1087.5 533.3 1087.5 532C1087.2 525.2 1087.2 518.5 1087.5 511.7C1087.5 510.3 1088.1 509.1 1089 508.1C1091.7 508.1 1094.3 508.1 1097 508.1C1098.1 509.3 1098.4 510.7 1098.5 512.2C1098.7 518.6 1098.7 525.1 1098.5 531.5C1098.4 532.9 1098.2 534.4 1096.9 535.5Z" fill="#EBE9E9"/>
<path d="M1062 535.5C1059.3 535.9 1056.7 535.9 1054 535.5C1052.9 534.6 1052.6 533.3 1052.6 531.9C1052.5 525.2 1052.5 518.4 1052.6 511.7C1052.6 510.4 1053.1 509.1 1054 508.1L1054.2 507.9C1056.8 508 1059.4 508.1 1062.1 508.1C1063.3 509.4 1063.5 511 1063.6 512.7C1063.7 518.8 1063.7 524.9 1063.6 531C1063.5 532.5 1063.3 534.2 1062 535.5Z" fill="#EBE9E9"/>
<path d="M1016.7 535.2C1013.2 534.8 1007.8 537 1005 534.4C1002.2 531.7 1004.1 526.2 1004.1 522C1004 509.2 1004.1 509.2 1016.7 509.3C1021 509.3 1026.4 507.4 1029.2 510.2C1031.9 512.9 1030 518.4 1030.1 522.6C1030.1 535.2 1030 535.2 1016.7 535.2Z" fill="#5D85B1"/>
<path d="M1022.1 589.9C1024.8 590 1027.5 590.2 1030.1 591.2C1030.1 598.2 1029.9 605.1 1030.1 612.1C1030.2 615.4 1029 616.4 1025.8 616.3C1019.7 616.1 1013.5 616.2 1007.4 616.3C1004.8 616.4 1003.9 615.5 1003.9 612.9C1004 606.6 1004.1 600.3 1003.9 594C1003.8 590.7 1005.3 590.1 1008.1 590.2C1012.8 590.1 1017.4 590 1022.1 589.9Z" fill="#5C84B0"/>
<path d="M1107.9 507.9C1108 516.9 1108 526 1108.1 535C1108.3 535.2 1108.4 535.3 1108.6 535.5C1106 535.5 1103.4 535.5 1100.8 535.4C1099.7 534.3 1099.5 532.8 1099.5 531.3C1099.3 524.9 1099.4 518.5 1099.5 512.1C1099.5 510.6 1099.8 509.2 1100.8 508C1103.2 508 1105.6 508 1107.9 507.9Z" fill="#EBE7E7"/>
<path d="M1131.9 535.5C1131.9 526.3 1131.9 517.2 1131.9 508C1133.2 507.5 1134.4 507.7 1135.7 508.2C1135.7 517.3 1135.7 526.4 1135.7 535.6C1134.5 535.9 1133.2 535.9 1131.9 535.5Z" fill="#E65A5B"/>
<path d="M1062 535.5C1062 526.4 1062 517.2 1062 508.1C1063.3 507.7 1064.6 507.7 1065.8 508.1C1065.8 517.2 1065.8 526.4 1065.8 535.5C1064.6 535.9 1063.3 535.9 1062 535.5Z" fill="#E66061"/>
<path d="M1100.8 508.1C1100.8 517.2 1100.8 526.4 1100.8 535.5C1099.5 535.9 1098.2 535.9 1096.9 535.5C1096.9 526.4 1096.9 517.2 1096.9 508.1C1098.3 507.6 1099.6 507.7 1100.8 508.1Z" fill="#E65C5C"/>
<path d="M1124 508C1124 517.1 1124 526.3 1124 535.4C1122.7 535.8 1121.4 535.8 1120.1 535.4C1120.1 526.3 1120.1 517.1 1120.1 508C1121.4 507.7 1122.7 507.6 1124 508Z" fill="#E65C5C"/>
<path d="M1089 508C1089 517.2 1089 526.3 1089 535.5C1087.7 535.9 1086.4 536 1085.2 535.6C1085.2 526.5 1085.2 517.4 1085.2 508.2C1086.5 507.7 1087.7 507.5 1089 508Z" fill="#E65A5B"/>
<path d="M1043.1 543.1C1042.7 542.8 1042.3 542.5 1041.8 542.1C1044.5 542.1 1047.3 542.1 1050 542.1C1048 543.8 1045.4 542.4 1043.1 543.1Z" fill="#ECE8E8"/>
<path d="M1108.6 535.6C1108.3 535.5 1108.2 535.4 1108.1 535.1C1109.6 529.2 1108.4 523.3 1108.8 517.4C1108.9 515.7 1108.6 514.1 1108.9 512.4C1109.1 510.9 1107.7 508.1 1110.6 508.2C1113 508.3 1112 510.8 1112 512.2C1112.1 518.2 1112 524.2 1112.1 530.1C1112.1 531.9 1112.3 533.7 1112.4 535.6C1111.1 535.5 1109.9 535.6 1108.6 535.6Z" fill="#E64E4F"/>
<path d="M1143.4 535.5C1143.5 527.6 1143.6 519.7 1143.7 511.8C1143.7 509.6 1143.5 507.3 1146.9 508C1146.9 517.2 1146.9 526.4 1146.8 535.6C1145.8 535.5 1144.6 535.5 1143.4 535.5Z" fill="#E64E4F"/>
<path d="M1073.9 535.5C1073.9 526.4 1074 517.2 1074 508.1C1077.4 507.4 1077.2 509.7 1077.2 511.9C1077.3 519.8 1077.4 527.7 1077.5 535.6C1076.3 535.9 1075.1 535.9 1073.9 535.5Z" fill="#E64E4F"/>
<path d="M1054 508.1C1054 517.2 1054 526.4 1054.1 535.5C1053.1 535.6 1052.1 535.7 1051.1 535.8C1051 527.5 1051 519.2 1050.9 510.9C1050.7 508.5 1051.5 507.5 1054 508.1Z" fill="#E64E4F"/>
<path d="M1098.8 613.6C1097.5 613.5 1097 612.7 1096.9 611.7C1096.8 610.5 1096.7 609.4 1096.8 608.2C1097.4 604.2 1096 602.3 1091.8 603C1090.8 603.2 1089.8 603 1088.8 603C1087.6 603 1086.3 602.7 1086.2 601.3C1086.1 599.6 1087.4 599.2 1088.9 599.1C1089.7 599.1 1090.6 598.9 1091.4 599.1C1096.2 600 1097.5 597.7 1096.9 593.4C1096.8 592.4 1096.9 591.4 1097 590.4C1097.1 589.5 1097.7 588.7 1098.5 588.6C1099.6 588.5 1100.4 589.2 1100.6 590.3C1100.8 590.9 1100.9 591.6 1100.8 592.3C1099.8 597.9 1102 600.2 1107.6 599.2C1109 599 1110.9 598.9 1111.1 601C1111.3 603.2 1109.3 603.3 1107.9 603C1102.1 602 1099.7 604.2 1100.7 610.1C1100.9 611.5 1100.5 613 1098.8 613.6Z" fill="#F9FBFA"/>
<path d="M1191.8 401.3C1190.7 403.1 1191.2 405.2 1190.8 407.1C1189.3 409.6 1186.8 409 1184.5 409C1142.7 409 1100.9 409 1059.1 409C1056.9 409 1054.8 409.1 1052.6 409.1C1046.7 408.1 1043.7 405 1043.7 399.1C1043.6 377.1 1043.7 355.1 1043.6 333.2C1043.6 330.5 1044.7 329.8 1047.2 329.9C1055 330 1062.9 329.7 1070.7 330C1074.5 330.2 1076.4 328.7 1077.9 325.4C1080.7 318.9 1083.9 312.5 1088 306.2C1088 327.4 1088 348.6 1088 370C1090.7 369.6 1090.7 367.8 1091.1 366.6C1095.5 355.1 1099.9 343.7 1104.1 332.1C1105.2 329 1106.7 327.5 1110.2 327.8C1114.5 328.1 1118.9 327.7 1123.2 327.9C1126.4 328.1 1128 326.8 1129.2 324C1131.7 318.2 1134.5 312.6 1138.5 307C1138.5 329 1138.5 350.9 1138.5 373.6C1141.7 371.8 1141.4 369.5 1141.9 367.7C1145.1 355.8 1148.2 343.9 1151.2 332C1152 329 1153.2 327.7 1156.6 327.8C1165.7 328.1 1174.9 327.7 1184.1 328C1187.5 328.1 1189.6 327.2 1191 323.9C1193.5 318.1 1196.5 312.6 1200.2 306.9C1200.2 314 1200.2 321.1 1200.2 328.2C1174.5 328.7 1161.3 355.4 1173.8 375.5C1178.4 382.8 1185.1 386.9 1193.2 389.3C1192.9 391.6 1192.7 394 1192.4 396.3C1192.7 397.9 1192.1 399.6 1191.8 401.3Z" fill="#FEFEFE"/>
<path d="M1266.1 403.7C1268 405.6 1266.9 408 1267.1 410.2C1267.6 417.5 1266.2 424.8 1267.9 432.1C1265.5 434.2 1263.1 436.4 1260.7 438.5C1258.5 438 1257.5 436.2 1256.9 434.3C1254.8 427.5 1253.6 420.5 1253.2 413.4C1253.1 412.6 1253.5 411.8 1254 411.1C1258 408.6 1262.1 406.1 1266.1 403.7Z" fill="#010100"/>
<path d="M998.5 376.9C991.2 376.9 983.8 376.8 976.5 376.9C973.7 377 972.7 376 972.8 373.1C973 368.6 973 364.1 972.8 359.6C972.6 356.3 974.1 355.8 976.9 355.8C991.2 355.9 1005.5 355.9 1019.9 355.8C1023.1 355.8 1024.4 356.7 1024.2 360C1023.9 364.1 1023.9 368.3 1024.2 372.5C1024.5 376.2 1022.9 377 1019.5 376.9C1012.5 376.8 1005.5 376.9 998.5 376.9Z" fill="#5F87B2"/>
<path d="M998.9 386.8C1006 386.8 1013.2 386.9 1020.3 386.8C1023.1 386.7 1024.2 387.6 1024.1 390.5C1023.9 395 1023.9 399.5 1024.1 404C1024.2 406.8 1023.3 407.9 1020.4 407.9C1005.8 407.8 991.1 407.8 976.5 407.9C973.7 407.9 972.6 406.9 972.7 404.1C973 398.7 970.6 391.8 973.6 388.1C976.6 384.5 983.6 387.3 988.9 386.9C992.3 386.6 995.6 386.8 998.9 386.8Z" fill="#6189B3"/>
<path d="M998.2 346.1C991 346.1 983.9 346 976.7 346.2C973.6 346.3 972.6 345.2 972.7 342.2C972.9 337.7 972.8 333.2 972.7 328.7C972.6 326.2 973.4 325.1 976.1 325.2C990.9 325.3 1005.8 325.3 1020.6 325.2C1023.3 325.2 1024.1 326.1 1024 328.7C1023.9 333.4 1023.8 338 1024 342.7C1024.1 345.7 1022.8 346.3 1020.1 346.2C1012.9 346 1005.6 346.1 998.2 346.1Z" fill="#5983AF"/>
<path d="M1254 411.1C1255.1 418.6 1255.8 426.1 1258 433.4C1258.6 435.3 1258.8 437.3 1260.7 438.4C1257.7 442 1256 440.7 1254.4 437C1252.2 432 1250.1 427 1248.9 421.6C1247.2 414.4 1247.1 414.4 1254 411.1Z" fill="#FB9993"/>
<path d="M1216.2 332.9C1215.1 332.4 1213.7 332.5 1213 331.4C1213.3 331.3 1213.9 331.3 1213.9 331.1C1215.8 324.1 1221.3 325.2 1226.5 325.2C1235.5 325.3 1244.5 325.2 1253.4 325.3C1255.1 325.3 1257.1 324.6 1258.8 326.4C1257.6 328.5 1255.7 327.7 1254.1 327.7C1244 327.8 1233.8 328 1223.7 327.6C1219.3 327.5 1217.1 329 1216.2 332.9Z" fill="#5A83AF"/>
<path d="M1206 358.7C1206.1 362.4 1203.3 365.4 1199.6 365.5C1195.9 365.6 1192.9 362.7 1192.8 359.1C1192.7 355.5 1195.6 352.4 1199.2 352.3C1202.8 352 1205.9 355.1 1206 358.7Z" fill="#FBFBFC"/>
<path d="M1228.1 396.8C1229.5 397 1230.8 398 1230.7 399.9C1230.6 401.8 1229.4 402.9 1227.5 402.9C1225.6 402.9 1224.4 401.6 1224.5 399.7C1224.6 397.9 1225.7 396.8 1228.1 396.8Z" fill="#140C0B"/>
<path d="M1191.8 401.3C1190.3 399.5 1191.1 397.8 1192.1 396.1C1193.8 395.9 1195.8 395.1 1196.8 397.3C1197.3 398.4 1197.3 399.7 1196.6 400.6C1195.4 402.4 1193.6 402 1191.8 401.3Z" fill="#0F0B0B"/>
<path d="M591 305C659.3 305 727.6 305.1 796 304.9C801.3 304.9 802.2 306.4 802.1 311.2C801.9 344 801.9 376.9 802.1 409.7C802.1 414.3 800.8 415.2 796.5 415.1C787.3 414.8 778.2 414.8 769 415.1C764.8 415.3 764.1 413.8 764.1 410C764.3 391 764.1 372 764.3 353C764.3 349.2 763.5 347.8 759.4 347.9C746.7 348.2 734.1 348.2 721.4 347.9C717.5 347.8 716.7 349.2 716.8 352.8C717 372 716.8 391.1 717 410.3C717 413.9 716.3 415.2 712.4 415.1C700.9 414.8 689.4 414.8 677.9 415.1C674 415.2 673.2 413.8 673.3 410.3C673.5 395 673.3 379.6 673.4 364.3C673.4 359.7 672.3 355.5 669.1 352.5C665.8 349.5 664.5 346.2 665.2 342C665.8 338.2 664.2 336.8 660.5 337.3C659.8 337.4 659.2 337.3 658.5 337.3C649.6 337.3 649.5 337.3 649.3 346C649.2 347.8 648.7 349 647.4 350.3C642.9 354.5 640.9 359.7 641 365.9C641.2 380.9 641 395.9 641.1 410.9C641.1 414.1 640.3 415.3 636.9 415.1C630.1 414.9 623.2 414.9 616.4 415.1C613.5 415.2 612.3 414.4 612.3 411.2C612.4 395.7 612.4 380.2 612.3 364.7C612.3 361.9 613.2 360.6 616 361.1C619.9 361.7 620.2 359.5 620.2 356.4C620.1 348 620.2 348 611.8 348C594.6 348 577.5 348.1 560.3 347.9C556 347.8 554.6 349.2 555.2 353.3C555.4 354.4 555.3 355.6 555.2 356.8C554.9 359.9 555.9 361.7 559.3 361.2C562.5 360.7 563.1 362.2 563.1 365.2C563 380.5 562.9 395.9 563.1 411.2C563.1 414.7 561.8 415.3 558.7 415.2C551.2 415 543.7 415 536.2 415.2C532.6 415.3 531.7 414.1 531.8 410.7C532 391.5 531.9 372.4 532 353.2C532 345.8 529 339.8 523.3 335.5C519.9 332.9 519.1 330.3 519.1 326.4C519.2 317.9 520.4 319.2 511.7 319.1C507.9 319 504 319.2 500.2 319.1C497.4 319 496.1 320.1 496.4 322.9C497.2 329.1 495.9 333.8 490.3 337.9C485.6 341.3 483.9 347.2 483.9 353.5C484.1 372.5 483.9 391.5 484.1 410.5C484.1 414.1 483.4 415.4 479.5 415.3C471 415 462.5 415.1 454 415.3C450.9 415.4 450 414.4 450 411.3C450.2 399 450.1 386.6 450 374.3C450 371.9 450 370.2 453.3 370.2C459.3 370.2 456 365.4 456.6 362.7C457.3 359.9 455.7 359 452.9 359C437.2 359.1 421.6 359.1 405.9 359C403 359 401.5 359.7 401.9 362.9C402.3 366.3 400.3 371 406.9 370.5C408.7 370.4 408.3 372.5 408.3 373.7C408.3 386.4 408.3 399 408.4 411.7C408.4 414.2 407.6 415.3 405 415.2C397.8 415.1 390.7 415.1 383.5 415.2C381 415.2 380 414.6 380 411.9C380.1 377.4 380.1 342.9 380 308.4C380 304.5 382.3 305.2 384.6 305.2C408.3 305.2 431.9 305.2 455.6 305.2C500.7 305 545.9 305 591 305Z" fill="#FEFEFE"/>
<path d="M719 382.3C719 373 719.1 363.6 718.9 354.3C718.8 351.2 719.6 349.9 723 350C734.7 350.2 746.3 350.2 758 350C761.4 349.9 762.2 351.1 762.1 354.3C762 373.1 762 391.9 762.1 410.8C762.1 414 761.4 415.1 758 415.1C746.3 414.9 734.7 414.9 723 415.1C719.6 415.2 718.8 414 718.9 410.8C719.1 401.3 719 391.8 719 382.3Z" fill="#FEFEFE"/>
<path d="M529.3 380.8C529.3 390.8 529.2 400.8 529.4 410.8C529.5 414.1 528.4 415.1 525.2 415C513.5 414.8 501.9 414.8 490.2 415C487 415 486.3 413.9 486.3 411C486.4 391.3 486.3 371.7 486.4 352C486.5 341 496.7 331.9 508.4 332C519.8 332.1 529.3 341.2 529.3 352.4C529.3 361.8 529.3 371.3 529.3 380.8Z" fill="#FEFEFE"/>
<path d="M643.1 387.2C643.1 379.7 643.1 372.2 643.1 364.7C643.1 362.3 643.5 360.1 644.5 357.9C647.9 350.4 654.3 346.8 660.7 348.8C667.7 351.1 672.7 360 671.2 367.3C670.7 369.9 668.9 369.2 667.4 369.3C658 369.7 658 369.7 658 379.4C658 384.9 658.2 390.4 657.9 395.9C657.8 399.2 658.9 400.1 662.2 400.1C671.2 400.1 671 400.2 671.3 409.2C671.4 413.6 670.5 415.5 665.7 415C660.2 414.5 654.7 414.6 649.2 415C644.5 415.3 642.7 414.2 643.1 409.1C643.5 401.9 643.1 394.6 643.1 387.2Z" fill="#FEFEFE"/>
<path d="M565.2 388.5C565.2 380.8 565.3 373.2 565.1 365.5C565 362.7 566 361.7 568.8 361.8C581.5 361.9 594.1 361.9 606.8 361.8C610.1 361.8 610.1 363.4 610.2 365.8C610.3 368.3 609.6 369.4 606.9 369.3C598.4 369.2 589.9 369.5 581.4 369.2C577.3 369.1 576.3 370.5 576.4 374.4C576.6 382.9 576.7 391.4 576.4 399.9C576.3 403.9 577.3 405.5 581.6 405.3C589.9 405 598.3 405.4 606.6 405.1C611.2 404.9 610.1 407.9 610.2 410.4C610.3 413 610.6 415.2 606.5 415.1C594 414.8 581.5 414.9 569 415.1C565.8 415.1 565.1 413.9 565.2 411C565.3 403.5 565.2 396 565.2 388.5Z" fill="#FDFEFE"/>
<path d="M610 388.2C609.5 392.4 612.2 399 609 402.2C606 405.1 599.5 402.8 594.6 403C591.1 403.1 587.6 402.8 584.1 403.1C580.1 403.5 578.5 402.4 578.8 398C579.2 390.7 579 383.4 578.8 376.1C578.7 373 579.5 371.7 582.9 371.8C590.5 372 598.2 372 605.8 371.8C608.9 371.7 610.3 372.5 610.1 375.9C609.8 379.7 610 383.6 610 388.2Z" fill="#FEFEFE"/>
<path d="M410.9 392.7C410.9 386.5 411 380.4 410.9 374.2C410.8 371.6 411.8 370.8 414.3 370.8C424.4 370.9 434.6 370.9 444.7 370.8C446.9 370.8 448 371.3 448 373.8C448 376.3 447 376.9 444.7 376.9C437.7 376.8 430.7 377 423.7 376.8C420.6 376.7 419.6 377.7 419.7 380.8C419.9 388.3 419.9 395.8 419.7 403.2C419.6 406.4 420.8 407.2 423.8 407.1C430.6 406.9 437.4 407.2 444.3 407C447.2 406.9 448 407.9 448 410.7C448 413.4 447.7 415 444.3 414.9C434.3 414.7 424.3 414.7 414.4 414.9C411.4 415 410.8 413.7 410.9 411.1C411 405 410.9 398.9 410.9 392.7Z" fill="#FDFEFE"/>
<path d="M448.2 392C448 396.1 449.4 401.5 447.2 404C444.7 406.9 439.1 404.9 434.9 404.9C430.8 404.9 425.5 406.8 422.9 404.1C420.4 401.5 422.2 396.2 422.2 392.1C422.2 388 420.4 382.7 422.9 380.1C425.6 377.2 431.1 379.2 435.3 379.1C448 379 448 379.1 448.2 392Z" fill="#FEFEFE"/>
<path d="M588 350C596.8 350 605.6 350.2 614.4 349.9C618 349.9 618 351.8 617.9 354.3C617.8 356.6 618.4 358.9 614.6 358.9C596.8 358.8 579 358.8 561.2 358.9C557.2 358.9 557.8 356.5 557.6 354C557.4 351 558.4 349.9 561.5 350C570.3 350.2 579.2 350 588 350Z" fill="#FCFDFD"/>
<path d="M429.1 361C436.3 361 443.4 361.1 450.6 361C453.3 360.9 454.4 361.6 454.4 364.6C454.4 367.7 453 368.1 450.4 368.1C436.2 368 422.1 368 407.9 368.1C405.2 368.1 404.1 367.4 404.1 364.5C404.1 361.3 405.6 361 408.1 361.1C415.1 361.1 422.1 361 429.1 361Z" fill="#FDFDFD"/>
<path d="M671.1 384.9C671.1 387.5 670.8 390.2 671.2 392.8C671.7 397.1 669.8 397.8 665.9 398C661 398.2 659.6 396.8 660 392C660.4 386.6 660.2 381.1 660.1 375.6C660 372.9 660.6 371.8 663.6 371.8C671.2 371.7 671.2 371.5 671.2 379C671.1 381 671.1 383 671.1 384.9Z" fill="#FEFEFE"/>
<path d="M508.1 321C509.4 321 510.7 321 512.1 321C516.8 321 518.5 323.5 517.1 328.1C516.5 329.9 515.2 329.6 513.9 329.6C510.6 329.7 507.3 329.6 504 329.6C499.3 329.6 497.5 326.9 499 322.4C499.5 320.8 500.6 321 501.7 320.9C503.8 321 505.9 321 508.1 321Z" fill="#FAFBFC"/>
<path d="M656.9 346.2C654.6 345.5 651.2 347.7 651.2 342.9C651.2 338 654.7 339.4 657.1 339.5C659.5 339.6 663 337.8 663.1 342.8C663.1 348.4 658.9 345.1 656.9 346.2Z" fill="#F2F5F8"/>
<path d="M1439 781.9C1420 781.9 1401 781.8 1382.1 782C1378.5 782 1376.9 781.5 1376.9 777.2C1376.9 772.6 1379 772.6 1382.3 772.6C1420.1 772.7 1457.9 772.7 1495.7 772.6C1499.2 772.6 1501.5 772.6 1501.5 777.4C1501.6 782.7 1498.5 781.9 1495.4 781.9C1476.6 781.9 1457.8 781.9 1439 781.9Z" fill="#FEFEFE"/>
<path d="M1438.4 829.2C1419.4 829.2 1400.4 829.1 1381.5 829.3C1377.6 829.3 1376.9 828 1376.9 824.4C1376.9 821 1377.7 819.9 1381.3 819.9C1419.8 820 1458.2 820 1496.7 819.9C1500.5 819.9 1501.4 821 1501.4 824.7C1501.5 828.7 1499.8 829.3 1496.4 829.2C1477 829.1 1457.7 829.2 1438.4 829.2Z" fill="#FEFEFE"/>
<path d="M1438.9 796.1C1458.2 796.1 1477.5 796.2 1496.8 796C1500.8 796 1501.4 797.5 1501.4 800.9C1501.4 804.6 1500.5 805.8 1496.6 805.7C1458.2 805.6 1419.7 805.5 1381.3 805.7C1377.2 805.7 1376.9 804.1 1376.8 800.7C1376.7 797.1 1377.5 795.8 1381.4 795.9C1400.6 796.2 1419.7 796.1 1438.9 796.1Z" fill="#FCFDFD"/>
<path d="M1375.9 882.8C1375.9 876.8 1380.7 872.1 1386.7 872C1392.5 871.9 1397.5 876.9 1397.7 882.8C1397.8 888.7 1392.4 894 1386.5 893.9C1380.5 893.7 1375.8 888.8 1375.9 882.8Z" fill="#FEFEFE"/>
<path d="M1450 883.2C1449.9 889.1 1444.9 893.9 1439.1 893.9C1433.4 893.9 1428.3 888.7 1428.3 882.9C1428.3 876.8 1433.6 871.7 1439.6 872C1445.5 872.3 1450.1 877.1 1450 883.2Z" fill="#FDFEFE"/>
<path d="M1016.5 533C1006.1 533 1006.1 533 1006.1 522.7C1006.1 511.7 1006.1 511.7 1016.9 511.7C1027.8 511.7 1027.8 511.7 1027.8 522.6C1027.8 533 1027.8 533 1016.5 533Z" fill="#FDFEFE"/>
<path d="M1017 613.9C1006.2 613.9 1006.2 613.9 1006.2 603C1006.2 592.6 1006.2 592.6 1016.6 592.6C1027.9 592.6 1027.9 592.6 1027.9 604C1027.8 613.9 1027.8 613.9 1017 613.9Z" fill="#FDFDFE"/>
<path d="M998.8 358.1C1005.3 358.1 1011.8 358.2 1018.2 358C1020.9 357.9 1021.9 358.7 1022 361.6C1022.4 374.3 1022.5 374.3 1009.8 374.3C999.5 374.3 989.2 374.2 978.9 374.4C975.9 374.4 975 373.6 974.9 370.5C974.7 358.1 974.6 358.1 986.8 358.1C990.8 358.1 994.8 358.1 998.8 358.1Z" fill="#FEFEFE"/>
<path d="M999 389C1005.3 389 1011.6 389.1 1017.9 388.9C1020.8 388.8 1021.9 389.5 1022 392.7C1022.2 405.1 1022.3 405.1 1010.1 405.1C999.6 405.1 989.2 405 978.7 405.2C976 405.2 975 404.5 974.9 401.6C974.6 389 974.5 389 987.1 389C991 389 995 389 999 389Z" fill="#FEFEFE"/>
<path d="M998 343.9C991.7 343.9 985.3 343.8 979 344C976.2 344.1 974.9 343.5 974.9 340.2C974.7 327.3 974.5 327.3 987.4 327.3C997.4 327.3 1007.4 327.5 1017.4 327.2C1021.3 327.1 1022.1 328.4 1022.1 332C1022 343.9 1022.1 343.9 1010.1 343.9C1006 343.9 1002 343.9 998 343.9Z" fill="#FDFDFE"/>
<path d="M508 396.1C503 396.1 498 396 493 396.1C490.3 396.2 489.1 395.4 489.1 392.5C489.2 382.4 489.2 372.2 489.1 362.1C489.1 359.7 490 358.9 492.3 358.9C502.6 359 512.9 359 523.2 358.9C525.9 358.9 526.7 360 526.7 362.5C526.7 372.5 526.6 382.5 526.7 392.4C526.7 395.1 525.8 396.3 522.9 396.2C518 395.9 513 396.1 508 396.1Z" fill="#6088B2"/>
<path d="M524.2 377.7C524.2 382 524.1 386.3 524.2 390.7C524.3 393.1 523.4 393.9 521 393.9C512.4 393.8 503.7 393.8 495.1 393.9C492.4 393.9 491.7 392.8 491.7 390.3C491.8 381.7 491.8 373 491.7 364.4C491.7 361.8 492.6 361 495.2 361C503.7 361.1 512.2 361.2 520.6 361C523.5 360.9 524.3 362 524.2 364.8C524 369.1 524.2 373.4 524.2 377.7Z" fill="#FEFEFE"/>
</svg>
