<svg width="1872" height="1343" viewBox="0 0 1872 1343" fill="none" xmlns="http://www.w3.org/2000/svg">
<path d="M935.29 1342.9C625.053 1342.9 314.917 1342.9 4.67903 1343C0.915493 1343 0 1342.22 0 1338.52C0.101717 893.874 0.101717 449.126 0 4.47667C0 0.875875 0.813775 0 4.67903 0C625.46 0.0973188 1246.14 0.0973188 1866.92 0C1870.68 0 1871.6 0.778557 1871.6 4.47667C1871.5 449.126 1871.5 893.874 1871.6 1338.52C1871.6 1342.12 1870.78 1343 1866.92 1343C1556.38 1342.9 1245.83 1342.9 935.29 1342.9Z" fill="#FCFCFC"/>
<path d="M689.339 956.741C689.237 958.396 689.135 960.05 689.135 961.705C688.627 970.853 688.525 980.001 687.711 989.051C685.982 1008.71 684.354 1028.27 682.422 1047.83C681.913 1049.97 681.71 1052.11 681.71 1054.25C680.794 1067.98 679.269 1081.6 678.15 1095.32C677.031 1107.68 675.912 1120.14 674.691 1132.5C674.284 1136.39 675.403 1139.41 679.37 1141.26C682.117 1142.52 684.354 1144.57 686.49 1146.71C687.813 1148.07 688.423 1149.82 689.237 1151.48C700.528 1168.99 694.933 1184.56 686.796 1193.32C677.438 1203.35 665.639 1207.05 651.907 1203.93C638.48 1200.82 629.936 1192.45 626.071 1179.7C624.748 1178.73 624.138 1177.46 623.935 1175.9C622.409 1164.42 625.969 1154.49 634.615 1145.83C632.275 1144.86 630.444 1145.25 628.715 1145.25C571.957 1145.25 515.199 1145.25 458.441 1145.25C456.101 1145.25 453.66 1145.35 451.321 1145.05C446.845 1144.47 444.201 1141.65 444.099 1137.66C443.997 1133.86 446.337 1130.94 450.609 1130.07C455.084 1129.09 459.763 1129.68 464.341 1129.58C467.392 1129.48 470.444 1129.58 473.495 1129.48C475.936 1129.39 477.36 1128.41 477.462 1125.98C477.462 1125.1 477.665 1124.42 478.276 1123.84C480.615 1122.77 482.344 1121.21 483.565 1118.87C486.922 1112.26 492.109 1107.39 498.619 1103.69C520.183 1091.53 541.849 1079.56 563.413 1067.59C566.464 1065.84 568.702 1063.01 572.262 1062.04C598.098 1063.01 623.833 1062.24 649.669 1062.53C652.822 1062.53 656.179 1062.04 658.417 1065.15C661.265 1074.01 661.875 1083.06 662.078 1090.85C662.689 1080.34 663.808 1068.46 665.028 1056.59C665.842 1054.45 665.74 1052.21 665.639 1049.88C666.249 1036.64 667.775 1023.5 668.995 1010.27C670.521 993.333 671.945 976.497 673.674 959.564C674.793 948.761 675.403 937.959 676.827 927.254C676.827 926.086 676.827 924.918 676.929 923.75C678.353 913.337 678.455 902.73 680.286 892.414C680.998 890.37 680.998 888.326 680.998 886.185C681.201 866.235 695.543 852.221 716.497 851.637C719.04 851.54 721.583 851.54 724.024 851.637C730.737 851.637 737.451 851.54 744.266 851.637C747.622 851.734 749.453 850.275 750.572 847.258C756.065 832.368 761.253 817.381 766.745 802.491C766.949 801.713 767.254 800.934 767.559 800.156C768.881 795.679 768.475 795.29 763.49 794.998C749.555 794.122 735.518 793.927 721.583 794.024C719.04 794.024 715.989 794.803 714.565 791.591C730.941 770.084 739.078 744.684 750.369 720.743C758.506 703.615 764.914 685.611 773.052 668.483C780.579 652.426 795.328 637.536 820.452 638.12C831.132 638.314 841.813 638.801 852.391 639.19C864.801 637.73 877.312 638.606 889.721 638.704C890.942 638.704 891.959 639.287 892.874 640.066C897.553 640.358 902.334 641.039 907.013 640.747C930.306 639.482 950.345 656.708 952.684 681.329C952.786 682.497 952.887 683.568 952.989 684.735C954.82 686.974 954.21 689.309 953.701 691.742C951.362 702.739 948.208 713.444 945.36 724.344C943.835 730.281 942.309 736.314 940.681 742.251C935.392 762.493 929.594 782.638 927.763 803.562C926.848 813.975 923.084 823.804 918.1 833.147C914.438 840.056 909.556 845.895 902.741 851.637C911.489 851.637 919.117 851.637 926.848 851.637C938.851 851.637 950.853 851.637 962.957 851.637C969.264 851.637 969.264 851.637 970.383 845.019C976.994 803.659 983.504 762.396 990.116 721.035C990.624 717.921 990.625 714.515 993.269 711.985C994.388 704.296 995.1 696.608 996.829 689.017C999.169 678.702 1006.29 672.279 1016.87 669.164C1022.97 666.537 1029.28 667.899 1035.58 668.191C1036.19 668.191 1037.11 668.58 1037.31 669.067C1038.74 674.128 1043.21 677.339 1045.55 681.816C1043.62 683.568 1041.18 683.081 1038.84 683.178C1034.46 683.276 1030.09 683.178 1025.72 683.178C1017.58 683.373 1012.8 687.071 1011.48 694.759C1009.24 707.508 1007.61 720.257 1005.17 732.908C1005.17 733.979 1005.07 735.049 1004.86 736.12C1000.19 762.98 996.321 789.937 991.947 816.797C987.878 841.613 984.216 866.43 979.944 891.246C979.232 895.139 980.453 897.085 984.318 898.545C1004.97 906.136 1023.17 917.619 1039.14 932.217C1051.55 943.603 1062.13 956.45 1069.86 971.242C1070.37 972.702 1071.39 973.87 1072.1 975.135C1078.51 986.91 1082.98 999.367 1085.83 1012.31C1086.04 1013.38 1085.63 1014.35 1085.22 1015.23C1102.11 1099.8 1049.01 1179.7 962.245 1200.33C890.332 1217.46 812.416 1184.95 778.341 1122.38C747.724 1066.32 751.183 1011.14 786.682 957.715C786.377 955.379 787.699 953.627 789.021 951.973C818.418 915.576 856.561 893.679 904.572 888.326C922.372 886.283 940.071 887.159 957.566 890.662C962.652 891.733 963.059 891.343 963.771 886.477C964.483 881.514 965.5 876.551 966.111 871.587C966.416 869.057 965.399 867.889 962.856 867.889C961.127 867.792 959.499 867.792 957.77 867.792C925.729 867.792 893.79 867.792 861.749 867.792C816.18 868.084 770.611 867.792 725.041 867.889C722.702 867.889 720.261 867.889 717.921 867.889C705.613 868.084 699.205 873.437 697.476 885.115C697.273 886.283 697.273 887.353 697.171 888.521C696.662 902.048 694.831 915.576 693.713 929.103C693.204 935.234 692.594 941.365 692.085 947.399C691.678 950.805 691.373 953.919 689.339 956.741Z" fill="black"/>
<path d="M1087.77 639.871C1088.88 622.646 1089.9 605.323 1091.02 588.098C1092.75 559.875 1094.17 531.555 1096.21 503.333C1096.92 492.53 1103.02 484.55 1113.3 479.684C1114.82 479.003 1116.55 478.711 1117.77 477.446C1119.6 475.792 1122.15 475.792 1124.38 475.597C1132.52 474.916 1140.66 474.235 1148.69 475.986C1151.24 478.711 1150.32 482.215 1150.93 485.329C1149.41 493.893 1149.2 502.554 1148.49 511.216C1148.39 512.967 1148.49 514.816 1147.47 516.374C1146.15 517.833 1144.12 517.833 1142.39 518.417C1135.67 520.461 1131.5 524.84 1131.3 531.458C1130.89 548.489 1131 565.52 1131.3 582.453C1131.4 586.346 1133.23 589.557 1136.28 592.185C1137.81 593.45 1139.54 594.521 1140.56 596.272C1141.06 602.111 1140.15 607.853 1139.74 613.595C1138.62 629.555 1137.71 626.83 1151.13 628.096C1163.54 629.263 1176.06 630.431 1188.46 631.696C1192.94 632.183 1194.77 630.431 1194.87 626.441C1195.08 618.169 1195.69 609.994 1196.2 601.722C1197.01 588.973 1197.31 576.225 1198.64 563.476C1199.45 561.043 1199.45 558.513 1199.25 555.982C1199.35 552.576 1199.04 549.17 1199.65 545.861C1200.47 543.428 1200.47 540.995 1200.26 538.465C1200.37 535.059 1200.06 531.653 1200.67 528.344C1201.59 525.619 1201.38 522.894 1201.28 520.072C1201.38 516.666 1201.08 513.259 1201.69 509.951C1202.5 507.518 1202.5 505.085 1202.3 502.554C1202.4 499.148 1202.09 495.742 1202.71 492.433C1203.62 490 1203.42 487.47 1203.32 484.94C1203.52 482.02 1202.71 478.906 1204.74 476.278C1208.4 474.721 1212.16 474.818 1215.93 476.084C1217.76 477.933 1217.56 480.268 1217.56 482.507C1217.56 500.121 1217.56 517.833 1217.66 535.448C1217.66 539.925 1216.44 542.747 1211.45 543.915C1206.27 545.083 1203.62 548.683 1203.52 553.841C1203.52 554.328 1203.52 554.815 1203.52 555.301C1202.09 571.943 1211.45 572.235 1223.25 571.067C1227.83 570.58 1230.78 567.661 1232.2 563.379C1235.15 554.231 1231.8 546.932 1222.44 543.039C1218.78 541.482 1218.78 538.66 1218.78 535.837C1218.67 518.223 1218.67 500.511 1218.78 482.896C1218.78 480.366 1217.96 477.738 1219.39 475.305C1220.51 474.526 1221.83 474.235 1223.15 474.235C1234.54 474.332 1245.93 473.553 1257.33 474.818C1260.07 475.5 1262.92 476.278 1265.57 477.349C1289.27 486.497 1301.17 501.386 1297.61 527.76C1296.59 535.351 1296.59 542.942 1296.08 550.533C1294.66 572.04 1293.23 593.45 1292.11 614.958C1291.3 628.971 1290.08 643.083 1289.77 657.097C1289.57 668.97 1287.03 679.675 1274.82 685.903C1272.38 687.168 1271.67 689.115 1272.38 691.645C1272.69 692.618 1272.89 693.494 1273.09 694.467C1287.54 749.452 1301.47 804.632 1315.71 859.617C1325.99 899.421 1336.16 939.224 1346.43 979.027C1346.94 980.876 1347.55 982.725 1348.06 984.672C1348.47 987.981 1348.36 991.387 1349.18 994.696C1350.19 1001.02 1353.04 1006.96 1353.35 1013.38C1349.38 1015.62 1344.91 1015.62 1340.63 1015.72C1333 1015.91 1325.38 1015.91 1317.85 1015.72C1294.05 1015.23 1270.25 1016.79 1246.44 1016.98C1245.32 1009.29 1243.09 1001.7 1243.09 994.014C1243.19 968.128 1236.17 943.214 1232.61 917.911C1228.64 889.786 1223.76 861.661 1219.29 833.536C1215.83 811.931 1212.37 790.423 1208.91 768.819C1208.71 767.262 1208.6 765.412 1206.16 765.315C1204.03 763.563 1204.13 760.936 1203.72 758.6C1200.16 735.925 1196.3 713.25 1192.84 690.477C1192.43 688.141 1191.72 685.708 1192.64 683.275C1194.87 681.621 1197.52 682.108 1199.96 682.01C1203.72 681.913 1207.38 681.913 1211.15 682.01C1214.91 682.108 1216.64 680.55 1217.25 677.047C1219.39 665.855 1221.01 654.664 1223.46 643.569C1224.27 639.774 1222.44 638.898 1219.08 639.19C1209.32 640.26 1199.55 640.65 1189.79 641.428C1178.5 642.304 1167.21 642.888 1155.92 643.959C1145.34 644.932 1135.47 641.818 1125.5 639.287C1116.96 637.244 1108.52 636.368 1100.07 639.482C1097.23 640.552 1094.68 642.11 1091.73 643.083C1087.56 644.737 1086.95 643.959 1087.77 639.871Z" fill="#6DB5DE"/>
<path d="M1192.74 683.762C1195.38 699.625 1198.03 715.586 1200.57 731.449C1202.4 742.738 1204.13 754.027 1205.86 765.413C1205.35 765.705 1204.84 765.899 1204.43 766.191C1197.82 767.846 1197.42 772.712 1196.81 778.162C1193.75 804.243 1190.6 830.227 1187.35 856.211C1184.9 875.675 1182.46 895.042 1180.23 914.505C1179.92 916.938 1180.43 919.371 1180.94 921.707C1185.82 942.728 1191.01 963.651 1195.89 984.672C1196.4 987.008 1197.31 989.343 1196.4 991.776C1200.16 1008.32 1203.93 1024.96 1207.89 1041.51C1215.11 1071.97 1222.44 1102.33 1229.86 1132.79C1230.88 1136.98 1229.86 1137.95 1225.49 1137.75C1216.84 1137.46 1208.2 1137.75 1199.55 1137.85C1197.92 1139.21 1195.79 1139.21 1193.86 1139.31C1175.55 1140.19 1157.14 1140.38 1138.83 1140.38C1128.25 1140.38 1117.57 1139.9 1106.99 1140.77C1104.96 1140.97 1102.82 1140.97 1102.01 1138.53C1102.72 1137.17 1102.51 1135.71 1102.51 1134.35C1101.29 1094.64 1100.17 1054.94 1098.95 1015.23C1098.34 1014.16 1097.83 1013.09 1097.73 1011.82C1096.31 999.854 1096.31 987.884 1096.61 975.913C1096.61 974.746 1096.51 973.578 1096.51 972.313C1096 970.464 1095.5 968.517 1095.6 966.571C1096.21 948.956 1093.77 931.341 1094.58 913.727C1095.19 900.686 1096.72 887.645 1098.04 874.605C1099.97 854.46 1101.7 834.315 1103.73 814.17C1105.67 794.025 1107.4 773.88 1109.43 753.735C1110.24 746.046 1110.35 738.261 1111.77 730.573C1111.87 729.405 1111.87 728.237 1111.97 727.069C1112.89 714.223 1114.41 701.377 1115.43 688.434C1115.64 686.293 1115.74 683.86 1117.67 682.108C1119.7 680.94 1121.94 681.135 1124.08 681.037C1145.13 680.356 1166.29 681.913 1187.35 682.011C1189.18 682.108 1191.21 682.108 1192.74 683.762Z" fill="#459257"/>
<path d="M724.228 852.707C719.752 853.486 715.175 852.707 710.699 853.486C693.204 856.6 682.727 868.084 682.117 885.212C682.015 887.256 682.625 889.397 681.506 891.343C668.283 891.148 655.06 891.44 641.938 891.148C637.971 891.051 636.954 892.122 637.564 895.917C638.887 905.065 640.311 914.213 641.023 923.361C641.023 925.307 641.023 927.254 641.735 929.103C645.295 952.946 647.94 976.984 651.195 1000.83C653.127 1015.13 654.958 1029.44 656.789 1043.74C656.992 1045.69 657.399 1047.54 657.298 1049.58C657.196 1051.24 657.399 1052.89 657.908 1054.45C657.806 1058.24 660.552 1062.04 657.806 1065.84C656.687 1063.31 654.246 1063.79 652.11 1063.79C629.936 1063.79 607.863 1063.79 585.689 1063.79C580.603 1063.79 575.618 1063.69 570.533 1062.92C567.786 1059.22 568.091 1054.94 567.888 1050.85C566.769 1029.83 565.345 1008.9 564.023 987.883C563.209 974.648 562.395 961.413 561.582 948.177C560.768 934.455 560.158 920.733 558.937 907.011C558.327 900.296 559.14 893.484 557.004 886.866C558.021 899.031 558.428 911.293 559.242 923.458C560.157 936.402 560.869 949.248 561.683 962.191C562.599 976.886 563.616 991.581 564.43 1006.28C565.243 1020 566.566 1033.72 566.667 1047.44C566.769 1052.21 569.109 1056.98 566.667 1061.85C564.531 1063.79 561.988 1063.4 559.446 1063.11C544.086 1061.26 528.625 1059.51 513.164 1057.56C511.333 1057.37 509.502 1057.17 508.078 1055.81C507.468 1055.13 507.163 1054.25 506.959 1053.38C506.756 1052.21 506.858 1050.95 506.959 1049.78C508.383 1035.18 509.502 1020.49 510.825 1005.89C512.045 991.581 513.266 977.276 514.486 962.97C515.402 951.875 516.114 940.781 517.334 929.687C517.945 927.838 518.148 925.891 518.148 923.848C518.352 910.904 519.979 898.155 520.793 885.212C521.505 873.826 522.624 862.342 523.234 850.956C523.946 838.694 526.082 826.918 533.101 816.31C536.966 810.471 541.747 805.605 547.239 801.226C549.375 799.863 551.41 798.306 554.054 797.82C566.973 790.715 580.806 788.964 595.453 789.45C633.801 790.715 672.148 791.397 710.394 792.272C711.716 792.272 713.039 792.564 714.259 791.689C715.582 792.662 717.107 792.564 718.633 792.564C734.298 792.954 749.962 793.246 765.525 793.538C771.221 793.635 771.221 793.635 769.288 798.89C768.78 800.447 768.068 801.907 767.457 803.367C756.777 805.605 747.012 810.666 736.434 813.293C728.398 815.24 725.245 818.159 725.448 825.945C725.55 834.314 723.414 842.586 724.736 850.956C724.838 851.54 724.634 852.124 724.228 852.707Z" fill="#8F3600"/>
<path d="M1257.43 475.792C1244.71 475.694 1231.9 475.694 1219.18 475.597C1217.86 476.57 1216.33 475.986 1214.91 475.986C1211.55 476.278 1208.2 475.402 1204.94 476.473C1204.64 479.198 1204.13 482.02 1204.64 484.745C1203.72 487.081 1204.74 489.611 1203.93 491.947C1203.82 495.353 1203.72 498.759 1203.62 502.165C1202.7 504.501 1203.62 507.031 1202.91 509.367C1202.81 512.773 1202.7 516.179 1202.6 519.682C1201.59 522.31 1202.7 525.23 1201.89 527.857C1201.79 531.263 1201.69 534.67 1201.59 538.076C1200.67 540.411 1201.69 542.942 1200.87 545.277C1200.67 548.683 1200.06 552.09 1200.67 555.496C1199.65 557.831 1200.67 560.459 1199.96 562.795C1198.64 584.983 1197.21 607.075 1196.09 629.263C1195.89 632.864 1195.08 633.74 1191.11 633.254C1174.53 631.307 1157.85 629.75 1141.16 628.388C1137.4 628.096 1136.99 626.831 1137.4 623.619C1138.52 614.471 1139.13 605.226 1139.84 596.078C1141.16 594.423 1143.3 596.175 1145.03 594.813C1142.39 593.645 1138.83 593.45 1138.72 589.752C1140.35 568.147 1142.08 546.542 1144.32 524.938C1144.52 523.283 1144.42 521.726 1145.44 520.266C1153.07 517.639 1160.69 517.541 1167.92 521.045C1172.7 523.381 1174.63 527.857 1174.73 532.821C1175.04 548.683 1175.14 564.546 1174.73 580.409C1174.53 587.319 1170.56 592.185 1163.24 594.618C1168.93 594.131 1172.9 590.92 1174.63 585.665C1175.65 582.356 1176.05 579.047 1176.05 575.641C1176.05 562.989 1176.05 550.435 1176.05 537.784C1176.05 535.351 1175.95 532.918 1175.44 530.582C1173.82 522.894 1169.14 518.709 1161 517.931C1152.86 517.055 1152.76 516.958 1152.76 509.075C1152.76 500.219 1152.76 491.265 1152.76 482.409C1152.76 480.658 1153.27 478.809 1152.05 477.251C1151.13 476.959 1150.12 477.057 1149.3 476.473C1138.83 476.376 1128.45 476.765 1117.97 477.446C1108.62 457.788 1105.97 437.448 1110.85 416.233C1111.67 415.649 1112.38 415.746 1113.09 416.33C1115.02 420.223 1115.02 424.505 1115.94 428.592C1119.6 445.331 1130.79 454.382 1148.69 454.673C1151.54 454.771 1154.49 454.771 1157.34 454.673C1161.92 454.479 1164.25 456.62 1165.07 460.707C1165.68 463.724 1166.49 466.741 1167 469.758C1167.51 472.775 1169.14 474.235 1172.49 474.235C1179.92 474.137 1187.45 474.137 1194.87 474.235C1198.74 474.332 1199.35 472.775 1198.64 469.466C1195.99 457.788 1193.04 446.207 1188.06 435.015C1180.94 419.055 1175.14 402.608 1168.43 386.55C1161.61 370.201 1141.37 362.999 1124.89 370.59C1119.4 373.12 1116.45 377.986 1112.99 382.268C1112.48 382.56 1111.97 382.56 1111.46 382.268C1113.09 367.281 1121.43 359.593 1137.1 357.744C1144.52 356.868 1151.95 357.16 1159.37 356.965C1160.29 356.381 1161.41 356.576 1162.42 356.576C1169.34 357.549 1176.16 359.106 1182.77 361.442C1183.89 361.929 1185.01 362.513 1186.12 362.999C1191.52 365.432 1195.99 369.13 1200.57 372.731C1201.69 373.899 1202.91 374.969 1204.13 376.04C1209.01 380.322 1213.18 385.188 1216.64 390.638C1218.78 393.947 1221.62 396.088 1225.29 397.839C1237.59 403.678 1248.27 411.464 1256.11 422.461C1257.23 424.115 1258.34 425.672 1259.36 427.424C1264.96 437.643 1266.79 448.348 1264.55 459.637C1264.55 460.415 1264.35 461.194 1264.14 461.972C1261.7 466.644 1261.9 472.191 1257.43 475.792Z" fill="black"/>
<path d="M1246.14 1016.98C1246.85 1014.45 1248.99 1015.23 1250.72 1015.23C1280.32 1014.84 1309.91 1014.55 1339.41 1014.06C1343.99 1013.97 1348.47 1013.58 1353.04 1013.38C1357.42 1025.35 1359.86 1037.71 1363.21 1049.88C1370.74 1077.71 1378.06 1105.64 1385.49 1133.57C1385.79 1134.64 1386.3 1135.71 1386.71 1136.68C1387.32 1137.27 1387.32 1137.95 1386.61 1138.53C1381.42 1138.63 1376.23 1138.63 1371.05 1138.73C1369.62 1138.73 1367.49 1137.75 1367.28 1140.48C1343.58 1139.99 1319.88 1140.38 1296.18 1140.28C1290.59 1140.28 1284.99 1140.28 1279.4 1140.48C1273.91 1139.99 1268.41 1139.8 1262.92 1140.77C1258.55 1141.55 1257.43 1140.58 1257.43 1136.78C1254.99 1110.6 1252.45 1084.33 1250 1058.15C1248.68 1044.33 1247.46 1030.7 1246.14 1016.98Z" fill="#459257"/>
<path d="M689.338 956.741C690.965 939.905 692.593 922.972 694.119 906.136C694.627 900.297 695.136 894.555 695.543 888.716C697.984 886.672 701.035 887.353 703.782 887.353C741.722 887.353 779.561 887.159 817.502 887.45C833.065 887.548 845.779 882.098 856.256 871.296C857.985 869.544 859.511 867.5 861.952 866.527C896.028 866.527 930.001 866.527 964.077 866.332C967.535 866.332 968.044 867.695 967.535 870.517C966.416 876.745 965.399 882.974 964.585 889.202C964.178 892.511 962.653 893.484 959.296 892.706C944.445 889.105 929.289 888.132 914.032 888.91C877.922 890.857 845.881 902.729 817.909 924.626C805.703 934.261 795.022 945.16 786.173 957.715C785.257 956.644 784.037 956.936 782.918 956.936C752.504 956.741 722.091 956.547 691.677 956.352C691.067 956.352 690.253 956.644 689.338 956.741Z" fill="#202B6D"/>
<path d="M1102 1138.44C1105.06 1140.58 1108.31 1138.92 1111.36 1138.92C1132.01 1138.92 1152.66 1138.73 1173.31 1138.53C1182.06 1138.44 1190.91 1138.14 1199.65 1137.85C1199.55 1158.58 1199.35 1179.31 1199.45 1200.04C1199.45 1203.64 1198.84 1205 1194.57 1204.9C1143.81 1204.71 1092.95 1204.71 1042.19 1204.9C1037.72 1204.9 1037.62 1203.64 1038.53 1200.23C1040.47 1193.23 1043.72 1186.71 1049.42 1181.94C1066.71 1167.24 1084.41 1152.94 1102 1138.44Z" fill="black"/>
<path d="M993.066 711.887C989.71 732.227 986.455 752.664 983.098 773.003C980.25 790.813 977.402 808.719 974.554 826.529C973.333 834.217 972.011 841.808 970.993 849.496C970.688 851.832 969.976 852.902 967.332 852.902C945.36 852.805 923.287 852.805 901.316 852.805C901.113 852.805 900.807 852.513 900.299 852.221C900.706 851.734 901.011 851.15 901.418 850.761C918.303 837.039 924.813 818.257 926.746 798.404C928.475 780.4 933.459 763.174 937.833 745.851C942.41 727.458 947.293 709.162 951.87 690.769C952.379 688.725 952.379 686.584 952.582 684.541C969.468 687.46 982.386 695.83 990.829 710.233C991.439 711.109 991.846 711.984 993.066 711.887Z" fill="#202B6D"/>
<path d="M1192.74 683.762C1167.61 683.47 1142.49 682.302 1117.36 682.692C1110.96 685.417 1104.65 684.152 1098.24 682.789C1092.95 680.94 1087.56 682.4 1082.17 682.108C1079.02 681.913 1075.76 682.108 1072.61 682.108C1069.66 682.108 1066.71 682.108 1063.66 682.108C1061.62 682.108 1059.59 682.108 1057.55 682.108C1053.89 682.108 1050.23 682.011 1046.57 682.205C1045.96 682.205 1045.45 682.011 1045.04 681.524C1041.08 678.604 1036.91 675.879 1036.8 670.332C1036.8 668.191 1034.87 669.067 1033.65 669.067C1027.95 668.97 1022.26 669.067 1016.46 669.067C1016.56 662.06 1018.8 656.318 1025.21 652.036C1028.97 649.506 1031.11 645.127 1035.18 642.596C1046.37 635.492 1058.16 633.156 1071.29 636.66C1076.58 638.12 1082.17 638.801 1087.66 639.871C1087.76 640.942 1087.87 642.11 1087.97 643.18C1089.39 643.472 1090.31 642.596 1091.32 642.11C1102.31 635.784 1113.91 634.422 1125.91 638.412C1142.08 643.862 1158.36 642.888 1175.04 641.234C1190.5 639.677 1206.06 638.996 1221.52 637.925C1224.78 637.73 1225.9 638.12 1225.18 641.818C1222.54 654.469 1220.2 667.218 1218.06 679.967C1217.55 682.984 1216.33 684.054 1213.08 683.957C1206.26 683.665 1199.55 683.762 1192.74 683.762Z" fill="#FD9993"/>
<path d="M1196.5 991.776C1192.13 973.87 1187.75 955.963 1183.38 938.057C1182.46 934.164 1181.75 930.076 1180.43 926.281C1177.07 916.744 1179.72 907.401 1180.73 898.058C1182.77 879.568 1185.21 861.175 1187.45 842.781C1189.69 824.875 1191.92 806.871 1194.16 788.964C1194.77 784.001 1195.08 779.037 1195.69 773.977C1196.6 766.483 1196.6 766.483 1204.43 766.191C1207.79 787.31 1211.05 808.33 1214.4 829.449C1218.27 853.876 1222.24 878.205 1226.1 902.632C1229.97 926.573 1233.83 950.416 1237.7 974.356C1238.41 978.638 1238.92 983.018 1239.83 987.203C1240.65 990.609 1239.93 991.776 1236.07 991.776C1222.85 991.582 1209.72 991.776 1196.5 991.776Z" fill="#6DB5DE"/>
<path d="M1279.2 1139.8C1280.72 1138.73 1282.45 1139.02 1284.08 1139.02C1309.81 1138.92 1335.55 1138.83 1361.28 1138.73C1363.42 1138.73 1365.76 1138.24 1367.18 1140.48C1376.64 1161.5 1386.1 1182.42 1395.77 1203.74C1348.98 1203.74 1302.9 1203.74 1256.11 1203.74C1259.06 1195.46 1261.91 1187.39 1264.75 1179.41C1264.96 1178.04 1264.24 1176.58 1264.75 1175.22C1267.7 1167.05 1270.86 1158.97 1273.81 1150.89C1274.42 1149.43 1275.33 1148.07 1275.64 1146.51C1276.25 1144.47 1276.76 1142.23 1278.08 1140.48C1278.38 1140.09 1278.79 1139.9 1279.2 1139.8Z" fill="black"/>
<path d="M1112.18 382.269C1117.06 370.396 1129.98 364.362 1144.73 366.989C1156.63 369.13 1164.87 374.97 1169.34 386.161C1177.58 406.696 1185.62 427.23 1194.16 447.569C1197.52 455.55 1198.43 464.503 1200.47 472.97C1200.87 474.819 1200.47 475.597 1198.33 475.597C1188.46 475.5 1178.7 475.5 1168.83 475.597C1166.9 475.597 1166.29 474.721 1165.98 472.97C1165.17 468.493 1163.85 464.114 1163.14 459.637C1162.63 456.815 1161.61 455.55 1158.25 455.842C1153.17 456.328 1148.08 456.231 1143.1 455.452C1126.42 452.922 1117.67 444.942 1114.41 429.079C1113.5 424.797 1112.99 420.417 1112.28 416.135C1111.67 415.162 1111.87 414.384 1112.79 413.702C1113.8 412.924 1115.94 412.729 1115.43 410.88C1114.92 409.226 1112.79 410.004 1111.67 409.226C1111.46 401.732 1109.73 394.239 1110.65 386.648C1110.85 385.285 1110.65 383.436 1112.18 382.269Z" fill="#FD9993"/>
<path d="M519.166 923.945C519.267 925.405 519.674 926.865 518.86 928.227C515.606 928.616 512.452 928.325 509.197 928.325C446.845 928.325 384.492 928.325 322.139 928.325C312.781 928.325 312.781 928.325 312.781 937.472C312.781 971.534 312.781 1005.5 312.781 1039.56C312.781 1041.31 312.781 1043.16 312.883 1044.91C312.985 1047.25 314.307 1048.42 316.748 1048.51C318.782 1048.61 320.817 1048.61 322.851 1048.61C381.644 1048.61 440.436 1048.61 499.229 1048.61C502.382 1048.61 505.739 1047.93 508.485 1050.27C508.485 1051.14 508.384 1051.92 508.384 1052.8C505.739 1055.42 502.382 1054.64 499.229 1054.64C457.016 1054.74 414.905 1054.64 372.693 1054.64C355.197 1054.64 337.804 1054.64 320.308 1054.64C313.086 1054.64 312.883 1054.84 312.883 1061.65C312.883 1096.78 312.883 1132.01 312.883 1167.14C312.883 1174.83 312.985 1174.93 321.122 1174.93C419.177 1174.93 517.335 1174.93 615.39 1174.93C618.645 1174.93 622.205 1174.15 625.155 1176.49C625.46 1177.46 625.765 1178.43 625.969 1179.41C623.629 1179.31 621.188 1179.21 618.849 1179.21C517.742 1179.21 416.635 1179.21 315.528 1179.31C310.543 1179.31 309.018 1178.43 309.018 1173.28C309.221 1049.97 309.221 926.67 309.018 803.367C309.018 798.599 310.035 797.139 315.324 797.236C336.176 797.528 357.028 797.333 377.778 797.333C388.459 797.333 388.459 797.333 388.459 787.407C388.459 761.52 388.459 735.536 388.459 709.649C388.459 689.115 400.767 674.906 421.924 671.305C424.67 670.819 425.789 670.138 426.298 667.315C428.637 654.08 431.384 640.942 433.927 627.707C434.13 626.636 434.232 625.371 434.028 624.3C428.23 599.679 425.281 574.571 421.822 549.56C421.517 547.127 420.093 545.959 418.262 544.596C404.53 534.962 401.987 523.673 410.023 509.464C411.549 506.739 412.769 506.739 415.414 508.296C429.858 517.152 433.316 528.928 425.484 543.721C424.467 545.667 423.755 547.516 424.06 549.657C427.315 571.943 430.468 594.229 434.537 616.32C434.639 616.71 434.944 617.099 435.757 618.559C437.69 608.438 439.521 599.29 441.25 590.142C447.963 555.301 454.575 520.461 461.39 485.621C462.102 482.118 461.594 479.295 459.763 475.987C452.541 463.043 449.693 449.808 459.458 436.67C463.628 431.123 469.019 426.743 475.122 423.045C477.156 421.877 478.275 421.877 479.496 424.018C491.804 443.969 490.786 461.973 470.138 476.376C465.967 479.295 464.136 482.507 463.221 487.276C452.337 544.694 441.148 602.112 430.163 659.53C430.061 660.308 430.061 661.184 429.96 661.963C429.756 662.936 428.535 664.299 430.977 664.007C444.81 645.613 458.847 627.415 473.393 609.508C474.919 607.562 474.919 605.713 474.512 603.572C471.664 588.001 478.885 577.393 494.753 573.305C497.703 572.527 498.517 573.305 499.229 575.933C503.298 590.823 497.093 602.404 481.835 607.367C477.868 608.632 475.224 610.579 472.782 613.693C459.152 631.015 445.217 648.144 432.502 666.148C429.247 670.722 429.247 670.819 434.74 671.889C451.93 675.393 464.442 690.088 464.543 707.216C464.645 735.536 464.747 763.953 464.442 792.273C464.442 796.749 465.764 797.528 470.138 797.528C498.11 797.431 525.981 797.528 553.953 797.625C552.427 798.696 550.901 799.864 549.376 800.934C545.205 801.907 541.035 801.907 536.763 801.907C465.459 801.907 394.155 801.907 322.851 801.907C311.764 801.907 312.781 801.518 312.781 811.834C312.781 845.701 312.781 879.568 312.781 913.435C312.781 915.186 312.781 917.036 312.883 918.787C312.985 920.928 314.104 921.999 316.341 922.193C318.376 922.388 320.41 922.291 322.444 922.291C384.899 922.291 447.455 922.291 509.909 922.291C513.063 922.291 516.521 921.512 519.166 923.945Z" fill="#5A83AF"/>
<path d="M892.671 639.871C879.143 639.968 865.614 640.066 852.188 638.995C853.713 635.589 852.798 631.988 853.001 628.485C853.103 625.663 850.662 626.344 849.034 626.149C839.676 624.884 830.42 623.424 822.384 618.072C816.688 614.276 813.23 609.118 811.399 602.89C809.059 594.813 809.67 586.638 810.178 578.463C810.076 577.976 810.178 577.587 810.585 577.295C811.704 576.419 814.145 576.809 814.145 575.057C814.145 572.527 810.28 574.181 809.67 571.943C809.263 568.05 810.382 564.352 810.28 560.459C810.382 559.388 810.89 558.415 810.89 557.345C812.314 553.063 810.585 548.197 813.942 544.401C818.316 552.868 827.572 554.328 835.404 557.637C853.815 565.52 873.142 571.164 893.078 574.473C895.214 574.862 897.452 575.154 899.486 575.933C900.504 576.517 901.012 577.392 900.911 578.56C901.724 579.144 902.436 579.825 903.25 580.409C913.015 588.195 911.388 599.289 899.283 603.377C894.401 605.031 893.485 607.269 893.485 611.746C893.485 621.186 892.977 630.529 892.671 639.871Z" fill="#FD9993"/>
<path d="M1262.51 461.875C1262.62 461.194 1262.72 460.513 1262.82 459.831C1263.43 458.858 1264.24 457.982 1265.36 457.496C1275.33 453.408 1278.28 445.331 1278.38 435.794C1278.48 420.904 1278.38 406.014 1278.38 391.124C1278.38 372.634 1278.38 354.143 1278.38 335.75C1278.38 332.344 1278.18 328.938 1277.37 325.629C1275.03 316.578 1268.11 310.934 1258.45 310.836C1233.22 310.642 1207.99 310.642 1182.77 310.836C1170.77 310.934 1162.63 319.108 1162.53 330.689C1162.43 337.794 1162.53 344.898 1162.53 352.099C1162.53 354.046 1162.73 355.992 1161.1 357.647C1160.39 357.452 1159.58 357.16 1158.86 356.965C1158.86 347.428 1158.56 337.891 1158.76 328.256C1158.97 316.773 1168.32 307.625 1180.33 307.235C1191.52 306.944 1202.71 307.138 1213.89 307.138C1216.23 307.138 1219.29 307.527 1218.57 303.927C1217.86 300.715 1221.83 295.849 1214.81 294.681C1202.71 292.735 1194.67 282.808 1195.58 271.617C1196.6 260.133 1205.96 251.569 1218.27 251.569C1304.32 251.472 1390.37 251.472 1476.43 251.569C1488.84 251.569 1498.3 260.62 1498.7 272.395C1499.11 284.268 1490.57 293.805 1478.26 294.779C1474.6 295.071 1473.58 296.336 1473.99 299.45C1474.19 300.715 1474.19 302.078 1473.99 303.343C1473.58 306.457 1475.1 307.138 1478.05 307.138C1488.53 307.041 1499.11 307.041 1509.59 307.138C1525.86 307.235 1535.02 315.994 1535.12 331.565C1535.12 366.892 1535.12 402.219 1535.12 437.545C1535.12 453.311 1526.37 461.972 1509.89 462.07C1506.43 462.07 1504.81 462.848 1505.31 466.352C1505.52 467.812 1505.42 469.271 1505.31 470.731C1505.11 476.376 1503.69 477.641 1497.48 477.543C1491.99 477.446 1491.07 476.473 1490.97 470.634C1490.97 469.661 1490.97 468.687 1490.97 467.714C1490.97 462.459 1487.92 460.415 1482.63 462.167C1481.41 462.556 1481.11 463.238 1481.11 464.308C1481.11 466.06 1481.11 467.909 1481.11 469.661C1481.11 476.765 1477.55 479.295 1470.42 477.446C1468.19 476.862 1466.97 475.5 1466.86 473.261C1466.76 471.51 1466.76 469.661 1466.76 467.909C1466.76 462.362 1464.32 460.61 1458.63 462.07C1457.1 462.459 1456.79 463.238 1456.79 464.503C1456.79 466.254 1456.79 468.104 1456.79 469.855C1456.79 476.668 1455.57 477.738 1448.45 477.543C1444.18 477.446 1442.45 475.597 1442.45 471.607C1442.35 462.556 1442.25 462.556 1432.79 462.07C1421.3 461.389 1412.04 452.143 1411.94 440.757C1411.73 424.407 1411.84 408.058 1411.84 391.611C1411.84 371.174 1411.84 350.737 1411.84 330.397C1411.84 316.383 1421.19 307.235 1435.84 307.041C1446.52 306.944 1457.2 306.944 1467.88 307.041C1471.04 307.041 1472.15 306.068 1471.85 303.148C1471.65 301.202 1471.75 299.255 1471.85 297.309C1471.85 295.946 1471.75 294.876 1470.02 294.292C1461.27 291.275 1454.66 285.047 1447.03 280.181C1441.23 276.483 1435.64 272.395 1429.23 268.113C1432.48 266.751 1433.6 268.503 1434.93 269.378C1444.79 275.996 1454.46 282.808 1464.42 289.231C1471.65 294 1479.48 294 1486.9 289.621C1494.23 285.339 1497.38 278.624 1496.26 270.546C1495.14 262.469 1490.26 257.019 1482.22 254.294C1479.58 253.418 1476.94 253.515 1474.19 253.515C1434.42 253.515 1394.54 253.613 1354.77 253.418C1350.2 253.418 1348.87 254.391 1348.87 258.965C1348.97 381.49 1348.97 504.014 1348.97 626.539C1348.97 746.922 1348.97 867.305 1348.97 987.786C1348.97 990.024 1348.87 992.36 1348.77 994.598C1347.04 991.582 1346.94 988.175 1346.74 984.867C1345.62 979.806 1345.31 974.648 1345.31 969.49C1345.31 734.757 1345.31 499.927 1345.31 265.194C1345.31 254.878 1346.13 255.365 1335.14 255.365C1297 255.365 1258.95 255.365 1220.81 255.365C1215.42 255.365 1210.44 256.046 1206.27 259.841C1198.43 266.945 1197.42 276.872 1203.82 284.755C1209.52 291.762 1220.71 293.514 1229.05 288.258C1238.2 282.419 1246.95 275.996 1256.11 270.06C1257.63 269.086 1259.06 267.919 1260.89 267.237C1262.21 266.751 1263.63 266.459 1264.65 267.627C1265.77 268.989 1264.55 270.06 1263.63 270.936C1263.43 271.13 1263.13 271.422 1262.92 271.617C1250.82 279.597 1239.73 289.037 1226.41 295.265C1222.64 297.017 1222.34 299.645 1222.85 302.856C1223.35 306.457 1226.41 305.776 1228.85 305.776C1238.71 305.873 1248.48 305.776 1258.34 305.873C1272.48 305.97 1283.37 315.8 1283.57 329.327C1283.88 366.308 1283.88 403.192 1283.57 440.173C1283.47 450.1 1278.28 457.398 1268.82 461.68C1266.69 462.556 1264.65 463.627 1262.51 461.875Z" fill="#5882AF"/>
<path d="M900.911 578.658C900.605 578.074 900.198 577.49 899.893 576.906C898.774 574.862 897.452 572.818 901.114 571.943C906.708 575.057 908.132 574.375 908.336 568.147C908.336 566.979 908.336 565.909 908.336 564.741C908.336 445.331 908.336 325.921 908.336 206.51C908.336 197.07 908.336 197.07 898.673 197.07C810.484 197.07 722.194 197.07 634.006 197.07C625.055 197.07 625.055 197.07 625.055 205.634C625.055 325.531 625.055 445.428 625.055 565.325C625.055 574.084 625.055 574.084 634.413 574.084C689.238 574.084 744.165 574.084 798.99 574.084C802.55 574.084 806.11 573.889 809.569 573.402C811.908 574.181 811.4 575.641 810.484 577.198C810.383 577.587 810.281 578.074 810.179 578.463C749.047 578.463 687.916 578.366 626.784 578.56C622.308 578.56 621.088 577.587 621.189 573.208C621.291 448.445 621.291 323.682 621.189 199.017C621.189 194.345 622.715 193.567 627.089 193.567C720.262 193.664 813.434 193.664 906.505 193.567C911.184 193.567 912.303 194.735 912.303 199.211C912.201 323.293 912.201 447.374 912.201 571.456C912.201 578.463 912.201 578.463 905.081 578.56C903.555 578.463 902.233 578.56 900.911 578.658Z" fill="#5982AF"/>
<path d="M680.49 1053.18C680.592 1051.92 680.795 1050.56 680.897 1049.29C684.965 1048.71 685.779 1046.18 685.779 1042.67C685.779 1028.85 685.575 1014.94 686.185 1001.12C686.389 997.129 687.507 993.139 686.49 989.149C687.406 980.001 688.219 970.95 689.135 961.802C689.135 965.306 689.236 968.907 689.236 972.41C689.236 1032.07 689.135 1091.72 689.135 1151.48C688.219 1150.5 687.304 1149.43 686.389 1148.46C685.677 1145.25 685.575 1142.04 685.575 1138.83C685.575 1113.42 685.473 1087.93 685.677 1062.53C685.779 1058.05 684.965 1054.84 680.49 1053.18Z" fill="#5882AE"/>
<path d="M1386.61 1138.53C1386.61 1137.95 1386.61 1137.27 1386.71 1136.68C1402.58 1136.68 1418.65 1135.71 1434.42 1136.98C1443.47 1137.66 1452.73 1141.36 1456.69 1150.99C1459.85 1158.78 1458.83 1165.98 1453.03 1172.21C1447.03 1178.63 1439.4 1180.57 1430.96 1178.14C1422.82 1175.71 1417.74 1170.26 1416.41 1162.18C1414.99 1153.52 1418.55 1146.71 1426.08 1141.74C1427.3 1140.97 1428.72 1140.28 1429.94 1138.63C1415.4 1138.53 1400.95 1138.53 1386.61 1138.53Z" fill="#5A83AF"/>
<path d="M1265.77 1175.61C1265.67 1176.88 1266.08 1178.34 1264.75 1179.41C1263.53 1177.85 1262.01 1178.73 1260.58 1178.92C1249.29 1180.19 1239.32 1173.57 1237.09 1163.06C1234.85 1152.55 1241.05 1142.62 1251.94 1139.51C1253.87 1138.92 1256.31 1139.21 1257.33 1136.78C1257.74 1141.06 1260.89 1139.6 1263.33 1139.31C1268.62 1138.83 1273.91 1137.66 1279.1 1139.9L1278.79 1139.8C1275.74 1141.94 1272.28 1140.67 1269.13 1140.87C1271.98 1142.33 1273.91 1144.96 1276.55 1146.81C1276.35 1148.27 1275.64 1149.53 1274.62 1150.6C1272.08 1150.8 1271.37 1148.65 1269.94 1147.39C1263.53 1141.65 1255.6 1140.67 1248.58 1144.86C1241.66 1148.95 1238.61 1157.22 1241.26 1164.81C1243.6 1171.62 1251.02 1176 1259.26 1175.61C1261.5 1175.22 1263.74 1174.05 1265.77 1175.61Z" fill="#5D85B1"/>
<path d="M333.329 605.81C336.278 607.562 336.888 610.773 338.516 613.206C340.448 616.028 342.177 618.948 343.703 621.965C344.313 623.23 346.653 624.787 344.618 625.955C342.991 626.831 342.483 624.398 341.771 623.327C339.024 618.948 336.38 614.471 333.837 609.995C333.227 608.827 331.803 607.562 333.329 605.81Z" fill="#658CB5"/>
<path d="M530.049 304.997C529.439 302.467 531.27 301.007 532.287 299.353C534.83 294.973 537.577 290.691 540.323 286.409C540.73 285.728 541.238 284.949 542.256 285.144C543.069 285.339 542.967 286.02 542.866 286.701C542.561 288.453 531.982 303.732 530.049 304.997Z" fill="#658CB5"/>
<path d="M1437.27 776.799C1433.4 770.181 1429.43 763.661 1425.57 757.043C1429.64 758.114 1438.08 772.322 1437.27 776.799Z" fill="#658BB5"/>
<path d="M996.422 584.108C991.234 578.171 987.573 571.456 984.623 564.352C990.014 570.094 993.777 576.711 996.422 584.108Z" fill="#648BB4"/>
<path d="M990.014 232.592C986.047 225.974 982.182 219.357 978.012 212.35C981.877 213.128 990.828 227.629 990.014 232.592Z" fill="#658CB5"/>
<path d="M694.831 665.077C691.881 662.06 690.966 658.167 689.135 654.664C687.61 651.842 686.389 648.825 685.067 645.905C684.762 645.127 684.355 644.348 685.474 643.861C686.287 643.57 686.796 644.153 687.101 644.64C689.847 651.16 693.712 657.194 695.746 664.006C695.746 664.298 695.339 664.59 694.831 665.077Z" fill="#658BB5"/>
<path d="M401.174 222.568C395.783 216.826 392.019 210.111 389.477 202.812C394.562 208.749 398.326 215.367 401.174 222.568Z" fill="#658BB4"/>
<path d="M573.178 720.159C577.144 713.736 581.213 707.313 585.688 699.917C586.298 704.394 578.263 717.824 573.178 720.159Z" fill="#648BB4"/>
<path d="M1353.04 165.636C1352.53 166.804 1352.03 167.777 1351.52 168.848C1349.28 173.909 1347.04 178.872 1344.8 183.932C1344.4 184.808 1343.99 185.976 1342.77 185.587C1341.45 185.197 1342.06 184.03 1342.47 183.154C1345.11 177.412 1347.65 171.67 1350.3 165.928C1350.6 165.247 1351.11 164.371 1352.13 164.663C1352.53 164.663 1352.74 165.247 1353.04 165.636Z" fill="#6289B3"/>
<path d="M1060.81 404.749C1061.62 409.128 1059.59 411.269 1058.57 413.702C1056.84 417.79 1055.01 421.683 1053.18 425.77C1052.88 426.451 1052.57 427.424 1051.55 427.327C1050.74 427.23 1050.44 426.646 1050.74 425.867C1053.69 419.055 1056.23 412.243 1060.81 404.749Z" fill="#648BB4"/>
<path d="M374.729 375.164C370.964 381.295 367.2 387.426 363.333 393.558C362.927 394.141 362.316 394.433 361.604 394.044C360.79 393.655 360.892 392.974 361.299 392.39C365.165 386.259 368.929 380.225 372.796 374.094C373.508 374.483 374.118 374.775 374.729 375.164Z" fill="#638AB4"/>
<path d="M1523.93 600.944C1526.98 594.034 1529.73 586.93 1533.59 580.312C1534.2 580.507 1534.71 580.799 1535.32 580.993C1532.17 587.903 1529.12 594.813 1525.96 601.722C1525.25 601.528 1524.64 601.236 1523.93 600.944Z" fill="#638AB4"/>
<path d="M1504.09 999.464C1506.74 991.095 1510.6 984.575 1513.76 976.789C1515.08 980.779 1508.77 995.572 1504.09 999.464Z" fill="#6188B3"/>
<path d="M1111.46 409.42C1113.7 407.863 1116.04 407.474 1117.06 410.393C1117.98 412.924 1116.25 414.286 1113.5 414.286C1111.87 414.286 1112.28 415.454 1111.97 416.33C1111.46 416.33 1110.85 416.33 1110.35 416.33C1110.75 413.994 1111.06 411.658 1111.46 409.42Z" fill="#0D0808"/>
<path d="M1098.75 1012.21C1098.75 1013.19 1098.85 1014.16 1098.85 1015.13C1094.17 1014.35 1089.6 1014.16 1084.92 1015.23C1084.81 1014.35 1084.71 1013.38 1084.61 1012.51C1089.29 1009.78 1094.07 1010.17 1098.75 1012.21Z" fill="#5882AE"/>
<path d="M1112.18 382.269C1111.57 383.826 1111.06 385.285 1110.45 386.843C1110.35 385.285 1109.53 383.631 1110.96 382.269C1111.36 382.269 1111.77 382.269 1112.18 382.269Z" fill="#917674"/>
<path d="M431.078 664.104C430.773 664.785 430.163 666.05 429.756 665.564C428.535 664.493 429.145 663.228 430.061 662.06C430.366 662.839 430.671 663.423 431.078 664.104Z" fill="#D4DEEA"/>
<path d="M625.155 1176.58C623.426 1176.68 621.798 1176.78 620.069 1176.78C519.165 1176.78 418.261 1176.78 317.357 1176.88C312.373 1176.88 311.254 1175.51 311.254 1170.94C311.457 1133.57 311.457 1096.1 311.254 1058.73C311.254 1054.25 312.169 1052.7 317.255 1052.7C380.931 1052.89 444.606 1052.89 508.18 1052.89C508.18 1053.57 508.18 1054.35 508.18 1055.03C507.264 1056.79 505.332 1057.17 503.602 1057.86C478.987 1067.78 454.473 1078 429.959 1088.02C419.685 1092.21 413.785 1099.99 410.429 1109.73C408.801 1114.3 409.31 1114.98 414.498 1115.66C429.45 1117.51 444.403 1119.07 459.253 1121.11C465.56 1121.99 472.171 1121.31 477.868 1124.81C481.53 1125.3 478.681 1127.44 478.885 1128.8C479.19 1130.94 477.257 1130.75 475.732 1130.75C468.103 1130.75 460.474 1130.65 452.947 1130.75C447.759 1130.84 444.911 1133.47 445.216 1137.75C445.42 1141.06 447.251 1143.2 450.709 1143.79C452.54 1144.08 454.371 1143.98 456.304 1143.98C516.724 1143.98 577.043 1143.98 638.684 1143.98C627.901 1152.94 623.731 1163.84 625.155 1176.58Z" fill="#FEFEFE"/>
<path d="M1068.85 972.41C1049.21 937.959 1020.43 913.435 982.184 899.226C978.217 897.766 977.404 896.112 978.014 892.317C982.998 861.856 987.778 831.298 992.661 800.74C995.916 780.4 999.171 760.158 1002.43 739.818C1002.63 738.553 1003.04 737.385 1003.44 736.12C1006.7 730.962 1012.09 729.21 1017.68 729.016C1036.3 728.432 1054.91 728.821 1073.52 728.821C1077.29 728.821 1079.12 730.67 1079.12 734.271C1079.12 735.925 1079.12 737.482 1079.12 739.137C1079.12 813.878 1079.12 888.619 1079.12 963.457C1079.12 964.43 1079.12 965.403 1079.12 966.376C1078.92 973.773 1076.07 975.524 1068.85 972.41Z" fill="#FEFEFE"/>
<path d="M477.97 1124.71C455.592 1121.99 433.316 1119.17 410.938 1116.54C407.683 1116.15 407.48 1114.98 408.192 1112.55C411.752 1100.48 418.364 1091.14 431.18 1086.08C454.575 1076.83 477.665 1067.1 500.958 1057.56C503.4 1056.59 505.942 1055.91 508.485 1055.03C517.131 1057.27 526.083 1057.37 534.83 1058.63C545.307 1060.09 555.784 1060.97 566.363 1062.14C566.464 1065.25 563.515 1065.93 561.48 1067C541.442 1078.1 521.607 1089.48 501.569 1100.48C491.702 1105.93 483.87 1112.74 479.903 1123.25C479.699 1123.74 479.292 1123.94 478.784 1124.23C478.377 1124.32 478.072 1124.42 477.97 1124.71Z" fill="black"/>
<path d="M963.873 1046.96C963.873 1068.46 945.157 1086.27 922.677 1086.08C900.096 1085.88 881.889 1068.17 881.889 1046.57C881.99 1024.96 900.503 1007.44 923.186 1007.64C945.869 1007.64 963.873 1025.16 963.873 1046.96Z" fill="#FEFEFE"/>
<path d="M1097.63 681.524C1104.14 682.886 1110.75 682.302 1117.26 682.692C1115.84 697.679 1114.52 712.569 1113.09 727.556C1110.85 729.307 1108.31 728.821 1105.77 728.821C1079.32 728.821 1052.98 728.918 1026.53 728.821C1019.51 728.821 1012.7 729.307 1006.49 732.811C1005.58 733.298 1004.56 733.492 1003.54 733.103C1005.37 721.522 1007.1 709.941 1008.93 698.36C1009.24 696.414 1009.44 694.467 1009.85 692.618C1011.38 685.806 1016.46 681.816 1023.78 681.719C1030.9 681.621 1037.92 681.621 1045.04 681.621C1045.45 681.621 1045.86 681.621 1046.16 681.621C1049.82 680.94 1053.38 681.427 1057.05 681.232C1059.18 681.232 1061.32 681.232 1063.45 681.232C1066.51 681.232 1069.66 681.232 1072.71 681.232C1081.15 681.427 1089.39 680.843 1097.63 681.524Z" fill="#FEFEFE"/>
<path d="M862.053 866.527C851.678 881.027 837.539 888.813 819.027 888.813C777.933 888.813 736.839 888.716 695.644 888.716C694.932 872.853 705.918 866.138 718.327 866.235C766.236 866.722 814.144 866.527 862.053 866.527Z" fill="#8F3600"/>
<path d="M656.077 1050.36C650.788 1009.49 645.397 968.712 640.107 927.838C640.616 925.502 642.65 925.405 644.481 925.405C654.45 925.21 664.418 925.308 674.387 925.405C675.811 925.405 677.032 925.794 678.049 926.767C675.913 950.708 673.777 974.746 671.539 998.686C670.013 1015.91 668.284 1033.14 666.758 1050.26C663.3 1052.21 659.739 1052.11 656.077 1050.36Z" fill="#FEFEFE"/>
<path d="M724.227 852.708C721.684 841.905 724.024 831.2 724.837 820.495C725.143 816.116 728.601 813.196 733.179 812.515C740.604 811.347 747.216 808.136 754.133 805.703C758.406 804.146 762.78 802.978 767.459 803.367C761.864 819.035 756.27 834.606 750.777 850.275C750.064 852.221 749.251 853.194 746.911 853.097C739.384 852.805 731.755 852.805 724.227 852.708Z" fill="#FD9993"/>
<path d="M639.7 923.945C638.378 914.019 637.056 903.995 635.632 894.068C635.123 890.662 635.225 889.008 639.904 889.105C652.415 889.591 664.926 889.397 677.539 889.591C679.065 889.591 681.099 888.716 681.506 891.246C680.387 902.048 679.268 912.948 678.149 923.848C676.827 925.016 675.098 925.21 673.369 925.21C663.706 925.21 654.042 925.21 644.379 925.21C642.752 925.21 641.023 925.21 639.7 923.945Z" fill="#FEFEFE"/>
<path d="M478.58 1124.23C481.021 1114.01 487.633 1106.81 496.788 1101.65C518.148 1089.58 539.611 1077.71 560.972 1065.74C562.803 1064.67 565.04 1064.18 566.159 1062.14C565.04 1043.26 564.125 1024.38 562.904 1005.4C561.073 975.329 559.141 945.258 557.208 915.284C556.598 905.746 555.988 896.209 555.377 886.672C555.276 885.017 554.564 882.584 557.412 882.584C559.751 882.584 559.141 884.92 559.243 886.477C562.701 941.754 566.058 997.031 569.516 1052.21C569.719 1055.71 570.126 1059.32 570.533 1062.82C570.431 1064.96 568.601 1065.64 567.075 1066.52C545.104 1078.78 523.234 1091.14 501.161 1103.3C493.126 1107.68 486.718 1113.33 483.157 1121.6C482.242 1123.94 480.92 1124.71 478.58 1124.23Z" fill="#FDFDFD"/>
<path d="M680.488 1053.18C686.998 1052.41 686.998 1052.41 686.998 1058.54C686.998 1086.86 686.998 1115.27 686.998 1143.59C686.998 1145.15 687.507 1146.81 686.388 1148.36C682.929 1145.25 679.471 1142.13 674.893 1140.58C672.147 1139.6 672.757 1137.66 672.859 1135.81C674.385 1118.87 675.91 1102.04 677.436 1085.11C678.555 1074.4 679.572 1063.79 680.488 1053.18Z" fill="#FDFDFD"/>
<path d="M1003.65 733.103C1010.77 728.723 1018.6 727.556 1026.84 727.653C1055.62 727.75 1084.41 727.556 1113.19 727.556C1113.09 728.529 1113.09 729.502 1112.99 730.378C1111.06 732.032 1108.62 731.838 1106.18 731.838C1099.77 731.935 1093.26 731.935 1086.85 731.838C1082.68 731.74 1080.95 733.492 1081.25 737.385C1081.36 738.65 1081.25 740.012 1081.25 741.278C1081.25 814.656 1081.25 888.034 1081.25 961.413C1081.25 962.386 1081.25 963.359 1081.25 964.332C1081.36 970.464 1081.66 970.658 1088.27 970.853C1091.43 970.95 1094.78 970.172 1097.63 972.313C1097.63 973.383 1097.63 974.454 1097.63 975.524C1096.61 976.497 1095.29 976.887 1093.97 976.789C1086.14 976.4 1078.2 978.444 1070.57 975.427C1069.96 974.454 1069.35 973.48 1068.74 972.41C1077.39 972.994 1077.39 972.994 1077.39 964.624C1077.39 888.424 1077.39 812.126 1077.49 735.925C1077.49 731.254 1076.27 729.989 1071.39 730.086C1055.83 730.378 1040.26 730.475 1024.7 730.086C1016.77 729.891 1009.65 731.643 1003.34 736.217C1003.54 735.147 1003.54 734.173 1003.65 733.103Z" fill="#5A83B0"/>
<path d="M1070.68 975.427C1079.73 975.427 1088.68 975.427 1097.73 975.524C1098.14 987.786 1098.45 1000.05 1098.85 1012.21C1094.17 1012.31 1089.39 1012.41 1084.71 1012.51C1081.05 999.756 1076.68 987.3 1070.68 975.427Z" fill="#FEFEFE"/>
<path d="M657.705 1065.84C657.298 1061.65 656.891 1057.56 656.484 1053.38C658.315 1049.29 661.977 1051.34 664.724 1051.63C667.165 1051.82 666.351 1054.25 666.148 1056.01C665.029 1068.95 663.91 1081.8 662.689 1094.74C662.282 1094.74 661.977 1094.74 661.57 1094.84C660.35 1085.1 659.027 1075.47 657.705 1065.84Z" fill="#FBFBFB"/>
<path d="M660.146 1162.77C664.926 1162.77 668.893 1166.46 668.893 1170.94C668.995 1175.51 664.621 1179.6 659.942 1179.5C655.263 1179.41 651.5 1175.51 651.5 1171.04C651.602 1166.27 655.263 1162.67 660.146 1162.77Z" fill="#FCFCFC"/>
<path d="M686.489 989.052C687.506 990.317 687.099 991.874 687.099 993.236C687.099 1010.66 687.099 1028.17 687.099 1045.59C687.099 1050.95 686.286 1051.43 680.896 1049.19C682.829 1029.24 684.659 1009.1 686.489 989.052Z" fill="#EFF2F5"/>
<path d="M639.701 923.945C652.517 923.945 665.333 923.848 678.148 923.848C678.148 924.821 678.047 925.697 678.047 926.67C666.35 926.573 654.653 926.475 642.956 926.378C641.634 926.378 640.617 926.67 640.108 927.838C639.294 926.67 639.701 925.307 639.701 923.945Z" fill="#5881AE"/>
<path d="M666.25 1056.01C665.436 1052.11 662.791 1051.34 656.485 1053.48C655.671 1052.5 656.078 1051.43 656.18 1050.46C659.74 1050.36 663.3 1050.36 666.86 1050.26C666.758 1052.11 667.674 1054.16 666.25 1056.01Z" fill="#577FA9"/>
<path d="M1262.52 461.875C1273.5 460.221 1281.84 451.462 1281.84 440.757C1281.94 403.484 1281.94 366.211 1281.84 328.937C1281.84 317.162 1271.97 307.625 1259.67 307.235C1248.38 306.943 1236.98 306.943 1225.59 307.138C1221.83 307.235 1220.71 306.165 1220.71 302.564C1220.71 297.893 1221.02 295.265 1226.91 293.221C1236.27 290.01 1243.49 282.808 1251.73 277.456C1256.11 274.634 1260.38 271.519 1265.06 268.405C1262.01 266.653 1260.89 268.697 1259.57 269.573C1249.8 276.093 1240.34 282.808 1230.47 289.134C1217.05 297.893 1200.57 291.08 1198.03 275.899C1196.2 264.999 1205.25 254.294 1216.95 253.905C1224.27 253.71 1231.49 253.807 1238.82 253.807C1272.69 253.807 1306.56 253.905 1340.43 253.71C1345.52 253.71 1346.84 254.78 1346.84 259.744C1346.74 501.484 1346.74 743.224 1346.74 984.964C1342.46 974.94 1340.63 964.137 1337.99 953.724C1319.98 884.433 1302.29 815.045 1284.38 745.754C1279.71 727.361 1274.92 709.065 1270.25 690.672C1269.74 688.823 1268.72 686.876 1271.47 685.708C1284.59 680.161 1287.44 669.553 1287.94 657.097C1289.06 631.599 1290.69 606.101 1292.22 580.604C1293.44 560.751 1295.06 540.898 1295.98 521.045C1296.9 501.289 1286.83 487.178 1267.7 479.587C1264.24 478.225 1260.48 477.933 1257.33 475.889C1259.16 471.12 1260.79 466.449 1262.52 461.875Z" fill="#FEFEFE"/>
<path d="M1150.83 475.597C1154.8 473.943 1154.19 476.862 1154.19 478.809C1154.29 490 1154.39 501.095 1154.08 512.286C1153.98 515.79 1155.2 516.568 1158.66 516.471C1170.26 516.471 1176.67 522.602 1176.77 533.502C1176.87 549.073 1176.87 564.546 1176.77 580.118C1176.67 589.168 1171.17 595.883 1163.24 596.954C1161.71 597.148 1159.37 597.927 1158.86 595.786C1158.36 593.45 1160.59 593.548 1162.22 593.256C1168.73 592.088 1172.7 587.903 1172.8 581.577C1173 565.033 1173 548.586 1172.8 532.042C1172.7 524.938 1167.61 520.461 1160.09 520.266C1155.41 520.169 1150.63 520.364 1145.84 520.461C1144.73 521.24 1143.51 521.824 1142.28 522.31C1137.61 524.159 1135.06 527.663 1135.06 532.431C1134.86 548.781 1134.96 565.033 1135.06 581.383C1135.06 585.373 1137.5 588.39 1139.54 591.504C1140.96 593.061 1143 593.256 1145.03 593.45C1146.46 593.547 1147.78 594.131 1147.47 595.786C1147.17 597.148 1145.84 597.343 1144.62 597.148C1143 596.954 1141.37 596.564 1139.74 596.272C1132.52 592.769 1129.26 587.319 1129.47 579.436C1129.77 564.255 1129.57 549.073 1129.57 533.891C1129.57 522.991 1135.37 517.152 1146.66 516.374C1147.57 515.79 1148.29 514.914 1148.79 514.038C1149.81 512.189 1149.51 510.243 1149.41 508.296C1148.9 498.759 1150.42 489.319 1149.91 479.782C1149.71 478.322 1149.91 476.862 1150.83 475.597Z" fill="#FCFCFC"/>
<path d="M1215.93 475.792C1216.94 475.208 1218.06 474.721 1219.18 475.694C1220.1 477.543 1219.89 479.49 1219.89 481.436C1219.89 499.927 1219.89 518.32 1219.89 536.811C1219.89 539.828 1220 541.677 1224.06 542.261C1229.05 542.942 1232.41 546.153 1233.42 551.311C1234.34 555.788 1234.64 560.362 1233.22 564.741C1231.59 569.704 1227.32 572.721 1221.93 573.013C1221.73 573.013 1221.62 573.013 1221.42 573.013C1200.57 574.376 1200.87 565.617 1201.79 551.7C1202.09 546.737 1206.47 542.747 1212.37 542.163C1215.62 541.774 1216.03 540.606 1216.03 537.881C1215.93 517.542 1215.93 497.105 1215.93 476.765C1215.62 476.57 1215.52 476.376 1215.62 476.181C1215.62 475.792 1215.83 475.792 1215.93 475.792Z" fill="#FCFDFD"/>
<path d="M1149.81 516.179C1148.8 516.276 1147.68 516.276 1146.66 516.374C1147.37 506.545 1148.08 496.715 1148.8 486.886C1148.8 486.205 1148.9 485.621 1149.81 485.524C1150.73 495.742 1150.63 505.961 1149.81 516.179Z" fill="#020304"/>
<path d="M1149.81 516.179C1149.81 505.961 1149.81 495.742 1149.81 485.427C1148.69 482.507 1148.9 479.49 1148.9 476.376C1149.51 476.084 1150.22 475.792 1150.83 475.5C1150.73 487.568 1150.73 499.538 1150.63 511.605C1150.52 513.162 1151.44 514.914 1149.81 516.179Z" fill="#2D4C5D"/>
<path d="M1215.93 475.792C1216.03 476.084 1215.93 476.278 1215.83 476.57C1212.16 476.57 1208.5 476.57 1204.94 476.57C1208.4 474.527 1212.27 476.084 1215.93 475.792Z" fill="#6DB5DE"/>
<path d="M1201.89 528.052C1201.89 525.327 1201.49 522.505 1202.6 519.877C1202.4 522.602 1203.52 525.424 1201.89 528.052Z" fill="#6DB5DE"/>
<path d="M1202.91 509.561C1202.91 507.129 1202.4 504.696 1203.62 502.36C1203.42 504.696 1204.44 507.226 1202.91 509.561Z" fill="#6DB5DE"/>
<path d="M1203.93 492.044C1203.93 489.611 1203.52 487.178 1204.64 484.842C1204.43 487.275 1205.45 489.806 1203.93 492.044Z" fill="#6DB5DE"/>
<path d="M1200.87 545.569C1200.87 543.136 1200.47 540.703 1201.59 538.368C1201.38 540.703 1202.4 543.234 1200.87 545.569Z" fill="#6DB5DE"/>
<path d="M1199.86 562.989C1199.76 560.556 1199.45 558.026 1200.57 555.69C1200.26 558.123 1201.38 560.751 1199.86 562.989Z" fill="#6DB5DE"/>
<path d="M1097.63 972.313C1092.55 972.41 1087.46 972.507 1082.37 972.702C1080.54 972.799 1079.42 972.215 1079.63 970.269C1079.73 969.296 1079.63 968.323 1079.63 967.349C1079.63 890.078 1079.63 812.807 1079.53 735.536C1079.53 731.351 1080.34 729.891 1085.02 730.183C1094.27 730.67 1103.63 730.475 1112.99 730.475C1110.75 754.61 1108.41 778.843 1106.18 802.978C1102.82 838.305 1099.56 873.534 1096.21 908.861C1095.49 915.965 1096 923.069 1096.21 930.174C1096.61 944.188 1097.22 958.201 1097.63 972.313Z" fill="#FEFEFE"/>
<path d="M519.165 923.945C451.421 923.945 383.78 923.945 316.036 924.042C312.069 924.042 311.357 922.777 311.357 919.274C311.459 881.027 311.459 842.878 311.357 804.632C311.357 800.545 312.883 799.863 316.647 799.863C392.527 799.961 468.307 799.961 544.187 799.961C545.917 799.961 547.951 799.279 549.477 800.934C532.693 813.196 525.878 830.032 524.759 849.788C523.335 874.507 521.098 899.226 519.165 923.945Z" fill="#FEFEFE"/>
<path d="M508.383 1050.36C444.708 1050.36 381.136 1050.26 317.462 1050.46C312.579 1050.46 311.257 1049.29 311.359 1044.62C311.562 1007.06 311.562 969.49 311.359 931.925C311.359 927.449 312.681 926.281 317.258 926.281C382.56 926.378 447.963 926.378 513.265 926.475C515.198 926.475 517.842 925.21 518.859 928.227C515.604 967.349 512.451 1006.47 509.196 1045.59C509.095 1047.25 508.688 1048.81 508.383 1050.36Z" fill="#FEFEFE"/>
<path d="M1161.1 357.55C1161.1 347.72 1160.8 337.794 1161 327.965C1161.2 317.941 1170.56 309.377 1181.24 309.377C1193.96 309.377 1206.57 309.571 1219.29 309.571C1231.9 309.571 1244.61 309.474 1257.33 309.377C1270.55 309.28 1279.61 317.357 1279.61 330.106C1279.81 366.503 1279.81 402.998 1279.61 439.395C1279.5 450.1 1274.01 456.231 1262.82 459.832C1264.35 448.445 1262.82 437.448 1257.43 427.035C1256.31 424.116 1256.11 421.099 1256.11 417.985C1256.11 395.017 1256.11 372.05 1256.11 349.083C1256.11 342.952 1255.9 342.757 1249.6 342.757C1229.66 342.757 1209.72 342.757 1189.69 342.757C1183.89 342.757 1184.09 342.855 1183.79 348.499C1183.48 353.268 1185.31 358.231 1182.36 362.708C1175.34 360.469 1168.33 358.717 1161.1 357.55Z" fill="#FEFEFE"/>
<path d="M1254.58 423.142C1246.04 411.464 1234.54 403.289 1221.22 397.353C1218.98 396.379 1217.35 395.114 1216.13 392.973C1212.47 386.745 1207.69 381.295 1202.5 376.234C1203.42 373.607 1205.76 374.483 1207.59 374.483C1218.27 374.385 1228.85 374.483 1239.53 374.385C1227.83 374.385 1216.13 374.385 1204.44 374.385C1202.71 374.385 1201.08 374.385 1199.55 373.412C1194.77 370.201 1190.5 366.211 1185.11 363.68C1182.57 357.549 1183.79 351.224 1184.3 345.092C1184.5 342.076 1187.45 342.27 1189.89 342.27C1203.42 342.27 1216.95 342.27 1230.47 342.27C1237.59 342.27 1244.71 342.367 1251.73 342.27C1255.19 342.173 1256.51 343.633 1256.51 346.844C1256.51 370.979 1256.51 395.017 1256.41 419.152C1256.51 420.709 1257.02 422.656 1254.58 423.142Z" fill="#FEFEFE"/>
<path d="M1139.54 591.504C1135.06 589.85 1133.54 586.346 1133.54 582.259C1133.44 565.228 1133.34 548.294 1133.54 531.264C1133.64 524.743 1138.62 520.656 1145.95 520.461C1143.81 544.11 1141.68 567.758 1139.54 591.504Z" fill="#6DB5DE"/>
<path d="M1193.86 427.814C1191.72 418.471 1189.79 409.81 1187.75 401.148C1187.24 399.105 1187.55 398.034 1190.09 398.423C1191.72 398.715 1193.55 398.423 1195.18 398.813C1201.28 400.078 1206.47 402.705 1208.1 409.031C1209.62 415.162 1206.27 419.639 1201.59 423.24C1199.14 424.894 1196.6 426.159 1193.86 427.814Z" fill="#FC9993"/>
<path d="M1254.58 423.142C1256.01 421.974 1255.39 420.417 1255.39 419.055C1255.39 395.309 1255.29 371.563 1255.5 347.72C1255.5 344.022 1254.38 343.146 1250.72 343.146C1230.47 343.341 1210.13 343.341 1189.89 343.146C1186.13 343.146 1184.8 344.022 1185.11 347.72C1185.41 353.072 1185.21 358.425 1185.21 363.68C1184.3 363.291 1183.28 362.902 1182.36 362.512C1182.46 356.673 1182.67 350.834 1182.57 344.995C1182.47 342.173 1183.38 341.005 1186.53 341.005C1209.01 341.102 1231.59 341.102 1254.07 341.005C1256.62 341.005 1257.73 341.589 1257.73 344.314C1257.63 371.855 1257.53 399.396 1257.53 426.84C1256.51 425.77 1255.6 424.407 1254.58 423.142Z" fill="#5982AF"/>
<path d="M1199.55 373.51C1215.42 373.51 1231.29 373.51 1247.26 373.51C1245.93 375.943 1244 375.456 1242.37 375.456C1230.68 375.456 1218.98 375.456 1207.38 375.553C1205.76 375.553 1204.03 374.872 1202.6 376.332C1201.59 375.359 1200.57 374.483 1199.55 373.51Z" fill="#5881AE"/>
<path d="M1065.18 665.174C1065.18 655.345 1072.41 647.852 1082.58 646.781C1092.14 645.808 1101.7 645.029 1111.26 644.251C1112.89 644.154 1115.03 643.472 1115.13 646.003C1115.23 648.144 1113.19 647.754 1111.67 647.949C1102.11 648.825 1092.55 649.701 1082.98 650.674C1074.54 651.55 1069.15 657.292 1068.95 665.077C1068.95 667.024 1071.08 670.43 1067.42 670.527C1064.27 670.527 1065.79 666.829 1065.18 665.174Z" fill="#050303"/>
<path d="M1097.63 681.524C1089.29 681.524 1080.95 681.524 1072.51 681.524C1072.51 681.329 1072.51 681.135 1072.51 680.843C1079.53 680.648 1086.44 680.551 1093.46 680.356C1095.09 680.259 1096.51 680.356 1097.63 681.524Z" fill="#040302"/>
<path d="M1057.35 681.524C1053.69 681.524 1049.93 681.524 1046.26 681.524C1049.93 679.869 1053.69 680.843 1057.45 680.843C1057.76 681.037 1057.86 681.135 1057.76 681.329C1057.56 681.524 1057.45 681.524 1057.35 681.524Z" fill="#8D5552"/>
<path d="M1072.61 680.843C1072.61 681.037 1072.61 681.232 1072.61 681.524C1069.56 681.524 1066.51 681.524 1063.46 681.524C1063.46 681.329 1063.46 681.135 1063.46 680.843C1066.51 680.94 1069.56 680.843 1072.61 680.843Z" fill="#2C1B1A"/>
<path d="M1063.46 680.94C1063.46 681.135 1063.46 681.329 1063.46 681.621C1061.42 681.621 1059.39 681.621 1057.35 681.621C1057.35 681.426 1057.35 681.135 1057.35 680.94C1059.39 680.843 1061.42 680.843 1063.46 680.94Z" fill="#5C3735"/>
<path d="M1265.77 1175.61C1259.77 1177.07 1253.87 1177.75 1248.17 1174.35C1241.26 1170.06 1238.1 1164.03 1239.22 1156.25C1240.24 1149.24 1244.41 1144.37 1251.33 1142.04C1258.85 1139.41 1265.57 1141.06 1271.26 1146.51C1272.59 1147.78 1273.71 1149.14 1274.82 1150.5C1272.48 1159.07 1269.43 1167.44 1265.77 1175.61Z" fill="#FEFEFE"/>
<path d="M1276.76 1146.61C1275.54 1147.49 1274.72 1146.81 1273.91 1145.83C1271.87 1143.5 1269.43 1141.65 1265.46 1139.99C1270.65 1138.92 1274.72 1139.21 1278.89 1139.6C1278.18 1142.04 1277.47 1144.37 1276.76 1146.61Z" fill="#E8F0EC"/>
<path d="M1150.73 405.333C1150.42 407.085 1149.51 408.447 1147.47 408.35C1145.44 408.252 1144.42 407.085 1144.52 405.138C1144.52 403.387 1145.64 402.511 1147.37 402.413C1149.41 402.316 1150.42 403.484 1150.73 405.333Z" fill="#0F0909"/>
<path d="M391.104 748.674C391.104 734.855 391.002 721.133 391.104 707.411C391.307 690.964 402.903 677.339 418.974 674.128C435.655 670.819 451.828 678.604 459.151 693.689C461.389 698.263 462.305 703.226 462.305 708.287C462.305 736.509 462.305 764.634 462.406 792.857C462.406 796.263 461.796 797.625 457.727 797.625C437.079 797.431 416.431 797.431 395.783 797.625C391.917 797.625 391.002 796.555 391.002 792.954C391.307 778.162 391.104 763.369 391.104 748.674Z" fill="#FEFEFE"/>
<path d="M485.191 448.348C484.886 461.778 476.444 470.147 465.662 477.057C463.424 478.517 462.712 476.765 461.797 475.403C449.998 457.204 455.491 436.572 474.715 426.159C476.749 425.089 477.461 425.381 478.58 427.035C482.242 432.485 485.09 441.633 485.191 448.348Z" fill="#FEFEFE"/>
<path d="M498.109 583.524C498.008 594.715 491.091 603.182 480.715 605.81C478.173 606.491 477.155 605.81 476.748 603.182C474.307 590.336 479.495 581.577 492.21 576.614C495.872 575.154 497.499 575.836 497.702 579.631C497.804 581.188 498.109 582.843 498.109 583.524Z" fill="#FDFEFE"/>
<path d="M427.213 530.777C426.807 535.156 426.4 542.358 421.924 543.623C418.06 544.596 413.483 538.66 410.736 534.28C406.668 527.955 407.38 516.86 411.957 511.119C412.974 509.853 413.686 509.951 414.805 510.729C421.823 515.401 427.417 520.948 427.213 530.777Z" fill="#FEFEFE"/>
<path d="M814.145 544.888C813.433 549.365 812.721 553.842 811.907 558.221C809.873 559.681 807.431 559.584 805.092 559.584C752.708 559.584 700.425 559.584 648.041 559.584C640.921 559.584 640.107 558.805 640.107 552.09C640.107 509.27 640.107 466.547 640.107 423.726C640.107 357.16 640.107 290.497 640.107 223.931C640.107 221.985 640.107 220.038 640.107 218.092C640.107 214.491 641.837 212.739 645.702 212.739C647.431 212.739 649.058 212.739 650.788 212.739C727.991 212.739 805.295 212.739 882.498 212.739C892.975 212.739 893.077 212.739 893.077 222.666C893.077 325.045 893.077 427.522 893.077 529.901C893.077 532.14 893.28 534.475 892.67 536.714C891.449 539.244 889.517 537.979 888.093 537.103C882.905 533.989 877.209 532.334 871.004 532.237C868.665 532.237 866.325 531.556 865.206 529.123C864.494 526.398 864.8 523.673 864.8 520.851C864.8 429.176 864.8 337.502 864.8 245.828C864.8 236.485 864.8 237.848 856.662 237.848C796.243 237.848 735.721 237.848 675.301 237.848C668.385 237.848 668.385 237.848 668.385 244.563C668.385 338.475 668.385 432.485 668.385 526.398C668.385 533.502 668.385 533.599 676.115 533.599C720.158 533.599 764.202 533.599 808.143 533.599C810.991 533.599 813.941 532.918 816.484 534.865C818.01 538.66 816.586 541.872 814.145 544.888Z" fill="#FEFEFE"/>
<path d="M809.976 573.792C809.061 575.544 807.637 575.933 805.602 575.933C746.301 575.836 686.999 575.836 627.698 575.933C623.935 575.933 623.324 574.668 623.324 571.456C623.426 447.667 623.426 323.877 623.324 199.99C623.324 196.097 624.85 195.611 628.308 195.611C720.465 195.708 812.621 195.708 904.777 195.611C909.049 195.611 910.066 196.779 910.066 200.769C909.964 273.661 909.964 346.65 909.964 419.542C909.964 470.147 909.964 520.656 909.964 571.262C909.964 573.208 911.185 576.128 907.015 575.933C903.963 575.836 900.199 577.003 900.606 571.943C899.182 570.288 899.386 568.342 899.386 566.396C899.691 557.442 898.674 548.781 893.181 541.093C892.672 540.411 892.571 539.633 892.571 538.757C892.774 536.811 892.672 534.864 892.672 532.918C892.672 428.884 892.672 324.85 892.672 220.816C892.672 219.357 892.571 217.897 892.672 216.437C892.774 214.004 891.655 212.836 889.011 212.934C887.688 212.934 886.264 212.934 884.942 212.934C806.009 212.934 727.076 212.934 648.143 212.934C646.923 212.934 645.804 213.031 644.583 212.934C641.43 212.739 640.311 214.199 640.515 217.021C640.616 217.994 640.515 218.967 640.515 219.941C640.515 330.592 640.515 441.244 640.515 551.895C640.515 553.16 640.515 554.523 640.515 555.788C640.515 558.026 641.532 559.097 643.871 559.097C645.397 559.097 646.923 559.097 648.449 559.097C700.426 559.097 752.404 559.097 804.483 559.097C806.823 559.097 809.264 558.415 811.298 560.167C810.993 564.255 810.688 568.439 810.383 572.527C810.688 573.208 810.586 573.597 809.976 573.792Z" fill="#FEFEFE"/>
<path d="M893.587 539.73C901.928 549.268 900.503 560.751 900.503 571.846C899.385 573.403 900.097 575.154 899.791 576.809C870.598 572.721 843.134 563.671 816.891 550.825C813.738 549.268 814.551 547.029 814.145 544.791C814.45 541.677 815.467 538.66 816.687 535.74C816.687 534.086 817.4 532.626 818.62 531.458C822.587 527.176 827.571 525.814 833.573 526.3C843.745 527.079 853.916 527.955 864.088 528.733C865.004 528.831 865.716 529.414 866.428 529.901C869.784 531.166 873.446 530.582 876.905 531.069C882.499 531.945 887.28 534.475 891.756 537.589C892.773 537.881 892.976 539.049 893.587 539.73Z" fill="black"/>
<path d="M893.585 539.731C892.873 539.049 892.263 538.368 891.551 537.687C891.551 431.025 891.551 324.461 891.653 217.8C891.653 214.491 890.534 213.81 887.279 213.81C806.821 213.907 726.363 213.907 645.905 213.81C642.243 213.81 641.429 214.783 641.429 218.189C641.531 330.009 641.531 441.828 641.429 553.647C641.429 557.929 643.158 558.221 646.718 558.221C699.611 558.124 752.402 558.124 805.295 558.124C807.533 558.124 809.669 558.221 811.907 558.221C811.703 558.902 811.5 559.584 811.296 560.265C755.962 560.265 700.527 560.168 645.192 560.362C640.717 560.362 639.293 559.486 639.293 554.912C639.395 442.509 639.395 330.009 639.293 217.605C639.293 212.837 640.615 211.766 645.498 211.766C726.261 211.961 807.024 211.961 887.889 211.766C892.772 211.766 893.992 212.934 893.992 217.605C893.89 323.585 893.891 429.468 893.891 535.449C893.789 536.908 893.687 538.271 893.585 539.731Z" fill="#5882AE"/>
<path d="M809.977 573.792C810.18 573.403 810.282 573.014 810.485 572.624C812.214 571.748 813.943 571.359 815.366 573.111C816.282 574.181 816.282 575.446 815.366 576.614C813.943 578.366 812.214 577.879 810.485 577.198C810.282 576.128 810.078 574.96 809.977 573.792Z" fill="#0E0C0C"/>
<path d="M846.798 577.587C844.459 577.198 843.645 576.03 843.747 574.084C843.848 572.332 845.069 571.456 846.798 571.553C848.73 571.651 850.052 572.527 849.849 574.57C849.645 576.419 848.425 577.49 846.798 577.587Z" fill="#0A0606"/>
<path d="M1414.07 384.701C1414.07 366.697 1414.07 348.791 1414.07 330.787C1414.07 317.649 1422.82 309.376 1436.65 309.376C1461.37 309.376 1485.99 309.376 1510.7 309.376C1523.93 309.376 1532.78 317.746 1532.88 330.3C1532.98 366.697 1532.98 403.192 1532.88 439.589C1532.88 450.975 1524.23 459.637 1512.94 460.123C1502.97 460.513 1502.97 460.513 1502.87 470.439C1502.77 475.402 1501.45 476.376 1496.46 475.694C1494.43 475.402 1493.51 474.429 1493.41 472.58C1493.41 471.607 1493.41 470.634 1493.41 469.661C1493.31 459.345 1492.9 459.053 1481.92 460.123C1479.68 460.318 1478.97 461.194 1479.07 463.14C1479.17 465.379 1478.97 467.714 1479.07 469.953C1479.27 473.553 1478.46 475.792 1473.88 475.792C1469.41 475.792 1468.9 473.553 1469.1 470.244C1469.1 470.05 1469.1 469.953 1469.1 469.758C1469 459.15 1469 459.15 1457.81 460.123C1455.67 460.318 1454.76 460.902 1454.76 463.043C1454.86 465.768 1454.66 468.59 1454.76 471.315C1454.86 474.721 1453.13 475.792 1449.78 475.792C1446.42 475.792 1444.79 474.818 1444.79 471.412C1444.79 467.909 1446.42 463.432 1443.98 461.097C1441.54 458.761 1436.86 460.513 1433.2 460.221C1422.41 459.442 1414.28 450.781 1414.28 439.784C1414.07 421.293 1414.07 402.997 1414.07 384.701Z" fill="#FEFEFE"/>
<path d="M1436.96 1176.78C1426.58 1176.78 1418.24 1168.8 1418.24 1158.97C1418.24 1149.04 1427.09 1140.67 1437.27 1140.77C1447.54 1140.87 1455.88 1148.95 1455.88 1158.78C1455.98 1168.99 1447.74 1176.78 1436.96 1176.78Z" fill="#FEFEFE"/>
<path d="M1217.76 545.57C1227.63 545.57 1230.07 548.003 1230.07 557.734C1230.07 566.785 1227.42 569.023 1216.95 569.023C1207.08 569.023 1205.45 567.272 1205.45 556.469C1205.45 547.419 1207.59 545.57 1217.76 545.57Z" fill="#6DB5DE"/>
<path d="M499.228 871.587C493.329 871.587 488.955 867.403 489.056 861.758C489.158 856.308 493.939 851.832 499.534 852.026C504.925 852.124 509.4 856.6 509.502 861.758C509.502 867.305 505.128 871.587 499.228 871.587Z" fill="#5E86B1"/>
<path d="M499.229 998.005C493.329 998.005 488.955 993.82 489.056 988.175C489.158 982.823 494.041 978.249 499.534 978.443C505.129 978.638 509.707 983.309 509.503 988.759C509.3 993.917 504.824 998.005 499.229 998.005Z" fill="#5E86B1"/>
<path d="M1220.71 362.999C1241.78 362.999 1258.85 362.607 1258.85 362.123C1258.85 361.64 1241.78 361.248 1220.71 361.248C1199.64 361.248 1182.56 361.64 1182.56 362.123C1182.56 362.607 1199.64 362.999 1220.71 362.999Z" fill="#5882AF"/>
<path d="M818.418 533.015C817.807 533.988 817.197 534.864 816.587 535.837C814.857 534.378 812.722 535.059 810.687 535.059C764.61 535.059 718.532 534.962 672.454 535.156C667.775 535.156 666.656 533.988 666.656 529.512C666.758 433.75 666.758 337.988 666.656 242.227C666.656 237.847 667.775 236.582 672.454 236.582C735.315 236.777 798.176 236.679 860.935 236.679C863.987 236.679 866.326 236.387 866.326 240.767C866.224 337.21 866.225 433.555 866.123 529.998C865.411 529.998 864.699 529.998 863.987 529.998C861.749 527.371 862.359 524.159 862.359 521.142C862.359 454.09 862.359 387.037 862.359 319.984C862.359 296.141 862.359 272.395 862.359 248.552C862.359 241.156 862.156 240.961 854.425 240.961C795.633 240.961 736.943 240.961 678.15 240.961C670.725 240.961 670.522 241.059 670.522 248.358C670.522 340.227 670.522 431.998 670.522 523.867C670.522 531.361 670.623 531.458 678.455 531.458C722.092 531.458 765.83 531.458 809.568 531.458C812.62 531.361 815.875 530.68 818.418 533.015Z" fill="#5983AF"/>
<path d="M818.418 533.016C770.611 533.016 722.905 532.918 675.097 533.113C669.706 533.113 668.893 531.653 668.893 526.982C668.994 432.972 668.994 339.059 668.893 245.049C668.893 240.378 670.012 239.21 674.894 239.21C736.23 239.405 797.566 239.307 858.902 239.307C862.36 239.307 864.293 239.405 864.293 243.784C864.09 339.254 864.191 434.626 864.191 530.096C854.121 529.415 843.949 529.025 833.981 527.955C827.674 527.176 822.589 528.636 818.418 533.016Z" fill="#FEFEFE"/>
<path d="M1510.81 384.604C1510.81 397.547 1510.71 410.491 1510.91 423.434C1511.01 426.938 1510.2 428.203 1506.23 428.203C1484.36 428.008 1462.59 428.008 1440.72 428.203C1436.96 428.203 1435.74 427.132 1435.74 423.531C1435.84 397.645 1435.84 371.758 1435.74 345.774C1435.74 342.27 1436.76 341.005 1440.62 341.102C1462.49 341.297 1484.26 341.297 1506.13 341.102C1509.99 341.102 1511.01 342.173 1510.91 345.774C1510.71 358.717 1510.81 371.66 1510.81 384.604Z" fill="#5C85B0"/>
<path d="M507.162 861.953C507.06 866.235 503.5 869.544 498.923 869.447C494.753 869.349 491.295 866.04 491.193 861.953C491.092 857.866 494.855 854.459 499.33 854.557C503.704 854.557 507.264 858.06 507.162 861.953Z" fill="#FCFDFD"/>
<path d="M507.162 988.37C507.162 992.652 503.5 995.961 499.025 995.864C494.652 995.766 491.397 992.555 491.295 988.468C491.193 984.283 494.855 980.974 499.432 981.071C503.704 981.071 507.162 984.38 507.162 988.37Z" fill="#FDFDFD"/>
<path d="M743.35 392.584C740.807 392.584 738.264 392.681 735.721 392.584C732.873 392.389 728.906 393.849 727.482 391.806C725.549 388.886 726.77 384.896 726.973 381.392C727.075 378.862 729.415 379.641 730.839 379.641C738.976 379.543 747.113 379.446 755.149 379.641C758.607 379.738 759.93 378.765 759.828 375.359C759.624 367.768 759.929 360.177 759.726 352.586C759.624 349.374 760.438 348.012 764.202 348.109C773.458 348.207 773.458 348.012 773.458 357.16C773.458 363.194 773.661 369.13 773.356 375.164C773.153 378.667 774.17 380.03 778.137 379.835C786.274 379.543 794.411 379.835 802.447 379.738C805.193 379.738 806.211 380.419 806.312 383.241C806.617 392.876 806.719 392.876 796.649 392.876C790.241 392.876 783.833 392.973 777.323 392.779C774.17 392.681 773.254 393.752 773.254 396.671C773.458 404.554 773.153 412.534 773.356 420.417C773.458 423.337 772.441 424.31 769.389 424.31C759.624 424.407 759.624 424.505 759.624 415.259C759.624 408.934 759.523 402.608 759.624 396.282C759.726 393.557 758.607 392.584 755.759 392.681C751.792 392.681 747.52 392.584 743.35 392.584Z" fill="#5E86B1"/>
<path d="M1438.39 384.604C1438.39 372.147 1438.49 359.69 1438.28 347.234C1438.28 344.411 1439 343.341 1442.25 343.341C1463.1 343.438 1483.95 343.438 1504.7 343.341C1507.86 343.341 1508.67 344.217 1508.67 347.136C1508.57 372.245 1508.57 397.353 1508.67 422.461C1508.67 425.673 1507.45 426.159 1504.5 426.159C1483.85 426.062 1463.2 426.062 1442.56 426.159C1439.2 426.159 1438.18 425.283 1438.28 422.072C1438.49 409.518 1438.39 397.061 1438.39 384.604Z" fill="#FEFEFE"/>
<path d="M762.372 365.821C762.372 361.637 762.576 357.355 762.372 353.17C762.169 349.764 764.407 350.153 766.644 350.153C768.984 350.153 770.917 350.056 770.815 353.267C770.611 361.345 770.917 369.422 770.713 377.5C770.611 380.906 771.73 382.074 775.291 381.976C783.53 381.782 791.871 382.074 800.212 381.879C803.874 381.782 804.179 383.436 804.281 386.258C804.383 389.275 803.264 390.151 800.212 390.054C791.769 389.859 783.326 390.151 774.782 389.957C771.73 389.859 770.713 390.735 770.713 393.752C770.917 401.829 770.611 409.907 770.815 417.984C770.917 421.488 769.289 421.877 766.339 421.877C763.186 421.974 762.27 420.904 762.372 417.984C762.576 409.907 762.27 401.829 762.474 393.655C762.576 390.638 761.558 389.762 758.405 389.762C750.267 389.957 742.13 389.762 733.992 389.859C731.042 389.859 729.008 389.957 728.906 385.966C728.906 381.782 730.941 381.684 734.196 381.782C742.333 381.879 750.471 381.782 758.608 381.879C761.457 381.879 762.576 381.101 762.372 378.278C762.27 374.288 762.372 370.103 762.372 365.821Z" fill="#FEFEFE"/>
<path d="M1473.88 362.902C1495.01 362.902 1512.13 362.553 1512.13 362.123C1512.13 361.693 1495.01 361.345 1473.88 361.345C1452.76 361.345 1435.64 361.693 1435.64 362.123C1435.64 362.553 1452.76 362.902 1473.88 362.902Z" fill="#5882AF"/>
<path d="M1446.93 373.802C1464.83 373.802 1482.73 373.802 1500.63 373.802C1500.63 374.191 1500.63 374.483 1500.63 374.872C1482.73 374.872 1464.83 374.872 1446.93 374.872C1447.03 374.483 1446.93 374.191 1446.93 373.802Z" fill="#5882AE"/>
<path d="M1481.41 383.728C1487.82 383.728 1494.33 383.728 1500.74 383.728C1500.74 384.117 1500.74 384.409 1500.74 384.799C1494.33 384.799 1487.82 384.799 1481.41 384.799C1481.41 384.409 1481.41 384.02 1481.41 383.728Z" fill="#5A83B0"/>
</svg>
