<svg width="43" height="40" viewBox="0 0 43 40" fill="none" xmlns="http://www.w3.org/2000/svg">
<path d="M39.2857 31.4286H0.714233V12.8571C0.714233 11.2792 1.99343 10 3.57138 10H36.4285C38.0065 10 39.2857 11.2792 39.2857 12.8571V31.4286Z" fill="#463C4B"/>
<path d="M36.4285 31.4286H0.714233V12.8571C0.714233 11.2792 1.99343 10 3.57138 10H33.5714C35.1493 10 36.4285 11.2792 36.4285 12.8571V31.4286Z" fill="#555A6E"/>
<path d="M3.57138 35H36.4285C38.0065 35 39.2857 33.7208 39.2857 32.1429V31.4286H0.714233V32.1429C0.714233 33.7208 1.99343 35 3.57138 35Z" fill="#A5C3DC"/>
<path d="M33.5714 35H3.57138C1.99343 35 0.714233 33.7208 0.714233 32.1429V31.4286H36.4285V32.1429C36.4285 33.7208 35.1493 35 33.5714 35Z" fill="#D7E6F0"/>
<path d="M15.7142 35H22.1428V37.8571H15.7142V35Z" fill="#A5C3DC"/>
<path d="M15.7142 36.4286H19.9999V37.8572H15.7142V36.4286Z" fill="#D7E6F0"/>
<path d="M25.7143 40H11.4286V39.2857C11.4286 38.4967 12.0681 37.8572 12.8572 37.8572H24.2857C25.0747 37.8572 25.7143 38.4967 25.7143 39.2857V40Z" fill="#D7E6F0"/>
<path d="M25.7143 40H21.4286V39.2857C21.4286 38.4967 22.0681 37.8572 22.8572 37.8572H24.2857C25.0747 37.8572 25.7143 38.4967 25.7143 39.2857V40Z" fill="#A5C3DC"/>
<path d="M17.8572 7.14286C19.8296 7.14286 21.4286 5.54387 21.4286 3.57143C21.4286 1.59898 19.8296 0 17.8572 0C15.8847 0 14.2858 1.59898 14.2858 3.57143C14.2858 5.54387 15.8847 7.14286 17.8572 7.14286Z" fill="#5FAA46"/>
<path d="M17.8572 0C15.8848 0 14.2858 1.59902 14.2858 3.57143H16.2699C17.1466 3.57143 17.8572 2.8608 17.8572 1.98411V0Z" fill="#91C83C"/>
<path d="M28.5714 7.14286C30.5439 7.14286 32.1429 5.54387 32.1429 3.57143C32.1429 1.59898 30.5439 0 28.5714 0C26.599 0 25 1.59898 25 3.57143C25 5.54387 26.599 7.14286 28.5714 7.14286Z" fill="#5FAA46"/>
<path d="M28.5714 0C26.599 0 25 1.59902 25 3.57143H26.9841C27.8608 3.57143 28.5714 2.8608 28.5714 1.98411V0Z" fill="#91C83C"/>
<path d="M39.2857 7.14286C41.2581 7.14286 42.8571 5.54387 42.8571 3.57143C42.8571 1.59898 41.2581 0 39.2857 0C37.3132 0 35.7142 1.59898 35.7142 3.57143C35.7142 5.54387 37.3132 7.14286 39.2857 7.14286Z" fill="#5FAA46"/>
<path d="M39.2857 0C37.3133 0 35.7142 1.59902 35.7142 3.57143H37.6983C38.575 3.57143 39.2857 2.8608 39.2857 1.98411V0Z" fill="#91C83C"/>
<path d="M17.8572 17.8571C19.8296 17.8571 21.4286 16.2581 21.4286 14.2857C21.4286 12.3132 19.8296 10.7142 17.8572 10.7142C15.8847 10.7142 14.2858 12.3132 14.2858 14.2857C14.2858 16.2581 15.8847 17.8571 17.8572 17.8571Z" fill="#5FAA46"/>
<path d="M17.8572 10.7142C15.8848 10.7142 14.2858 12.3133 14.2858 14.2857H16.2699C17.1465 14.2857 17.8572 13.575 17.8572 12.6983V10.7142Z" fill="#91C83C"/>
<path d="M28.5714 17.8571C30.5439 17.8571 32.1429 16.2581 32.1429 14.2857C32.1429 12.3132 30.5439 10.7142 28.5714 10.7142C26.599 10.7142 25 12.3132 25 14.2857C25 16.2581 26.599 17.8571 28.5714 17.8571Z" fill="#FAA019"/>
<path d="M28.5714 10.7142C26.599 10.7142 25 12.3133 25 14.2857H26.9841C27.8607 14.2857 28.5714 13.575 28.5714 12.6983V10.7142Z" fill="#FFD205"/>
<path d="M39.2857 17.8571C41.2581 17.8571 42.8571 16.2581 42.8571 14.2857C42.8571 12.3132 41.2581 10.7142 39.2857 10.7142C37.3132 10.7142 35.7142 12.3132 35.7142 14.2857C35.7142 16.2581 37.3132 17.8571 39.2857 17.8571Z" fill="#5FAA46"/>
<path d="M39.2857 10.7142C37.3133 10.7142 35.7142 12.3133 35.7142 14.2857H37.6983C38.5749 14.2857 39.2857 13.575 39.2857 12.6983V10.7142Z" fill="#91C83C"/>
<path d="M17.8572 28.5714C19.8296 28.5714 21.4286 26.9725 21.4286 25C21.4286 23.0276 19.8296 21.4286 17.8572 21.4286C15.8847 21.4286 14.2858 23.0276 14.2858 25C14.2858 26.9725 15.8847 28.5714 17.8572 28.5714Z" fill="#5FAA46"/>
<path d="M17.8572 21.4286C15.8848 21.4286 14.2858 23.0276 14.2858 25H16.2699C17.1465 25 17.8572 24.2894 17.8572 23.4127V21.4286Z" fill="#91C83C"/>
<path d="M28.5714 28.5714C30.5439 28.5714 32.1429 26.9725 32.1429 25C32.1429 23.0276 30.5439 21.4286 28.5714 21.4286C26.599 21.4286 25 23.0276 25 25C25 26.9725 26.599 28.5714 28.5714 28.5714Z" fill="#5FAA46"/>
<path d="M28.5714 21.4286C26.599 21.4286 25 23.0276 25 25H26.9841C27.8607 25 28.5714 24.2894 28.5714 23.4127V21.4286Z" fill="#91C83C"/>
<path d="M39.2857 28.5714C41.2581 28.5714 42.8571 26.9725 42.8571 25C42.8571 23.0276 41.2581 21.4286 39.2857 21.4286C37.3132 21.4286 35.7142 23.0276 35.7142 25C35.7142 26.9725 37.3132 28.5714 39.2857 28.5714Z" fill="#5FAA46"/>
<path d="M39.2857 21.4286C37.3133 21.4286 35.7142 23.0276 35.7142 25H37.6983C38.5749 25 39.2857 24.2894 39.2857 23.4127V21.4286Z" fill="#91C83C"/>
<path d="M11.4286 37.1429C12.2175 37.1429 12.8571 36.5033 12.8571 35.7143C12.8571 34.9254 12.2175 34.2858 11.4286 34.2858C10.6396 34.2858 10 34.9254 10 35.7143C10 36.5033 10.6396 37.1429 11.4286 37.1429Z" fill="#D7E6F0"/>
<path d="M11.4286 34.2858V37.1429C12.2176 37.1429 12.8572 36.5034 12.8572 35.7143C12.8572 34.9253 12.2176 34.2858 11.4286 34.2858Z" fill="#A5C3DC"/>
<path d="M12.8571 25.7142H10C4.47714 25.7142 0 21.2371 0 15.7142C0 10.1914 4.47714 5.71423 10 5.71423H12.8571C18.38 5.71423 22.8571 10.1914 22.8571 15.7142C22.8571 21.2371 18.38 25.7142 12.8571 25.7142Z" fill="#23AAE6"/>
<path d="M10 25.7142C15.5228 25.7142 20 21.2371 20 15.7142C20 10.1914 15.5228 5.71423 10 5.71423C4.47715 5.71423 0 10.1914 0 15.7142C0 21.2371 4.47715 25.7142 10 25.7142Z" fill="#5AD7FF"/>
<path d="M10 22.8571C13.9449 22.8571 17.1429 19.6592 17.1429 15.7143C17.1429 11.7694 13.9449 8.57141 10 8.57141C6.05514 8.57141 2.85718 11.7694 2.85718 15.7143C2.85718 19.6592 6.05514 22.8571 10 22.8571Z" fill="#D7E6F0"/>
<path d="M10 25.7142H12.8571V27.1428H10V25.7142Z" fill="#D7E6F0"/>
<path d="M10 25.7142V26.4285H10.7143C11.1088 26.4285 11.4286 26.7483 11.4286 27.1428H12.8571V25.7142H10Z" fill="#A5C3DC"/>
<path d="M12.8572 35.7143H10.0001C9.60559 35.7143 9.28577 35.3944 9.28577 35V27.8571C9.28577 27.4626 9.60559 27.1428 10.0001 27.1428H12.8572C13.2517 27.1428 13.5715 27.4626 13.5715 27.8571V35C13.5715 35.3944 13.2517 35.7143 12.8572 35.7143Z" fill="#5AD7FF"/>
<path d="M12.8572 35.7143H11.4286V27.1428H12.8572C13.2516 27.1428 13.5714 27.4626 13.5714 27.8571V35C13.5714 35.3944 13.2516 35.7143 12.8572 35.7143Z" fill="#23AAE6"/>
<path d="M13.5714 20H6.42852C6.03405 20 5.71423 19.6802 5.71423 19.2857V12.1429C5.71423 11.7484 6.03405 11.4286 6.42852 11.4286H13.5714C13.9658 11.4286 14.2857 11.7484 14.2857 12.1429V19.2857C14.2857 19.6802 13.9658 20 13.5714 20ZM7.1428 18.5714H12.8571V12.8572H7.1428V18.5714Z" fill="#5FAA46"/>
<path d="M10.7143 17.1429H9.2857C8.89123 17.1429 8.57141 16.8231 8.57141 16.4286V15.0001C8.57141 14.6056 8.89123 14.2858 9.2857 14.2858H10.7143C11.1087 14.2858 11.4286 14.6056 11.4286 15.0001V16.4286C11.4286 16.8231 11.1087 17.1429 10.7143 17.1429Z" fill="#FAA019"/>
</svg>
