<svg width="38" height="40" viewBox="0 0 38 40" fill="none" xmlns="http://www.w3.org/2000/svg">
<path d="M0.664097 27.3334C0.295398 27.3348 -0.00211429 27.6353 1.13194e-05 28.0039V36.6681C1.13194e-05 38.5032 1.49566 40 3.33086 40H34.0012C35.8364 40 37.3333 38.5032 37.3333 36.6681V28.0039C37.3354 27.6353 37.0379 27.3348 36.6692 27.3334H0.664097Z" fill="#5299D3"/>
<path d="M0.664074 27.3334C0.295375 27.3349 -0.00212675 27.6353 1.14539e-05 28.0039V35.3334C1.14539e-05 37.1685 1.49554 38.6654 3.33074 38.6654H29.3333C29.5108 38.6654 29.6809 38.5946 29.806 38.4688L37.3333 30.9414V28.0039C37.3355 27.6353 37.038 27.3349 36.6693 27.3334H0.664074Z" fill="#3587CB"/>
<path d="M3.33084 3.33337C1.49565 3.33337 0 4.82892 0 6.664V34.0003C0 35.8353 1.49565 37.3322 3.33084 37.3322H28.6663C28.8438 37.3322 29.0139 37.2614 29.139 37.1356L37.1367 29.1384C37.2625 29.0133 37.3333 28.8432 37.3333 28.6658V6.664C37.3333 4.82892 35.8364 3.33337 34.0012 3.33337C24.5694 3.33337 12.5959 3.33337 3.33084 3.33337Z" fill="#EEEEEE"/>
<path d="M3.33073 3.33337C1.49553 3.33337 0 4.82902 0 6.6641V34C0 35.8351 1.49553 37.3321 3.33073 37.3321H4.66406C2.82886 37.3321 1.33333 35.8351 1.33333 34V6.6641C1.33333 4.82902 2.82886 3.33337 4.66406 3.33337H3.33073Z" fill="#D0D0D0"/>
<path d="M3.33084 3.33337C1.49565 3.33337 0 4.82892 0 6.664V9.336C0.00146369 9.70213 0.297929 9.99858 0.664085 10H36.6692C37.0354 9.99858 37.3319 9.70213 37.3333 9.336V6.664C37.3333 4.82892 35.8364 3.33337 34.0012 3.33337H3.33084Z" fill="#FFCA28"/>
<path d="M8.66568 0C7.56917 0 6.66821 0.9009 6.66821 1.99733V4.66522C6.66821 5.76166 7.56917 6.66776 8.66568 6.66776C9.76218 6.66776 10.6644 5.76166 10.6644 4.66522V1.99733C10.6644 0.9009 9.76218 0 8.66568 0Z" fill="#5299D3"/>
<path d="M5.3348 11.9983C4.60764 11.9983 4.00012 12.6045 4.00012 13.3316V15.9982C4.00012 16.7253 4.60764 17.3328 5.3348 17.3328H7.99635C8.72351 17.3328 9.32973 16.7253 9.32973 15.9982V13.3316C9.32973 12.6045 8.72351 11.9983 7.99635 11.9983H5.3348Z" fill="#FFCA28"/>
<path d="M13.3312 11.9983C12.604 11.9983 11.9978 12.6045 11.9978 13.3316V15.9982C11.9978 16.7253 12.604 17.3328 13.3312 17.3328H15.9992C16.7264 17.3328 17.3326 16.7253 17.3326 15.9982V13.3316C17.3326 12.6045 16.7264 11.9983 15.9992 11.9983H13.3312Z" fill="#FFCA28"/>
<path d="M21.3341 11.9983C20.607 11.9983 20.0007 12.6045 20.0007 13.3316V15.9982C20.0007 16.7253 20.6069 17.3328 21.3341 17.3328H24.0009C24.728 17.3328 25.3356 16.7253 25.3356 15.9982V13.3316C25.3356 12.6045 24.728 11.9983 24.0009 11.9983H21.3341Z" fill="#FFCA28"/>
<path d="M29.3304 11.9983C28.6033 11.9983 27.9971 12.6045 27.9971 13.3316V15.9982C27.9971 16.7253 28.6033 17.3328 29.3304 17.3328H31.9985C32.7257 17.3328 33.3319 16.7253 33.3319 15.9982V13.3316C33.3319 12.6045 32.7257 11.9983 31.9985 11.9983H29.3304Z" fill="#FFCA28"/>
<path d="M5.3348 19.9994C4.60764 19.9994 4.00012 20.6069 4.00012 21.334V24.0006C4.00012 24.7277 4.60764 25.3339 5.3348 25.3339H7.99635C8.72351 25.3339 9.32973 24.7277 9.32973 24.0006V21.334C9.32973 20.6069 8.72351 19.9994 7.99635 19.9994H5.3348Z" fill="#FFCA28"/>
<path d="M13.3312 19.9994C12.604 19.9994 11.9978 20.6069 11.9978 21.334V24.0006C11.9978 24.7277 12.604 25.3339 13.3312 25.3339H15.9992C16.7264 25.3339 17.3326 24.7277 17.3326 24.0006V21.334C17.3326 20.6069 16.7264 19.9994 15.9992 19.9994H13.3312Z" fill="#FFCA28"/>
<path d="M29.3304 19.9994C28.6033 19.9994 27.9971 20.6069 27.9971 21.334V24.0006C27.9971 24.7277 28.6033 25.3339 29.3304 25.3339H31.9985C32.7257 25.3339 33.3319 24.7277 33.3319 24.0006V21.334C33.3319 20.6069 32.7257 19.9994 31.9985 19.9994H29.3304Z" fill="#FFCA28"/>
<path d="M5.3348 28.0017C4.60764 28.0017 4.00012 28.6027 4.00012 29.3298V31.9977C4.00012 32.7248 4.60764 33.331 5.3348 33.331H7.99635C8.72351 33.331 9.32973 32.7248 9.32973 31.9977V29.3298C9.32973 28.6027 8.72351 28.0017 7.99635 28.0017H5.3348Z" fill="#FFCA28"/>
<path d="M13.3312 28.0017C12.604 28.0017 11.9978 28.6027 11.9978 29.3298V31.9977C11.9978 32.7248 12.604 33.331 13.3312 33.331H15.9992C16.7264 33.331 17.3326 32.7248 17.3326 31.9977V29.3298C17.3326 28.6027 16.7264 28.0017 15.9992 28.0017H13.3312Z" fill="#FFCA28"/>
<path d="M21.3341 28.0017C20.607 28.0017 20.0007 28.6027 20.0007 29.3298V31.9977C20.0007 32.7248 20.607 33.331 21.3341 33.331H24.0009C24.728 33.331 25.3356 32.7248 25.3356 31.9977V29.3298C25.3356 28.6027 24.728 28.0017 24.0009 28.0017H21.3341Z" fill="#FFCA28"/>
<path d="M21.3341 19.9994C20.6069 19.9994 20.0007 20.6069 20.0007 21.334V24.0006C20.0007 24.7277 20.607 25.3339 21.3341 25.3339H24.0009C24.728 25.3339 25.3356 24.7277 25.3356 24.0006V21.334C25.3356 20.6069 24.728 19.9994 24.0009 19.9994H21.3341Z" fill="#5299D3"/>
<path d="M31.3344 28.0017C29.4992 28.0017 27.9971 29.4986 27.9971 31.3336V37.3322H28.6664C28.8438 37.3321 29.0139 37.2614 29.139 37.1355L37.1367 29.1384C37.2625 29.0133 37.3333 28.8432 37.3333 28.6658V28.0017L31.3344 28.0017Z" fill="#A0C7E7"/>
<path d="M14.0017 5.99988C13.8248 5.99988 13.6552 6.07013 13.5301 6.19519C13.4051 6.32024 13.3348 6.48985 13.3348 6.66671C13.3348 6.84356 13.4051 7.01317 13.5301 7.13823C13.6552 7.26328 13.8248 7.33354 14.0017 7.33354H23.3324C23.5092 7.33354 23.6788 7.26328 23.8039 7.13823C23.929 7.01317 23.9992 6.84356 23.9992 6.66671C23.9992 6.48985 23.929 6.32024 23.8039 6.19519C23.6788 6.07013 23.5092 5.99988 23.3324 5.99988H14.0017Z" fill="#5299D3"/>
<path d="M31.3347 28.0013C29.4995 28.0013 27.9974 29.4983 27.9974 31.3334V37.3321H28.6667C28.8441 37.332 29.0143 37.2613 29.1394 37.1355L29.3308 36.9441C29.3308 35.2506 29.3308 33.071 29.3308 31.3334C29.3308 29.4983 30.8328 28.0014 32.668 28.0014L31.3347 28.0013Z" fill="#74ADDC"/>
<path d="M8.66536 0C7.56886 0 6.66797 0.900961 6.66797 1.9974V4.66536C6.66797 5.7618 7.56886 6.66797 8.66536 6.66797C8.89986 6.66797 9.12223 6.61885 9.33203 6.54297C8.5613 6.26394 8.0013 5.5272 8.0013 4.66536V1.9974C8.0013 1.13556 8.5613 0.401351 9.33203 0.123698C9.12223 0.0481941 8.89986 1.50185e-07 8.66536 1.50185e-07V0Z" fill="#3587CB"/>
<path d="M28.6641 0C27.5676 0 26.6666 0.9009 26.6666 1.99733V4.66522C26.6666 5.76166 27.5676 6.66776 28.6641 6.66776C29.7606 6.66776 30.6629 5.76166 30.6629 4.66522V1.99733C30.6629 0.9009 29.7606 0 28.6641 0Z" fill="#5299D3"/>
<path d="M28.6638 0C27.5673 0 26.6664 0.900961 26.6664 1.9974V4.66536C26.6664 5.7618 27.5673 6.66797 28.6638 6.66797C28.8983 6.66797 29.1206 6.61885 29.3304 6.54297C28.5597 6.26394 27.9997 5.5272 27.9997 4.66537V1.9974C27.9997 1.13556 28.5597 0.401351 29.3304 0.123698C29.1207 0.0481941 28.8983 1.50185e-07 28.6638 1.50185e-07V0Z" fill="#3587CB"/>
<path d="M5.33464 11.9987C4.60748 11.9987 4 12.6049 4 13.332V15.9987C4 16.7258 4.60747 17.3333 5.33464 17.3333H6.66797C5.94081 17.3333 5.33333 16.7258 5.33333 15.9987V13.332C5.33333 12.6049 5.94081 11.9987 6.66797 11.9987H5.33464Z" fill="#ECB200"/>
<path d="M3.33073 3.33337C1.49553 3.33337 0 4.82902 0 6.6641V9.33598C0.00146369 9.70211 0.297906 9.99858 0.664062 10H1.33333C1.33333 9.33337 1.33333 7.97772 1.33333 6.6641C1.33333 4.82902 2.82887 3.33337 4.66406 3.33337H3.33073Z" fill="#ECB200"/>
<path d="M13.3346 11.9987C12.6075 11.9987 12 12.6049 12 13.332V15.9987C12 16.7258 12.6075 17.3333 13.3346 17.3333H14.668C13.9408 17.3333 13.3333 16.7258 13.3333 15.9987V13.332C13.3333 12.6049 13.9408 11.9987 14.668 11.9987H13.3346Z" fill="#ECB200"/>
<path d="M21.3346 11.9987C20.6075 11.9987 20 12.6049 20 13.332V15.9987C20 16.7258 20.6075 17.3333 21.3346 17.3333H22.668C21.9408 17.3333 21.3333 16.7258 21.3333 15.9987V13.332C21.3333 12.6049 21.9408 11.9987 22.668 11.9987H21.3346Z" fill="#ECB200"/>
<path d="M29.3346 11.9987C28.6075 11.9987 28 12.6049 28 13.332V15.9987C28 16.7258 28.6075 17.3333 29.3346 17.3333H30.668C29.9408 17.3333 29.3333 16.7258 29.3333 15.9987V13.332C29.3333 12.6049 29.9408 11.9987 30.668 11.9987H29.3346Z" fill="#ECB200"/>
<path d="M29.3346 20C28.6075 20 28 20.6062 28 21.3333V24C28 24.7271 28.6075 25.3346 29.3346 25.3346H30.668C29.9408 25.3346 29.3333 24.7271 29.3333 24V21.3333C29.3333 20.6062 29.9408 20 30.668 20H29.3346Z" fill="#ECB200"/>
<path d="M13.3346 20C12.6075 20 12 20.6062 12 21.3333V24C12 24.7271 12.6075 25.3346 13.3346 25.3346H14.668C13.9408 25.3346 13.3333 24.7271 13.3333 24V21.3333C13.3333 20.6062 13.9408 20 14.668 20H13.3346Z" fill="#ECB200"/>
<path d="M5.33463 20C4.60748 20 4 20.6062 4 21.3333V24C4 24.7271 4.60748 25.3346 5.33463 25.3346H6.66797C5.94081 25.3346 5.33333 24.7271 5.33333 24V21.3333C5.33333 20.6062 5.94081 20 6.66797 20H5.33463Z" fill="#ECB200"/>
<path d="M5.33463 28C4.60748 28 4 28.6062 4 29.3333V32C4 32.7271 4.60748 33.3346 5.33463 33.3346H6.66797C5.94081 33.3346 5.33333 32.7271 5.33333 32V29.3333C5.33333 28.6062 5.94081 28 6.66797 28H5.33463Z" fill="#ECB200"/>
<path d="M13.3346 28C12.6075 28 12 28.6062 12 29.3333V32C12 32.7271 12.6075 33.3346 13.3346 33.3346H14.668C13.9408 33.3346 13.3333 32.7271 13.3333 32V29.3333C13.3333 28.6062 13.9408 28 14.668 28H13.3346Z" fill="#ECB200"/>
<path d="M21.3346 28C20.6075 28 20 28.6062 20 29.3333V32C20 32.7271 20.6075 33.3346 21.3346 33.3346H22.668C21.9408 33.3346 21.3333 32.7271 21.3333 32V29.3333C21.3333 28.6062 21.9408 28 22.668 28H21.3346Z" fill="#ECB200"/>
<path d="M21.3346 20C20.6075 20 20 20.6062 20 21.3333V24C20 24.7271 20.6075 25.3346 21.3346 25.3346H22.668C21.9408 25.3346 21.3333 24.7271 21.3333 24V21.3333C21.3333 20.6062 21.9408 20 22.668 20H21.3346Z" fill="#3587CB"/>
</svg>
