<svg width="16" height="16" viewBox="0 0 16 16" fill="none" xmlns="http://www.w3.org/2000/svg">
<g clip-path="url(#clip0_614_532)">
<path d="M16 7.49789C15.9036 5.9379 15.3528 4.44023 14.4155 3.18951C13.4782 1.93878 12.1954 0.989683 10.7252 0.459218C9.25498 -0.0712477 7.66169 -0.15989 6.14173 0.204218C4.62177 0.568326 3.24158 1.36927 2.17132 2.5083C1.10106 3.64733 0.387514 5.07467 0.118648 6.61433C-0.150218 8.15399 0.037351 9.73868 0.658231 11.173C1.27911 12.6074 2.30616 13.8287 3.61276 14.6864C4.91936 15.5441 6.4484 16.0007 8.01136 15.9999H12.6667C13.5505 15.999 14.3978 15.6475 15.0227 15.0226C15.6477 14.3977 15.9992 13.5503 16 12.6666V7.49789ZM14.6667 12.6666C14.6667 13.197 14.456 13.7057 14.0809 14.0808C13.7058 14.4558 13.1971 14.6666 12.6667 14.6666H8.01136C7.07065 14.6661 6.14059 14.4674 5.28182 14.0834C4.42306 13.6994 3.65487 13.1387 3.02736 12.4379C2.3968 11.7374 1.92331 10.9102 1.63862 10.0118C1.35393 9.11329 1.26462 8.16435 1.37669 7.22856C1.55365 5.75252 2.21681 4.37735 3.26165 3.31984C4.30649 2.26233 5.67356 1.58263 7.14736 1.38789C7.43485 1.35186 7.72429 1.3336 8.01403 1.33322C9.56768 1.32898 11.0732 1.87182 12.2667 2.86656C12.9637 3.44585 13.5358 4.16066 13.9484 4.96764C14.3609 5.77463 14.6053 6.65698 14.6667 7.56122V12.6666Z" fill="#5EB0D1"/>
<path d="M5.3333 6.00008H7.99997C8.17678 6.00008 8.34635 5.92984 8.47138 5.80482C8.5964 5.67979 8.66664 5.51022 8.66664 5.33341C8.66664 5.1566 8.5964 4.98703 8.47138 4.86201C8.34635 4.73699 8.17678 4.66675 7.99997 4.66675H5.3333C5.15648 4.66675 4.98691 4.73699 4.86189 4.86201C4.73686 4.98703 4.66663 5.1566 4.66663 5.33341C4.66663 5.51022 4.73686 5.67979 4.86189 5.80482C4.98691 5.92984 5.15648 6.00008 5.3333 6.00008Z" fill="#5EB0D1"/>
<path d="M10.6666 7.33325H5.33329C5.15648 7.33325 4.98691 7.40349 4.86189 7.52851C4.73686 7.65354 4.66663 7.82311 4.66663 7.99992C4.66663 8.17673 4.73686 8.3463 4.86189 8.47132C4.98691 8.59634 5.15648 8.66658 5.33329 8.66658H10.6666C10.8434 8.66658 11.013 8.59634 11.138 8.47132C11.263 8.3463 11.3333 8.17673 11.3333 7.99992C11.3333 7.82311 11.263 7.65354 11.138 7.52851C11.013 7.40349 10.8434 7.33325 10.6666 7.33325Z" fill="#5EB0D1"/>
<path d="M10.6666 10H5.33329C5.15648 10 4.98691 10.0702 4.86189 10.1953C4.73686 10.3203 4.66663 10.4899 4.66663 10.6667C4.66663 10.8435 4.73686 11.0131 4.86189 11.1381C4.98691 11.2631 5.15648 11.3333 5.33329 11.3333H10.6666C10.8434 11.3333 11.013 11.2631 11.138 11.1381C11.263 11.0131 11.3333 10.8435 11.3333 10.6667C11.3333 10.4899 11.263 10.3203 11.138 10.1953C11.013 10.0702 10.8434 10 10.6666 10Z" fill="#5EB0D1"/>
</g>
<defs>
<clipPath id="clip0_614_532">
<rect width="16" height="16" fill="white"/>
</clipPath>
</defs>
</svg>
