<svg width="40" height="40" viewBox="0 0 40 40" fill="none" xmlns="http://www.w3.org/2000/svg">
<g clip-path="url(#clip0_329_8968)">
<path d="M26.6794 26.6791L30.4748 20.9279L26.6794 19.9501C26.1822 18.4585 25.3368 17.0496 24.1435 15.8563C22.9667 14.6795 21.5746 13.8176 20.0498 13.3204L20 13.3702L15.3759 13.1879L13.3207 13.3204C11.7959 13.8176 10.4037 14.6795 9.22695 15.8563L3.08273 22.0005C-1.02758 26.1108 -1.02758 32.7911 3.08273 36.9015C7.30906 41.1278 13.9884 40.9124 17.9993 36.9015L24.1435 30.7729C25.337 29.5794 26.1823 28.1708 26.6794 26.6791ZM13.8559 32.7579C11.9995 34.6142 9.03289 34.5645 7.22625 32.7579C5.40313 30.9347 5.40313 27.9514 7.22625 26.1283L13.3207 20.0494L16.6521 23.3476L20.0001 26.6293L13.8559 32.7579Z" fill="#4A696F"/>
<path d="M24.1435 30.7728L17.9993 36.9014C13.9884 40.9123 7.30909 41.1277 3.08276 36.9014L7.2262 32.7578C9.03284 34.5645 11.9995 34.6142 13.8558 32.7578L20 26.6293L16.6521 23.3476L24.1435 15.8562C25.3368 17.0495 26.1822 18.4583 26.6794 19.95L30.4748 20.9278L26.6794 26.679C26.1822 28.1707 25.3369 29.5794 24.1435 30.7728Z" fill="#384949"/>
<path d="M32.4304 34.0876L30.773 32.4301C30.3149 31.9721 30.3149 31.2308 30.773 30.7727C31.231 30.3147 31.9724 30.3147 32.4304 30.7727L34.0878 32.4301C34.5459 32.8882 34.5459 33.6295 34.0878 34.0876C33.6297 34.5456 32.8884 34.5456 32.4304 34.0876Z" fill="#D2C5C2"/>
<path d="M7.56964 9.22663L5.91214 7.56921C5.45409 7.11116 5.45409 6.36983 5.91214 5.91187C6.37019 5.4539 7.11151 5.45382 7.56948 5.91187L9.22683 7.56921C9.68487 8.02726 9.68487 8.76858 9.22683 9.22655C8.76878 9.68452 8.02761 9.6846 7.56964 9.22663Z" fill="#DFD7D5"/>
<path d="M34.7158 23.9425C34.8833 23.3169 35.5259 22.9462 36.1514 23.1137L38.4158 23.7207C39.0414 23.885 39.4104 24.5308 39.2446 25.1563C39.0771 25.7819 38.4345 26.1526 37.8089 25.9851L35.5446 25.3781C34.9231 25.2118 34.5481 24.5718 34.7158 23.9425Z" fill="#D2C5C2"/>
<path d="M0.75538 14.843C0.92288 14.2174 1.56546 13.8467 2.191 14.0142L4.45538 14.6213C5.07858 14.7847 5.45077 15.4306 5.28413 16.0569C5.11663 16.6825 4.47405 17.0531 3.84851 16.8856L1.58413 16.2786C0.962646 16.1123 0.587646 15.4723 0.75538 14.843Z" fill="#DFD7D5"/>
<path d="M23.721 38.4156L23.114 36.1512C22.9465 35.5256 23.3171 34.8831 23.9427 34.7156C24.5683 34.5481 25.2101 34.9163 25.3783 35.5443L25.9853 37.8087C26.1528 38.4343 25.7822 39.0768 25.1565 39.2443C24.5274 39.412 23.8873 39.0371 23.721 38.4156Z" fill="#D2C5C2"/>
<path d="M14.6214 4.45517L14.0144 2.1908C13.8469 1.56517 14.2175 0.922673 14.8431 0.755173C15.4687 0.589314 16.112 0.955876 16.2787 1.58392L16.8858 3.8483C17.0533 4.47392 16.6826 5.11642 16.057 5.28392C15.4278 5.45142 14.7878 5.0765 14.6214 4.45517Z" fill="#DFD7D5"/>
<path d="M36.9173 3.09801C32.8069 -1.0123 26.1276 -1.02894 22.0007 3.09801L15.8565 9.2266C14.6632 10.4199 13.8179 11.8286 13.3206 13.3204C12.5913 15.5082 12.5914 17.8616 13.3207 20.0494C13.8179 21.541 14.6632 22.95 15.8565 24.1432C17.0167 25.3035 18.4089 26.1652 19.9503 26.679L20 26.6293C21.8232 24.8061 21.8231 21.8229 20 19.9997C18.1769 18.1766 18.1769 15.1932 20 13.3701L26.1442 7.24153C27.0393 6.34645 28.1994 5.88246 29.4591 5.88246C29.4922 5.84942 29.7739 5.8659 29.8403 5.89903C30.7353 5.89895 31.9119 6.37957 32.7738 7.24153C34.5969 9.06465 34.597 12.0479 32.7738 13.8711L26.6794 19.9499C27.4087 22.1377 27.4087 24.4912 26.6794 26.679C28.1876 26.1653 29.613 25.3034 30.7732 24.1432L36.9174 18.0146C41.0277 13.9042 41.0276 7.20832 36.9173 3.09801Z" fill="#FFD400"/>
<path d="M20 26.6292L19.9503 26.6789C18.4089 26.1652 17.0166 25.3034 15.8564 24.1432L20 19.9996C21.8231 21.8228 21.8232 24.8061 20 26.6292Z" fill="#FF9F00"/>
<path d="M36.9172 18.0147L30.773 24.1433C29.6128 25.3035 28.1874 26.1654 26.6792 26.6792C27.4085 24.4913 27.4085 22.1378 26.6792 19.95L32.7736 13.8713C34.5968 12.0481 34.5967 9.06479 32.7736 7.24166L36.9171 3.09814C41.0275 7.20838 41.0276 13.9042 36.9172 18.0147Z" fill="#FF9F00"/>
</g>
<defs>
<clipPath id="clip0_329_8968">
<rect width="40" height="40" fill="white"/>
</clipPath>
</defs>
</svg>
