<svg width="40" height="40" viewBox="0 0 40 40" fill="none" xmlns="http://www.w3.org/2000/svg">
<path d="M35.614 36.2527C29.4933 41.2491 10.3818 41.2491 4.38596 36.2527C-1.73475 31.2562 -1.1102 9.89616 4.38596 4.27511C9.88211 -1.34594 30.1179 -1.34594 35.614 4.27511C41.1102 9.89616 41.7348 31.2562 35.614 36.2527Z" fill="#5CA4DA"/>
<path d="M20.1249 27.5088C14.6287 31.8807 8.50801 34.1291 2.76207 34.254C-1.48498 27.0091 -0.610557 9.39652 4.38594 4.27513C8.88278 -0.346602 22.9979 -1.22103 31.1172 1.65194C33.1157 9.89618 28.9937 20.3887 20.1249 27.5088Z" fill="#6DAFE0"/>
<path d="M15.1284 7.89758H24.8715V32.0057H19.7502V12.5193H15.1284V7.89758Z" fill="white"/>
</svg>
