<svg width="40" height="40" viewBox="0 0 40 40" fill="none" xmlns="http://www.w3.org/2000/svg">
<path d="M40 1.65711L37.6562 2.34375L38.3429 0H32.204L29.375 1.16688L29.3627 1.17188L28.8898 0H18.8281V10.0616L20 10.8922L18.8281 13.3759V19.4366L21.1719 18.75L20.4852 21.0938H26.546L29.338 19.9219L29.375 20.005L29.8602 21.0938H40V11.0321L38.8281 10.9045L40 7.71789V1.65711Z" fill="#FF641A"/>
<path d="M40 21.0938V11.0321L38.8281 10.9045L40 7.71789V1.65711L37.6562 2.34375L38.3429 0H32.204L29.375 1.16688V20.005L29.8602 21.0938H40Z" fill="#F03800"/>
<path d="M26.5459 21.0938H29.3749H29.8601L39.9999 11.0321V7.7179L29.3749 18.2648L26.5459 21.0938Z" fill="#F03800"/>
<path d="M32.204 0H29.375H28.8898L18.8281 10.0616V13.3759L29.375 2.82898L32.204 0Z" fill="#F03800"/>
<path d="M38.3429 0L29.375 8.88977L18.8281 19.4366V21.0938H20.4852L29.375 12.204L40 1.65711V0L38.3429 0Z" fill="#F03800"/>
<path d="M40 0H38.3429L29.375 8.88977V12.204L40 1.65711V0Z" fill="#CD0000"/>
<path d="M40 11.0321V7.7179L29.375 18.2648V21.0938H29.8602L40 11.0321Z" fill="#CD0000"/>
<path d="M9.45312 9.375H30.5469V30.4688H9.45312V9.375Z" fill="#D599ED"/>
<path d="M20 9.375H30.5469V30.4688H20V9.375Z" fill="#AD77E3"/>
<path d="M15.3125 24.7478L10.625 27.0916L5.9375 24.7478L1.77 26.7925L0 28.8494V33.2597L2.32047 33.2714L5.9375 31.5022L10.625 33.8459L15.3125 31.5022L19.2068 33.4491L21.1719 33.2597V28.8491L19.4611 26.8219L15.3125 24.7478Z" fill="#FED843"/>
<path d="M15.3125 31.7791L10.625 34.1228L5.9375 31.7791L1.68117 33.868L0 35.8804V40H10.625H21.1719V35.8804L19.5795 33.9123L15.3125 31.7791Z" fill="#FED843"/>
<path d="M10.625 18.75H0V26.2288L1.93562 26.4327L5.9375 24.4709L10.625 26.8147L15.3125 24.4709L19.5621 26.5955L21.1719 26.2284V18.75H10.625Z" fill="#FED843"/>
<path d="M19.2068 33.4491L21.1719 33.2597V28.8491L19.4611 26.8219L15.3125 24.7478L10.625 27.0916V33.8459L15.3125 31.5022L19.2068 33.4491Z" fill="#FABE2C"/>
<path d="M21.1719 35.8804L19.5795 33.9123L15.3125 31.7791L10.625 34.1228V40H21.1719V35.8804Z" fill="#FABE2C"/>
<path d="M19.5621 26.5955L21.1719 26.2284V18.75H10.625V26.8147L15.3125 24.4709L19.5621 26.5955Z" fill="#FABE2C"/>
<path d="M14.1406 14.0625H16.4844V16.4062H14.1406V14.0625Z" fill="#AD77E3"/>
<path d="M18.8281 14.0625H21.1719V16.4062H18.8281V14.0625Z" fill="#AD77E3"/>
<path d="M23.5156 14.0625H25.8594V16.4062H23.5156V14.0625Z" fill="#935ED0"/>
<path d="M23.5156 18.75H25.8594V21.0938H23.5156V18.75Z" fill="#935ED0"/>
<path d="M23.5156 23.4375H25.8594V25.7812H23.5156V23.4375Z" fill="#935ED0"/>
<path d="M15.3125 23.2991L10.625 25.6428L5.9375 23.2991L0 26.2288V28.8494L5.9375 25.9197L10.625 28.2634L15.3125 25.9197L21.1719 28.8492V26.2284L15.3125 23.2991Z" fill="#FABE2C"/>
<path d="M10.625 32.6741L5.9375 30.3303L0 33.2597V35.8804L5.9375 32.9509L10.625 35.2947L15.3125 32.9509L21.1719 35.8804V33.2597L15.3125 30.3303L10.625 32.6741Z" fill="#FABE2C"/>
<path d="M21.1719 28.8492V26.2284L15.3125 23.2991L10.625 25.6428V28.2634L15.3125 25.9197L21.1719 28.8492Z" fill="#FF9100"/>
<path d="M21.1719 35.8804V33.2597L15.3125 30.3303L10.625 32.6741V35.2947L15.3125 32.9509L21.1719 35.8804Z" fill="#FF9100"/>
<path d="M20 14.0625H21.1719V16.4062H20V14.0625Z" fill="#935ED0"/>
<path d="M29.375 0V2.82898L32.204 0H29.375Z" fill="#CD0000"/>
</svg>
