<svg width="24" preserveAspectRatio="none" viewBox="0 0 24 24" fill="none" xmlns="http://www.w3.org/2000/svg">
<path d="M14.2299 14.601C15.4576 13.3734 16.0714 11.8992 16.0714 10.1786C16.0714 8.458 15.4576 6.9885 14.2299 5.77012C13.0115 4.54245 11.542 3.92861 9.82143 3.92861C8.10082 3.92861 6.62667 4.54245 5.399 5.77012C4.18062 6.9885 3.57143 8.458 3.57143 10.1786C3.57143 11.8992 4.18062 13.3734 5.399 14.601C6.62667 15.8194 8.10082 16.4286 9.82143 16.4286C11.542 16.4286 13.0115 15.8194 14.2299 14.601ZM23.2143 21.7857C23.2143 22.2694 23.0376 22.6879 22.6842 23.0413C22.3307 23.3948 21.9122 23.5715 21.4286 23.5715C20.9263 23.5715 20.5078 23.3948 20.173 23.0413L15.3878 18.2701C13.723 19.4234 11.8676 20 9.82143 20C8.49144 20 7.21726 19.7443 5.99888 19.2327C4.78981 18.7119 3.74349 18.0144 2.85993 17.1401C1.98568 16.2565 1.28813 15.2102 0.767299 14.0012C0.255766 12.7828 0 11.5086 0 10.1786C0 8.84862 0.255766 7.57909 0.767299 6.37001C1.28813 5.15163 1.98568 4.10532 2.85993 3.23106C3.74349 2.34751 4.78981 1.64996 5.99888 1.13843C7.21726 0.617594 8.49144 0.357178 9.82143 0.357178C11.1514 0.357178 12.4209 0.617594 13.63 1.13843C14.8484 1.64996 15.8947 2.34751 16.769 3.23106C17.6525 4.10532 18.3501 5.15163 18.8616 6.37001C19.3824 7.57909 19.6429 8.84862 19.6429 10.1786C19.6429 12.2247 19.0662 14.0802 17.9129 15.745L22.6981 20.5302C23.0422 20.8743 23.2143 21.2928 23.2143 21.7857Z" fill="#5DD39E"/>
</svg>
