<svg width="214" preserveAspectRatio="none" viewBox="0 0 214 277" fill="none" xmlns="http://www.w3.org/2000/svg">
<path opacity="0.5" d="M184.979 0L209.491 1.97938L208.595 13.08L195.114 11.9914L194.031 25.4025L183 24.5117L184.979 0Z" fill="#E89356"/>
<path opacity="0.3" d="M192 203C192 209.075 196.925 214 203 214C209.075 214 214 209.075 214 203C214 196.925 209.075 192 203 192C196.925 192 192 196.925 192 203ZM210.329 203C210.329 207.048 207.048 210.329 203 210.329C198.952 210.329 195.671 207.048 195.671 203C195.671 198.952 198.952 195.671 203 195.671C207.048 195.671 210.329 198.952 210.329 203Z" fill="#5884F4"/>
<path opacity="0.3" d="M0.710938 269C0.710938 273.418 4.29266 277 8.71094 277C13.1292 277 16.7109 273.418 16.7109 269C16.7109 264.582 13.1292 261 8.71094 261C4.29266 261 0.710938 264.582 0.710938 269ZM14.0413 269C14.0413 271.944 11.6548 274.33 8.71094 274.33C5.76704 274.33 3.38055 271.944 3.38055 269C3.38055 266.056 5.76704 263.67 8.71094 263.67C11.6548 263.67 14.0413 266.056 14.0413 269Z" fill="#5884F4"/>
</svg>
