<svg width="16" height="16" viewBox="0 0 16 16" fill="none" xmlns="http://www.w3.org/2000/svg">
<path d="M16 12C16 11.0991 15.7392 10.2175 15.2492 9.46158C14.7591 8.70565 14.0607 8.10772 13.2383 7.73998C12.4159 7.37223 11.5047 7.25039 10.6145 7.38916C9.7244 7.52793 8.89347 7.92137 8.22203 8.522C8.15587 8.58013 8.10189 8.6508 8.0632 8.72991C8.02451 8.80903 8.00188 8.89502 7.99661 8.98293C7.99135 9.07084 8.00355 9.15893 8.03253 9.24209C8.0615 9.32526 8.10666 9.40186 8.1654 9.46748C8.22415 9.53309 8.29531 9.58642 8.37478 9.62437C8.45425 9.66232 8.54045 9.68416 8.6284 9.68861C8.71636 9.69306 8.80433 9.68003 8.88722 9.65029C8.97011 9.62055 9.0463 9.57468 9.11136 9.51533C9.591 9.08641 10.1845 8.80548 10.8203 8.70644C11.4561 8.6074 12.1069 8.69449 12.6943 8.9572C13.2817 9.21991 13.7805 9.647 14.1305 10.1869C14.4804 10.7269 14.6667 11.3566 14.6667 12C14.6667 12.1768 14.7369 12.3464 14.862 12.4714C14.987 12.5964 15.1565 12.6667 15.3334 12.6667C15.5102 12.6667 15.6797 12.5964 15.8048 12.4714C15.9298 12.3464 16 12.1768 16 12ZM11.6667 6C11.0734 6 10.4933 5.82405 9.99998 5.49441C9.50664 5.16477 9.12212 4.69623 8.89506 4.14805C8.66799 3.59987 8.60858 2.99667 8.72434 2.41473C8.84009 1.83279 9.12582 1.29824 9.54537 0.878681C9.96493 0.459123 10.4995 0.173401 11.0814 0.0576455C11.6634 -0.0581101 12.2666 0.00129986 12.8147 0.228363C13.3629 0.455426 13.8315 0.839943 14.1611 1.33329C14.4907 1.82664 14.6667 2.40666 14.6667 3C14.6658 3.79538 14.3495 4.55793 13.787 5.12035C13.2246 5.68276 12.4621 5.99912 11.6667 6ZM11.6667 1.33333C11.3371 1.33333 11.0148 1.43108 10.7407 1.61422C10.4667 1.79735 10.253 2.05765 10.1269 2.3622C10.0007 2.66674 9.96774 3.00185 10.0321 3.32515C10.0964 3.64845 10.2551 3.94542 10.4882 4.17851C10.7213 4.4116 11.0182 4.57033 11.3415 4.63464C11.6648 4.69895 12 4.66595 12.3045 4.5398C12.609 4.41365 12.8693 4.20003 13.0525 3.92595C13.2356 3.65187 13.3334 3.32964 13.3334 3C13.3334 2.55797 13.1578 2.13405 12.8452 1.82149C12.5326 1.50893 12.1087 1.33333 11.6667 1.33333Z" fill="#8892EC"/>
<path d="M5 8.66602C4.40666 8.66602 3.82664 8.49007 3.33329 8.16043C2.83994 7.83078 2.45542 7.36225 2.22836 6.81407C2.0013 6.26589 1.94189 5.66269 2.05764 5.08075C2.1734 4.4988 2.45912 3.96425 2.87868 3.5447C3.29824 3.12514 3.83279 2.83942 4.41473 2.72366C4.99667 2.60791 5.59987 2.66732 6.14805 2.89438C6.69623 3.12144 7.16476 3.50596 7.49441 3.99931C7.82405 4.49265 8 5.07267 8 5.66602C7.99912 6.4614 7.68276 7.22394 7.12035 7.78636C6.55793 8.34878 5.79538 8.66513 5 8.66602ZM5 3.99935C4.67036 3.99935 4.34813 4.0971 4.07405 4.28023C3.79997 4.46337 3.58635 4.72367 3.4602 5.02821C3.33405 5.33275 3.30105 5.66787 3.36536 5.99117C3.42967 6.31447 3.5884 6.61144 3.82149 6.84453C4.05458 7.07762 4.35155 7.23635 4.67485 7.30066C4.99815 7.36497 5.33326 7.33196 5.6378 7.20582C5.94235 7.07967 6.20265 6.86605 6.38578 6.59197C6.56892 6.31789 6.66667 5.99565 6.66667 5.66602C6.66667 5.22399 6.49107 4.80007 6.17851 4.48751C5.86595 4.17494 5.44203 3.99935 5 3.99935ZM10 15.3327V14.9993C10 13.6733 9.47321 12.4015 8.53553 11.4638C7.59785 10.5261 6.32608 9.99935 5 9.99935C3.67392 9.99935 2.40215 10.5261 1.46447 11.4638C0.526784 12.4015 0 13.6733 0 14.9993L0 15.3327C0 15.5095 0.0702379 15.6791 0.195262 15.8041C0.320286 15.9291 0.489856 15.9993 0.666667 15.9993C0.843478 15.9993 1.01305 15.9291 1.13807 15.8041C1.2631 15.6791 1.33333 15.5095 1.33333 15.3327V14.9993C1.33333 14.0269 1.71964 13.0943 2.40727 12.4066C3.09491 11.719 4.02754 11.3327 5 11.3327C5.97246 11.3327 6.90509 11.719 7.59272 12.4066C8.28036 13.0943 8.66667 14.0269 8.66667 14.9993V15.3327C8.66667 15.5095 8.7369 15.6791 8.86193 15.8041C8.98695 15.9291 9.15652 15.9993 9.33333 15.9993C9.51014 15.9993 9.67971 15.9291 9.80474 15.8041C9.92976 15.6791 10 15.5095 10 15.3327Z" fill="#5EB0D1"/>
</svg>
