<svg width="40" height="40" viewBox="0 0 40 40" fill="none" xmlns="http://www.w3.org/2000/svg">
<g clip-path="url(#clip0_329_8981)">
<path d="M6.75781 2.79297H33.2422V5.13672H6.75781V2.79297Z" fill="#8FFAFF"/>
<path d="M6.75781 34.8633H33.2422V37.207H6.75781V34.8633Z" fill="#8FFAFF"/>
<path d="M20 2.79297H33.2422V5.13672H20V2.79297Z" fill="#3BE2E2"/>
<path d="M20 34.8633H33.2422V37.207H20V34.8633Z" fill="#3BE2E2"/>
<path d="M29.4492 11.0938V15.4008H27.1055V13.4375H21.1719V26.7852H23.2031V29.1289H16.7969V26.7852H18.8281V13.4375H12.8945V15.4008H10.5508V11.0938H29.4492Z" fill="#455DA0"/>
<path d="M2.79297 6.75781H5.13672V32.8906H2.79297V6.75781Z" fill="#8FFAFF"/>
<path d="M34.8633 6.75781H37.207V32.8906H34.8633V6.75781Z" fill="#3BE2E2"/>
<path d="M4.50523 9.01039C6.98938 9.01039 9.01039 6.98938 9.01039 4.50516C9.01039 2.02102 6.98938 0 4.50523 0C2.02102 0 0 2.02102 0 4.50523C0 6.98938 2.02102 9.01039 4.50523 9.01039Z" fill="#50C5FF"/>
<path d="M4.50523 30.9896C2.02102 30.9896 0 33.0106 0 35.4948C0 37.979 2.02102 40 4.50523 40C6.98938 40 9.01039 37.979 9.01039 35.4948C9.01039 33.0106 6.98938 30.9896 4.50523 30.9896Z" fill="#50C5FF"/>
<path d="M35.4948 9.01039C37.979 9.01039 40 6.98938 40 4.50516C40 2.02102 37.979 0 35.4948 0C33.0106 0 30.9896 2.02102 30.9896 4.50523C30.9896 6.98938 33.0106 9.01039 35.4948 9.01039Z" fill="#488AFF"/>
<path d="M35.4948 30.9896C33.0106 30.9896 30.9896 33.0106 30.9896 35.4949C30.9896 37.979 33.0106 40.0001 35.4948 40.0001C37.979 40 40 37.979 40 35.4948C40 33.0106 37.979 30.9896 35.4948 30.9896Z" fill="#488AFF"/>
<path d="M23.2031 29.1289H20V11.0938H29.4492V15.4008H27.1055V13.4375H21.1719V26.7852H23.2031V29.1289Z" fill="#1F4271"/>
</g>
<defs>
<clipPath id="clip0_329_8981">
<rect width="40" height="40" fill="white"/>
</clipPath>
</defs>
</svg>
