<svg width="185" height="37" viewBox="0 0 185 37" fill="none" xmlns="http://www.w3.org/2000/svg">
<path d="M14.9248 23.5268C14.5071 24.2 13.9072 24.7458 13.1919 25.1033C12.4767 25.4609 11.6743 25.6161 10.8745 25.5515C7.6047 25.5515 5.97035 22.8989 5.97035 19.129C5.97035 15.987 7.25003 12.3548 11.0168 12.3548C13.5039 12.3548 14.997 13.472 15.4229 15.8451H21.2509C21.156 14.1078 20.4978 12.4459 19.3726 11.1023C18.2474 9.75873 16.7142 8.80388 14.997 8.37735V8.37735C14.9259 8.37735 14.8547 8.37735 14.8547 8.30746C14.7836 8.30746 14.7124 8.23756 14.6413 8.23756C14.4125 8.15767 14.1733 8.11059 13.9308 8.09778V8.09778C13.0208 7.90127 12.0908 7.80747 11.1591 7.81821C3.98024 7.81929 0 12.7064 0 19.3386C0 25.6913 4.40606 30.229 10.8745 30.229C15.8498 30.229 19.4743 27.8558 20.8251 23.5268H14.9248Z" fill="#30505A"/>
<path d="M33.901 15.1488C34.2568 9.70359 39.231 8.02832 44.064 8.02832C48.3989 8.02832 53.5876 9.00574 53.5876 14.1014V25.2025C53.4757 26.8228 53.7431 28.4468 54.3692 29.9498H48.3288C48.1114 29.2909 47.9682 28.6104 47.9019 27.9208C46.9285 28.8272 45.7776 29.5298 44.5193 29.9858C43.2609 30.4418 41.9213 30.6418 40.5818 30.5735C36.4592 30.5735 33.1906 28.5488 33.1906 24.2208C33.1906 19.4036 36.8862 18.2864 40.5818 17.7283C44.2063 17.1703 47.6184 17.309 47.6184 14.9326C47.6184 12.4197 45.8417 12.0703 43.7804 12.0703C41.5057 12.0703 40.0848 12.9778 39.8714 15.2821H33.901V15.1488ZM47.6939 19.4767C46.6988 20.3143 44.5664 20.3842 42.7186 20.7337C40.8708 21.0832 39.2364 21.7111 39.2364 23.8756C39.2364 26.0402 40.9419 26.5982 42.8609 26.5982C47.4804 26.5982 47.6939 22.9681 47.6939 21.7111V19.4767Z" fill="#30505A"/>
<path d="M58.3494 9.14602H64.0352V13.3396H64.1063C64.6953 12.0157 65.6576 10.885 66.8796 10.0809C68.1016 9.27691 69.5323 8.8331 71.0028 8.80194C71.4385 8.7977 71.8717 8.86867 72.2824 9.01161V14.6665C71.5815 14.5206 70.8665 14.4503 70.15 14.4568C65.8151 14.4568 64.322 17.5288 64.322 21.2987V29.8858H58.3494V9.14602Z" fill="#30505A"/>
<path d="M74.4116 15.1488C74.7674 9.70359 79.7416 8.02832 84.5746 8.02832C88.9095 8.02832 94.0982 9.00574 94.0982 14.1014V25.1326C93.9863 26.7529 94.2537 28.3769 94.8798 29.8799H88.8383C88.6212 29.2224 88.478 28.5434 88.4114 27.8552C87.438 28.7616 86.2871 29.4642 85.0288 29.9202C83.7704 30.3762 82.4308 30.5762 81.0913 30.5079C76.9688 30.5079 73.7001 28.4832 73.7001 24.1552C73.7001 19.338 77.3957 18.2208 81.0913 17.6627C84.7158 17.1047 88.1279 17.2434 88.1279 14.867C88.1279 12.3541 86.3512 12.0047 84.29 12.0047C82.0152 12.0047 80.5943 12.9122 80.3809 15.2165H74.4105L74.4116 15.1488ZM88.129 19.4767C87.1339 20.3143 85.0015 20.3842 83.1537 20.7337C81.3059 21.0832 79.6715 21.7111 79.6715 23.8756C79.6715 26.0402 81.377 26.5982 83.296 26.5982C87.9155 26.5982 88.129 22.9681 88.129 21.7111V19.4767Z" fill="#30505A"/>
<path d="M110.233 29.8772H103.623L96.2318 8.58691H102.486L107.034 23.103H107.105L111.654 8.58691H117.553L110.233 29.8772Z" fill="#30505A"/>
<path d="M126.793 8.79688H120.823V29.8797H126.793V8.79688Z" fill="#30505A"/>
<path d="M126.722 0H120.823V5.79462H126.722V0Z" fill="#30505A"/>
<path d="M30.4188 0.697266H23.9515V29.879H30.4188V0.697266Z" fill="#30505A"/>
<path d="M145.058 8.02841C143.739 8.02229 142.44 8.34588 141.284 8.96871C140.128 9.59154 139.152 10.4931 138.448 11.5886H138.306V8.65636H132.62V29.9467H138.59V18.7811C138.59 14.4531 139.941 12.708 143.21 12.708C145.981 12.708 147.048 14.4531 147.048 17.9435V29.9488H153.018V16.7553C153.018 11.5187 151.383 8.02841 145.058 8.02841Z" fill="#30505A"/>
<path fill-rule="evenodd" clip-rule="evenodd" d="M161.976 20.7341H177.604C178.032 14.1717 174.477 8.09863 167.086 8.09863C160.476 8.09863 155.999 12.9857 155.999 19.3384C155.999 25.9008 160.263 30.5083 167.086 30.5083C167.525 30.5083 167.953 30.491 168.37 30.4559V25.9444C168.028 26.0065 167.672 26.0406 167.303 26.0406C163.985 26.0406 162.139 24.3853 161.976 20.7341ZM175.113 27.2267H174.411V27.9621C174.656 27.7334 174.89 27.4884 175.113 27.2267ZM166.949 12.4266C169.863 12.4266 171.143 14.032 171.711 16.9642H161.974C161.99 16.3433 162.133 15.732 162.393 15.166C162.654 14.6 163.027 14.0908 163.49 13.6681C163.954 13.2455 164.498 12.918 165.092 12.7048C165.686 12.4916 166.317 12.397 166.949 12.4266Z" fill="#30505A"/>
<path d="M173.7 25.8301V37H178.817V30.857H185V25.8301H173.7Z" fill="#5DD39E"/>
</svg>
